<svg xmlns="http://www.w3.org/2000/svg" width="249.292" height="207.19" viewBox="0 0 249.292 207.19"><defs><style>.a{fill:none;stroke:#c9c9c9;stroke-linecap:round;stroke-linejoin:round;stroke-width:3px;stroke-dasharray:3 12;}.a,.b{opacity:0.45;}.b,.c,.d,.i{fill:#e6e6e6;}.d{opacity:0.43;}.e,.o{fill:#c9c9c9;}.f,.g,.s,.u{fill:#fff;}.g,.i{opacity:0.56;}.h,.n{opacity:0.12;}.j,.k,.l{fill:#3f38dd;}.j{opacity:0.58;}.k{opacity:0.73;}.m{fill:#24285b;}.o{opacity:0.34;}.p{fill:#f4a28c;}.q{fill:#ce8172;opacity:0.31;}.r{fill:#e59383;}.s{opacity:0.46;}.t{fill:#ffd200;}.u{opacity:0.54;}.v{fill:#ec1111;}</style></defs><g transform="translate(-41.039 -25.246)"><path class="a" d="M230.916,178s67.545,0,56.678-46.386c-16.54-70.441-129.585-36.423-184.549-12.487-58,25.27-83.941-42.79-33.578-65.856" transform="translate(0 -4.319)"/><ellipse class="b" cx="108.409" cy="15.586" rx="108.409" ry="15.586" transform="translate(69.636 201.264)"/><rect class="c" width="52.296" height="13.771" transform="translate(204.767 204.186)"/><rect class="d" width="52.296" height="13.771" transform="translate(193.335 190.719)"/><rect class="e" width="103.538" height="185.697" transform="translate(115.946 32.259)"/><rect class="f" width="85.706" height="130.691" transform="translate(124.516 53.426)"/><circle class="g" cx="10.132" cy="10.132" r="10.132" transform="translate(157.9 190.719)"/><rect class="h" width="29.027" height="4.23" transform="translate(158.955 39.52)"/><circle class="f" cx="4.728" cy="4.728" r="4.728" transform="translate(143.715 37.367)"/><rect class="c" width="68.718" height="78.023" transform="translate(133.448 77.987)"/><circle class="h" cx="5.133" cy="5.133" r="5.133" transform="translate(133.448 61.658)"/><path class="h" d="M197.009,167.98h28.647v10.2H193.53Z" transform="translate(-23.489 -22.178)"/><rect class="c" width="14.944" height="2.643" transform="translate(147.65 62.84)"/><rect class="i" width="14.944" height="2.643" transform="translate(147.65 68.1)"/><path class="j" d="M93.009,237.56s-8.865-2.423-10.8-10.68c0,0,13.745-2.778,14.142,11.407Z" transform="translate(-6.158 -31.314)"/><path class="k" d="M95.739,235.033s-6.2-9.8-.743-18.963c0,0,10.453,6.636,5.809,18.98Z" transform="translate(-7.799 -29.666)"/><path class="l" d="M98.18,236.27s3.276-10.351,13.18-12.31c0,0,1.857,6.754-6.408,12.335Z" transform="translate(-8.644 -30.894)"/><path class="m" d="M90.56,238.26l1.8,12.3,11.331.051,1.672-12.293Z" transform="translate(-7.458 -33.12)"/><g class="n" transform="translate(139.022 161.447)"><path d="M166.99,186.51a3.276,3.276,0,0,0-2.052.709,4.669,4.669,0,0,0-1.2,1.444,4.67,4.67,0,0,0-1.2-1.444,3.276,3.276,0,0,0-2.052-.709,3.766,3.766,0,0,0-3.69,3.994c0,2.465,1.976,4.154,4.973,6.7l1.689,1.444a.431.431,0,0,0,.287.11.464.464,0,0,0,.287-.11l1.689-1.444c2.989-2.533,4.965-4.222,4.965-6.7a3.766,3.766,0,0,0-3.7-3.994Z" transform="translate(-156.792 -186.51)"/></g><rect class="e" width="38.45" height="3.521" transform="translate(158.06 162.983)"/><path class="l" d="M203.991,174.77c.346,0,14.4-26.579,14.4-26.579l-5.184-2.111L192.77,174.787Z" transform="translate(-23.371 -18.769)"/><rect class="o" width="38.45" height="3.521" transform="translate(158.06 168.632)"/><path class="p" d="M176.526,107.538s1.79,5.243,1.765,9.034a2.778,2.778,0,0,1-2.82,2.761,6.063,6.063,0,0,1-5.775-3.377L166.9,111.65a4.981,4.981,0,0,1,.844-5.691C170.278,103.063,175.6,104.287,176.526,107.538Z" transform="translate(-19.26 -12.268)"/><path class="p" d="M167.823,114.27l-2.8,15.029,9.439,3.96-1.537-13.1Z" transform="translate(-19.05 -13.816)"/><path class="p" d="M179.5,112.11l2.009,1.689a.887.887,0,0,1-.2,1.486l-1.967.954Z" transform="translate(-21.28 -13.48)"/><path class="q" d="M173.844,121.325a6.755,6.755,0,0,1-3.065-1.925s-1.089,3.825,3.512,5.674Z" transform="translate(-19.93 -14.615)"/><path class="m" d="M167.735,115.11s3.048,4.686,5.809,4.745,6.569-.523,5.066-4.846c-.937-2.693-3.833-.92-7.312.726,0,0-2.533-3.014-2.812-5.268,0,0,2.229-1.013,1.435-3.031,0,0,6.037,1.63,6.434-1.587s-.236-4.846-2.989-5.277-9.566,1.984-10.537,5.556S167.735,115.11,167.735,115.11Z" transform="translate(-18.693 -11.676)"/><path class="p" d="M168.33,116.321a2.406,2.406,0,0,0-1.309-2.2,1.6,1.6,0,0,0-1.781.211c-1.587,1.275.574,4.517,3.082,3.335Z" transform="translate(-19 -13.764)"/><path class="r" d="M222.322,146.691s3.842-7.979-.844-9.98-3.284,8.1-3.284,8.1Z" transform="translate(-27.299 -17.269)"/><path class="l" d="M150.19,131.418s19.276-1.587,31.754,6.805,7.709,34.245,7.709,34.245H150.19Z" transform="translate(-16.742 -16.467)"/><path class="h" d="M159.672,134.47s9.144,3.681,9.718,14,2.533,20.871,12.023,20.871,30.513-23.21,30.513-23.21l1.233.253-14.4,26.579H172.9S155.966,173.2,159.672,134.47Z" transform="translate(-18.135 -16.961)"/><path class="l" d="M181.359,170.046,205.8,148.28l4.838,5.285-16.928,21.547H175.44Z" transform="translate(-20.673 -19.111)"/><path class="s" d="M181.359,170.046,205.8,148.28l4.838,5.285-16.928,21.547H175.44Z" transform="translate(-20.673 -19.111)"/><path class="p" d="M212.29,148.344s1.984-4.475,4.086-4.88,7.759,2.879-.625,8.671Z" transform="translate(-26.41 -18.356)"/><path class="f" d="M161.48,131s1.03-3.8,6.349-2.947,8.629,1.224,8.73,6.054Z" transform="translate(-18.499 -15.943)"/><path class="t" d="M219.206,137.593l-1.554.068v-.9l1.545-.068a1.69,1.69,0,0,0-.152-3.377l-1.545.068v-.9l1.545-.068a2.609,2.609,0,1,1,.228,5.209Z" transform="translate(-27.221 -16.639)"/><path class="s" d="M219.206,137.593l-1.554.068v-.9l1.545-.068a1.69,1.69,0,0,0-.152-3.377l-1.545.068v-.9l1.545-.068a2.609,2.609,0,1,1,.228,5.209Z" transform="translate(-27.221 -16.639)"/><path class="t" d="M216.631,138.333l-5.437.236-1.984-8.316,8.384-.363Z" transform="translate(-25.93 -16.248)"/><path class="t" d="M207.34,140.17h13.323l-2.322,2.786H209.89Z" transform="translate(-25.639 -17.849)"/><path class="q" d="M207.34,140.17h13.323l-2.322,2.786H209.89Z" transform="translate(-25.639 -17.849)"/><path class="u" d="M212.994,127.189s2.744-4.914-.912-6.273-5.91,2.626-7.345-2.626-4.137-6.9-9.245-5.6-.4,7.852-6.121,8.443-4.576,9.085.236,8.916,8.443-9.2,10.368-6.079,6.29,3.512,6.29,3.512Z" transform="translate(-22.242 -13.505)"/><path class="l" d="M150.19,131.432s10.655-1.359,11.677,10.976-2.947,26.309,9.642,30.049H150.19Z" transform="translate(-16.742 -16.481)"/><path class="s" d="M150.19,131.432s10.655-1.359,11.677,10.976-2.947,26.309,9.642,30.049H150.19Z" transform="translate(-16.742 -16.481)"/><path class="t" d="M62.841,46.663,51.46,40.027,97.39,34.91,76.384,65.972,68.9,49.981Z" transform="translate(-1.37 -1.461)"/><path class="t" d="M64.94,46.663l3.175,11.6L71,49.981,99.489,34.91Z" transform="translate(-3.469 -1.461)"/><path class="s" d="M64.94,46.663l3.175,11.6L71,49.981,99.489,34.91Z" transform="translate(-3.469 -1.461)"/><path class="m" d="M68.7,61.043l5.074-3.605L71.588,52.76Z" transform="translate(-4.054 -4.24)"/><rect class="m" width="37.152" height="36.651" transform="translate(198.459 25.246)"/><rect class="h" width="20.812" height="7.345" transform="translate(198.68 62.071)"/><path class="v" d="M251.725,38.82a4.357,4.357,0,0,0-2.71.929,6.256,6.256,0,0,0-1.579,1.9,6.139,6.139,0,0,0-1.579-1.9,4.348,4.348,0,0,0-2.7-.929,4.958,4.958,0,0,0-4.855,5.26c0,3.242,2.6,5.463,6.543,8.823.667.574,1.427,1.216,2.221,1.908a.557.557,0,0,0,.372.144.574.574,0,0,0,.38-.144c.785-.692,1.545-1.334,2.212-1.908,3.943-3.377,6.552-5.581,6.552-8.823A4.938,4.938,0,0,0,251.725,38.82Z" transform="translate(-29.826 -3.558)"/></g></svg>