<svg xmlns="http://www.w3.org/2000/svg" width="22.34" height="21.724" viewBox="0 0 22.34 21.724">
  <g id="bars" transform="translate(-8.962 -19.297)">
    <g id="Group_2710" data-name="Group 2710" transform="translate(8.962 19.297)">
      <g id="Group_2709" data-name="Group 2709">
        <path id="Path_16678" data-name="Path 16678" d="M31.3,48V28.314a.618.618,0,0,0-.553-.68H25.665a.618.618,0,0,0-.553.68V48H23.245V35.117a.618.618,0,0,0-.553-.68H17.573a.618.618,0,0,0-.553.68V49.358H15.153V34.1a.618.618,0,0,0-.553-.68H9.516a.618.618,0,0,0-.553.68V49.358H23.245V48h1.867v1.36H31.3ZM14.046,48H10.069V34.776h3.977ZM22.1,48H18.127V35.8H22.1ZM30.2,48H26.219v-19H30.2Z" transform="translate(-8.962 -27.634)" fill="#2d294e"/>
      </g>
    </g>
  </g>
</svg>
