<svg xmlns="http://www.w3.org/2000/svg" width="19.348" height="22.31" viewBox="0 0 19.348 22.31"><defs><style>.a{fill:#2d294e;}</style></defs><path class="a" d="M87.189,16.611c-.815-.992-1.932-2.4-1.932-3.829V8.219a6.7,6.7,0,1,0-13.37,0v4.562c0,1.409-1.212,2.74-1.98,3.773-.691.928-1.236,1.661-.868,2.394.324.645,1.135.728,1.8.728h4a3.727,3.727,0,0,0,7.453,0h4.1c.426,0,1.423,0,1.766-.725s-.208-1.409-.975-2.341Zm-8.616,5.327a2.264,2.264,0,0,1-2.264-2.261h4.529a2.264,2.264,0,0,1-2.264,2.261ZM86.4,18.189H70.844c-.107,0-.2,0-.27-.008.144-.223.355-.508.527-.739.851-1.144,2.274-2.759,2.274-4.66V8.22a5.215,5.215,0,1,1,10.395,0v4.562c0,1.965,1.312,3.608,2.27,4.773.161.2.355.431.5.632l-.146,0Z" transform="translate(-68.921 -1.091)"/></svg>