<svg xmlns="http://www.w3.org/2000/svg" width="19.113" height="19" viewBox="0 0 19.113 19"><defs><style>.a{fill:#f9a825;}</style></defs><g transform="translate(4.538 2.401)"><path class="a" d="M135.6,64.539a.72.72,0,0,0-1.019,0l-8.642,8.619-3.118-3.386a.72.72,0,1,0-1.06.976l3.626,3.938a.72.72,0,0,0,.515.232h.015a.721.721,0,0,0,.509-.21l9.172-9.148A.72.72,0,0,0,135.6,64.539Z" transform="translate(-121.568 -64.327)"/></g><path class="a" d="M18.393,8.784a.718.718,0,0,0-.72.716A8.116,8.116,0,1,1,9.557,1.432.716.716,0,1,0,9.557,0a9.5,9.5,0,1,0,9.557,9.5A.718.718,0,0,0,18.393,8.784Z"/></svg>