<svg xmlns="http://www.w3.org/2000/svg" width="24" height="24" viewBox="0 0 24 24">
  <g id="Group_2868" data-name="Group 2868" transform="translate(-36 -192)">
    <g id="check_3_" data-name="check (3)" transform="translate(36 192)">
      <path id="Path_16642" data-name="Path 16642" d="M12,0A12,12,0,1,0,24,12,12.013,12.013,0,0,0,12,0Zm0,0" fill="#70c5f9"/>
    </g>
    <g id="Group_2802" data-name="Group 2802" transform="translate(-278.578 -342.125)">
      <g id="value" transform="translate(322.078 539.125)">
        <path id="Path_16638" data-name="Path 16638" d="M215.821,28.556v-1.08a2.648,2.648,0,0,0-5.286,0v1.08a2.648,2.648,0,0,0,5.286,0Zm-4.59,0v-1.08a1.95,1.95,0,0,1,3.893,0v1.08a1.95,1.95,0,0,1-3.893,0Z" transform="translate(-208.676 -24.989)" fill="#fff"/>
        <path id="Path_16639" data-name="Path 16639" d="M79.882,145.272h8.306a.334.334,0,0,0,.339-.328v-.752s0-.456,0-1.251c0-.213.013-.536,0-1.005a4.732,4.732,0,0,0-.151-1.357,2.457,2.457,0,0,0-.543-.943,2.891,2.891,0,0,0-1.991-.953.415.415,0,0,0-.35.2,1.868,1.868,0,0,1-2.884-.068.343.343,0,0,0-.281-.133,2.89,2.89,0,0,0-1.971.83,2.652,2.652,0,0,0-.614,1.07,5.514,5.514,0,0,0-.2,1.562c-.021.3,0,.6,0,1.068,0,.449,0,.983,0,.983v.752A.334.334,0,0,0,79.882,145.272Zm2.3-5.929a2.566,2.566,0,0,0,3.787.009,2.131,2.131,0,0,1,1.882,2.083v3.182H80.221v-3.182A2.147,2.147,0,0,1,82.181,139.343Z" transform="translate(-79.533 -132.01)" fill="#fff"/>
      </g>
    </g>
  </g>
</svg>
