<svg xmlns="http://www.w3.org/2000/svg" width="19.668" height="13.522" viewBox="0 0 19.668 13.522"><defs><style>.a{fill:#d4d4d4;}</style></defs><path class="a" d="M19.662,161.383a.608.608,0,0,0-.048-.351A1.319,1.319,0,0,0,18.136,160H2.155a2.411,2.411,0,0,0-1.907.8.619.619,0,0,0-.094.088.612.612,0,0,0-.14.5,1.363,1.363,0,0,0-.01.152v9.834a2.412,2.412,0,0,0,2.151,2.151H18.136c1.018,0,1.537-1.133,1.537-2.151v-9.834C19.672,161.482,19.665,161.435,19.662,161.383Zm-17.507-.154H18.144l-8.306,6.62-8.272-6.593a3.431,3.431,0,0,1,.589-.027Zm15.981,11.063H2.155a1.271,1.271,0,0,1-.922-.922v-8.806l8.2,6.562a.617.617,0,0,0,.805,0l8.2-6.562v8.805C18.443,171.71,18.475,172.293,18.136,172.293Z" transform="translate(-0.004 -160)"/></svg>