<svg xmlns="http://www.w3.org/2000/svg" width="11.845" height="11.845" viewBox="0 0 11.845 11.845"><defs><style>.a{fill:#fff;}</style></defs><path class="a" d="M132.5,0h-4.073a.73.73,0,0,0,0,1.46h2.31l-3.854,3.854a.73.73,0,1,0,1.033,1.033l3.854-3.854V4.8a.73.73,0,1,0,1.46,0V.73A.731.731,0,0,0,132.5,0Z" transform="translate(-121.387)"/><path class="a" d="M8.391,61.176H1.252v-7.14h5.37l1.252-1.252H.626A.626.626,0,0,0,0,53.411V61.8a.626.626,0,0,0,.626.626H9.017a.626.626,0,0,0,.626-.626V54.555L8.391,55.807Z" transform="translate(0 -50.583)"/></svg>