<svg xmlns="http://www.w3.org/2000/svg" width="10.174" height="10.174" viewBox="0 0 10.174 10.174"><defs><style>.a{fill:#2d294e;}</style></defs><path class="a" d="M131.68,0h-3.5a.627.627,0,0,0,0,1.254h1.984l-3.31,3.31a.627.627,0,1,0,.887.887l3.31-3.31V4.125a.627.627,0,0,0,1.254,0V.627A.628.628,0,0,0,131.68,0Z" transform="translate(-122.133)"/><path class="a" d="M7.208,59.993H1.075V53.86H5.687l1.075-1.075H.538A.538.538,0,0,0,0,53.323V60.53a.538.538,0,0,0,.538.538H7.745a.538.538,0,0,0,.538-.538V54.305L7.208,55.38Z" transform="translate(0 -50.893)"/></svg>