<svg xmlns="http://www.w3.org/2000/svg" width="16.205" height="23.879" viewBox="0 0 16.205 23.879"><defs><style>.a{fill:#2d294e;}</style></defs><g transform="translate(-38.186 -24.989)"><path class="a" d="M219.813,31.642V29.628a4.639,4.639,0,1,0-9.278,0v2.014a4.639,4.639,0,1,0,9.278,0Zm-8.056,0V29.628a3.417,3.417,0,1,1,6.833,0v2.014a3.417,3.417,0,1,1-6.833,0Z" transform="translate(-168.882)"/><path class="a" d="M80.161,150.977H95.116a.611.611,0,0,0,.611-.611v-1.4s0-.851,0-2.334c0-.4.023-1,0-1.875a9.131,9.131,0,0,0-.272-2.531,4.612,4.612,0,0,0-.977-1.759,5.138,5.138,0,0,0-3.585-1.778.743.743,0,0,0-.63.367,3.291,3.291,0,0,1-5.192-.127.609.609,0,0,0-.507-.248,5.115,5.115,0,0,0-3.549,1.548,4.98,4.98,0,0,0-1.106,2,10.635,10.635,0,0,0-.358,2.914c-.038.552,0,1.124,0,1.992,0,.838,0,1.834,0,1.834v1.4A.611.611,0,0,0,80.161,150.977ZM84.3,139.919a4.514,4.514,0,0,0,6.818.016,3.926,3.926,0,0,1,3.388,3.885v5.935H80.772V143.82A3.948,3.948,0,0,1,84.3,139.919Z" transform="translate(-41.347 -102.109)"/></g></svg>