<svg xmlns="http://www.w3.org/2000/svg" width="40.289" height="40.289" viewBox="0 0 40.289 40.289"><defs><style>.a{fill:#fe0050;}.b{fill:#e10555;}.c{fill:#d9e7f3;}.d{fill:#c8d4df;}.e{fill:#2d2d55;}.f{fill:#0a0a48;}.g{fill:#ffc300;}.h{fill:#fab400;}</style></defs><path class="a" d="M20.145,40.289A20.145,20.145,0,1,1,40.289,20.145,20.167,20.167,0,0,1,20.145,40.289Zm0,0"/><path class="b" d="M256,0V40.289A20.145,20.145,0,0,0,256,0Zm0,0" transform="translate(-235.855)"/><path class="c" d="M98.456,111.912a13.456,13.456,0,1,1,13.456-13.456A13.471,13.471,0,0,1,98.456,111.912Zm0,0" transform="translate(-78.311 -78.311)"/><path class="d" d="M256,85v26.912A13.456,13.456,0,0,0,256,85Zm0,0" transform="translate(-235.855 -78.311)"/><path class="a" d="M181.374,187.748a6.374,6.374,0,1,1,6.374-6.374A6.381,6.381,0,0,1,181.374,187.748Zm0,0" transform="translate(-161.229 -161.229)"/><path class="b" d="M256,175v12.748A6.374,6.374,0,0,0,256,175Zm0,0" transform="translate(-235.855 -161.229)"/><path class="e" d="M242.18,141.732a1.18,1.18,0,0,1-.835-2.015l8.68-8.68a1.18,1.18,0,1,1,1.669,1.669l-8.68,8.68A1.176,1.176,0,0,1,242.18,141.732Zm0,0" transform="translate(-222.036 -120.407)"/><path class="f" d="M255.743,135.086l-10.349,10.349a1.18,1.18,0,0,0,1.669,0l8.68-8.68a1.18,1.18,0,0,0,0-1.669Zm0,0" transform="translate(-226.084 -124.456)"/><path class="g" d="M352.545,20.739c-.033,0-.066,0-.1,0l-4.618-.389a1.181,1.181,0,0,1-1.077-1.077l-.39-4.618a1.18,1.18,0,0,1,.342-.934l5.008-5.008a1.18,1.18,0,0,1,2.011.735l.306,3.625,3.625.306a1.18,1.18,0,0,1,.735,2.011l-5.008,5.008a1.18,1.18,0,0,1-.835.346Zm0,0" transform="translate(-319.102 -7.705)"/><path class="h" d="M366.262,68.474l-3.625-.306L355.7,75.1a1.178,1.178,0,0,0,.735.342l4.618.389c.033,0,.066,0,.1,0a1.18,1.18,0,0,0,.835-.346L367,70.485a1.18,1.18,0,0,0-.735-2.011Zm0,0" transform="translate(-327.713 -62.804)"/></svg>