<svg xmlns="http://www.w3.org/2000/svg" width="19.688" height="19.688" viewBox="0 0 19.688 19.688"><defs><style>.a{fill:#fbbd00;}.b{fill:#0f9d58;}.c{fill:#31aa52;}.d{fill:#3c79e6;}.e{fill:#cf2d48;}.f{fill:#eb4132;}</style></defs><path class="a" d="M4.614,106.205a5.2,5.2,0,0,1,.736-2.672v-3.319H2.031a9.849,9.849,0,0,0,0,11.981H5.35v-3.319A5.2,5.2,0,0,1,4.614,106.205Z" transform="translate(0 -96.361)"/><path class="b" d="M198.307,373.693,196,376l2.307,2.307a9.77,9.77,0,0,0,5.99-2.031v-3.315h-3.315A5.229,5.229,0,0,1,198.307,373.693Z" transform="translate(-188.463 -358.619)"/><path class="c" d="M56.142,325.477,52.823,328.8a10,10,0,0,0,.852.97,9.78,9.78,0,0,0,6.961,2.883v-4.614A5.232,5.232,0,0,1,56.142,325.477Z" transform="translate(-50.792 -312.961)"/><path class="d" d="M265.844,199.58a9.929,9.929,0,0,0-.161-1.783l-.087-.473H256v4.614h4.67a5.206,5.206,0,0,1-2,2.139l3.315,3.315a10,10,0,0,0,.97-.852A9.78,9.78,0,0,0,265.844,199.58Z" transform="translate(-246.156 -189.736)"/><path class="e" d="M202.005,6.146l.408.408,3.263-3.263-.408-.408A9.78,9.78,0,0,0,198.307,0L196,2.307l2.307,2.307A5.2,5.2,0,0,1,202.005,6.146Z" transform="translate(-188.463)"/><path class="f" d="M60.635,4.614V0a9.78,9.78,0,0,0-6.961,2.883,9.992,9.992,0,0,0-.852.97l3.319,3.319a5.232,5.232,0,0,1,4.494-2.558Z" transform="translate(-50.791 0)"/></svg>