<svg xmlns="http://www.w3.org/2000/svg" width="24" height="24" viewBox="0 0 24 24">
  <g id="Group_2782" data-name="Group 2782" transform="translate(-38 -235)">
    <g id="check_3_" data-name="check (3)" transform="translate(38 235)">
      <path id="Path_16642" data-name="Path 16642" d="M12,0A12,12,0,1,0,24,12,12.013,12.013,0,0,0,12,0Zm0,0" fill="#ebeafc"/>
    </g>
    <g id="hashtag_6_" data-name="hashtag (6)" transform="translate(44 210.107)">
      <g id="Group_2781" data-name="Group 2781" transform="translate(0 31.893)">
        <path id="Path_16813" data-name="Path 16813" d="M53.355,160.631H42.927a.263.263,0,0,1,0-.525H53.355a.263.263,0,0,1,0,.525Z" transform="translate(-41.615 -157.111)" fill="#3f38dd"/>
        <path id="Path_16814" data-name="Path 16814" d="M10.689,309.964H.261a.263.263,0,0,1,0-.525H10.689a.263.263,0,0,1,0,.525Z" transform="translate(0 -302.955)" fill="#3f38dd"/>
        <path id="Path_16815" data-name="Path 16815" d="M234.932,41.893a.257.257,0,0,1-.263-.25.238.238,0,0,1,.016-.086l3.677-9.5a.266.266,0,0,1,.334-.155.247.247,0,0,1,.163.318l0,.01-3.677,9.5A.262.262,0,0,1,234.932,41.893Z" transform="translate(-228.951 -31.893)" fill="#3f38dd"/>
        <path id="Path_16816" data-name="Path 16816" d="M85.6,41.893a.256.256,0,0,1-.263-.25.238.238,0,0,1,.016-.086l3.677-9.5a.266.266,0,0,1,.334-.155.247.247,0,0,1,.163.318l0,.01-3.677,9.5A.262.262,0,0,1,85.6,41.893Z" transform="translate(-83.257 -31.893)" fill="#3f38dd"/>
      </g>
      <path id="Path_16817" data-name="Path 16817" d="M53.355,160.631H42.927a.263.263,0,0,1,0-.525H53.355a.263.263,0,0,1,0,.525Z" transform="translate(-41.615 -125.217)" fill="#3f38dd"/>
      <path id="Path_16818" data-name="Path 16818" d="M10.689,309.964H.261a.263.263,0,0,1,0-.525H10.689a.263.263,0,0,1,0,.525Z" transform="translate(0 -271.061)" fill="#3f38dd"/>
      <path id="Path_16819" data-name="Path 16819" d="M234.932,41.893a.257.257,0,0,1-.263-.25.238.238,0,0,1,.016-.086l3.677-9.5a.266.266,0,0,1,.334-.155.247.247,0,0,1,.163.318l0,.01-3.677,9.5A.262.262,0,0,1,234.932,41.893Z" transform="translate(-228.951)" fill="#3f38dd"/>
      <path id="Path_16820" data-name="Path 16820" d="M85.6,41.893a.256.256,0,0,1-.263-.25.238.238,0,0,1,.016-.086l3.677-9.5a.266.266,0,0,1,.334-.155.247.247,0,0,1,.163.318l0,.01-3.677,9.5A.262.262,0,0,1,85.6,41.893Z" transform="translate(-83.257)" fill="#3f38dd"/>
    </g>
  </g>
</svg>
