<svg xmlns="http://www.w3.org/2000/svg" width="21.296" height="23.879" viewBox="0 0 21.296 23.879">
  <g id="Group_4" data-name="Group 4" transform="translate(-14 -9.85)">
    <g id="Group_3" data-name="Group 3" transform="translate(14 9.85)">
      <path id="Path_1" data-name="Path 1" d="M15.879,33.729h4.384a1.806,1.806,0,0,0,1.879-1.785v-6.89a.716.716,0,0,1,.626-.72h3.445a.716.716,0,0,1,.626.72v6.89a1.806,1.806,0,0,0,1.879,1.785h4.7A1.806,1.806,0,0,0,35.3,31.944V19.95a1.921,1.921,0,0,0-.6-1.378l-8.769-8.205a1.854,1.854,0,0,0-2.568,0L14.6,18.572A1.869,1.869,0,0,0,14,19.95V31.944A1.806,1.806,0,0,0,15.879,33.729Zm-.626-13.78a.637.637,0,0,1,.188-.47l8.769-8.205a.625.625,0,0,1,.846,0l8.769,8.205a.637.637,0,0,1,.188.47V31.944a.555.555,0,0,1-.626.532H28.719a.555.555,0,0,1-.626-.532v-6.89a1.967,1.967,0,0,0-1.879-1.973H22.769a1.947,1.947,0,0,0-1.879,1.973v6.89a.555.555,0,0,1-.626.532H15.879a.555.555,0,0,1-.626-.532Z" transform="translate(-14 -9.85)" fill="#3f38dd"/>
    </g>
  </g>
</svg>
