<svg xmlns="http://www.w3.org/2000/svg" width="26.292" height="26.292" viewBox="0 0 26.292 26.292"><defs><style>.a{fill:#3f38dd;}</style></defs><path class="a" d="M13.145,0A13.146,13.146,0,1,0,26.292,13.145,13.146,13.146,0,0,0,13.145,0Zm2.737,20.374q-1.015.4-1.619.61a4.272,4.272,0,0,1-1.4.21,2.8,2.8,0,0,1-1.911-.6,1.936,1.936,0,0,1-.68-1.521,5.526,5.526,0,0,1,.05-.733c.035-.249.089-.53.164-.845l.847-2.991c.075-.287.139-.56.19-.814a3.607,3.607,0,0,0,.076-.7,1.085,1.085,0,0,0-.236-.8,1.34,1.34,0,0,0-.9-.224,2.375,2.375,0,0,0-.673.1c-.228.07-.426.134-.589.2l.224-.921q.831-.339,1.591-.58a4.7,4.7,0,0,1,1.436-.243,2.747,2.747,0,0,1,1.883.59,1.96,1.96,0,0,1,.661,1.531q0,.2-.046.687a4.6,4.6,0,0,1-.169.9l-.842,2.983c-.069.239-.13.513-.186.819a4.331,4.331,0,0,0-.081.7,1,1,0,0,0,.266.81,1.489,1.489,0,0,0,.92.216,2.67,2.67,0,0,0,.7-.108,3.961,3.961,0,0,0,.563-.189ZM15.733,8.268a2.011,2.011,0,0,1-1.419.548,2.032,2.032,0,0,1-1.424-.548A1.748,1.748,0,0,1,12.3,6.94a1.766,1.766,0,0,1,.593-1.331,2.017,2.017,0,0,1,1.424-.553,1.994,1.994,0,0,1,1.419.553,1.793,1.793,0,0,1,0,2.659Z"/></svg>