<svg xmlns="http://www.w3.org/2000/svg" width="22.969" height="22.969" viewBox="0 0 22.969 22.969"><defs><style>.a{fill:#2d294e;}</style></defs><path class="a" d="M11.484,0A11.484,11.484,0,1,0,22.969,11.484,11.485,11.485,0,0,0,11.484,0Zm2.391,17.8q-.887.35-1.415.533a3.732,3.732,0,0,1-1.227.184,2.445,2.445,0,0,1-1.669-.524,1.691,1.691,0,0,1-.594-1.329,4.828,4.828,0,0,1,.044-.641c.03-.218.078-.463.143-.738L9.9,12.67c.065-.251.122-.489.166-.711a3.151,3.151,0,0,0,.066-.615.948.948,0,0,0-.206-.7,1.171,1.171,0,0,0-.79-.2,2.074,2.074,0,0,0-.588.088c-.2.061-.372.117-.514.171l.2-.805q.726-.3,1.39-.507a4.107,4.107,0,0,1,1.254-.212,2.4,2.4,0,0,1,1.645.515,1.712,1.712,0,0,1,.578,1.338q0,.171-.04.6a4.014,4.014,0,0,1-.148.788l-.736,2.606c-.06.209-.114.448-.162.716a3.784,3.784,0,0,0-.071.609.874.874,0,0,0,.232.708,1.3,1.3,0,0,0,.8.189,2.332,2.332,0,0,0,.609-.094,3.461,3.461,0,0,0,.492-.165Zm-.13-10.576A1.757,1.757,0,0,1,12.5,7.7a1.775,1.775,0,0,1-1.244-.478,1.527,1.527,0,0,1-.518-1.16A1.542,1.542,0,0,1,11.26,4.9,1.762,1.762,0,0,1,12.5,4.417a1.742,1.742,0,0,1,1.24.483,1.566,1.566,0,0,1,0,2.323Z"/></svg>