<svg xmlns="http://www.w3.org/2000/svg" width="94" height="108.007" viewBox="0 0 94 108.007">
  <g id="Group_2813" data-name="Group 2813" transform="translate(63 -1393)">
    <g id="instagram" transform="translate(-63 1393)">
      <g id="Group_2805" data-name="Group 2805">
        <g id="Group_2804" data-name="Group 2804">
          <path id="Path_16847" data-name="Path 16847" d="M64.625,0H29.375A29.378,29.378,0,0,0,0,29.375v35.25A29.378,29.378,0,0,0,29.375,94l.39,12.221s0,1.786,1.172,1.786a7.712,7.712,0,0,0,3.087-1.345L52.429,94h12.2A29.378,29.378,0,0,0,94,64.625V29.375A29.378,29.378,0,0,0,64.625,0ZM85.188,64.625A20.585,20.585,0,0,1,64.625,85.187h-12.2l-16.109,9.7v-9.7H29.375A20.585,20.585,0,0,1,8.813,64.625V29.375A20.585,20.585,0,0,1,29.375,8.812h35.25A20.585,20.585,0,0,1,85.188,29.375Z" fill="#3f38dd"/>
        </g>
      </g>
    </g>
    <g id="Group_2812" data-name="Group 2812" transform="translate(-39.047 1424.418)">
      <path id="Path_16855" data-name="Path 16855" d="M11.422,34.386a3.926,3.926,0,0,1-2.773-6.7L21.728,14.606a3.905,3.905,0,0,1,4.719-.633l6.659,3.808L47.994,4.039A3.924,3.924,0,0,1,53.32,9.8l-17,15.694a3.917,3.917,0,0,1-4.609.523l-6.55-3.746L14.2,33.235a3.893,3.893,0,0,1-2.773,1.151Z" transform="translate(-7.5 -2.998)" fill="#3f38dd"/>
      <path id="Path_16856" data-name="Path 16856" d="M29.5,23.925A3.925,3.925,0,0,1,25.578,20V10.847H16.423a3.923,3.923,0,0,1,0-7.847H29.5a3.925,3.925,0,0,1,3.923,3.923V20A3.925,3.925,0,0,1,29.5,23.925Z" transform="translate(13.655 -3)" fill="#3f38dd"/>
    </g>
  </g>
</svg>
