<svg xmlns="http://www.w3.org/2000/svg" width="25.164" height="22.497" viewBox="0 0 25.164 22.497">
  <g id="Group_53" data-name="Group 53" transform="translate(-12.005 -16.033)">
    <path id="Path_3" data-name="Path 3" d="M18.546,16.033a6.366,6.366,0,0,0-4.626,2,7,7,0,0,0-.01,9.614L24.1,38.334a.69.69,0,0,0,.963,0q5.1-5.338,10.193-10.68a7,7,0,0,0,0-9.614,6.362,6.362,0,0,0-9.262,0L24.589,19.5l-1.407-1.47a6.286,6.286,0,0,0-4.636-2Zm0,1.3a5.086,5.086,0,0,1,3.684,1.614l1.883,1.977a.69.69,0,0,0,.963,0l1.873-1.966a5,5,0,0,1,7.358,0,5.678,5.678,0,0,1,0,7.782q-4.858,5.084-9.717,10.172L14.872,26.733a5.68,5.68,0,0,1,0-7.782A5.064,5.064,0,0,1,18.546,17.337Z" transform="translate(0 0)" fill="#2d294e"/>
  </g>
</svg>
