<svg xmlns="http://www.w3.org/2000/svg" width="14.744" height="18.147" viewBox="0 0 14.744 18.147"><defs><style>.a{fill:#d4d4d4;}</style></defs><path class="a" d="M108.476,6.8h-.567V4.641a4.538,4.538,0,1,0-9.073,0V6.8h-.567A2.271,2.271,0,0,0,96,9.073v6.8a2.271,2.271,0,0,0,2.268,2.268h10.207a2.271,2.271,0,0,0,2.268-2.268v-6.8A2.271,2.271,0,0,0,108.476,6.8ZM99.97,4.641a3.4,3.4,0,1,1,6.8,0V6.8h-6.8Zm9.64,11.238a1.136,1.136,0,0,1-1.134,1.134H98.268a1.136,1.136,0,0,1-1.134-1.134v-6.8a1.136,1.136,0,0,1,1.134-1.134h10.207a1.136,1.136,0,0,1,1.134,1.134Zm-6.238-5.671a1.131,1.131,0,0,0-.567,2.111v1.859a.567.567,0,1,0,1.134,0V12.318a1.131,1.131,0,0,0-.567-2.111Z" transform="translate(-96)"/></svg>