<svg xmlns="http://www.w3.org/2000/svg" width="246.976" height="186.18" viewBox="0 0 246.976 186.18"><defs><style>.a,.p{fill:#e6e6e6;}.a{opacity:0.45;}.b,.c,.d{fill:#3f38dd;}.b{opacity:0.58;}.c{opacity:0.73;}.e{fill:#24285b;}.f{fill:#c9c9c9;}.g,.i,.l,.n,.o{fill:#fff;}.h{opacity:0.08;}.i{opacity:0.56;}.j{opacity:0.12;}.k{fill:#f4a28c;}.l{opacity:0.2;}.m{fill:#ffd200;}.n{opacity:0.46;}.o{opacity:0.24;}</style></defs><g transform="translate(-53.84 -45.32)"><ellipse class="a" cx="123.488" cy="16.863" rx="123.488" ry="16.863" transform="translate(53.84 197.773)"/><path class="b" d="M283.646,232.03s-9.823-2.637-12-11.768c0,0,15.195-3.133,15.691,12.558Z" transform="translate(-40.542 -32.515)"/><path class="c" d="M287.1,228.783s-6.9-10.816-.912-20.973c0,0,11.589,7.325,6.511,20.973Z" transform="translate(-42.793 -30.245)"/><path class="d" d="M290,230.451s3.573-11.467,14.519-13.681c0,0,2.083,7.422-7.04,13.681Z" transform="translate(-43.957 -31.913)"/><path class="e" d="M281.29,233.3l2.051,13.6h12.525l1.79-13.6Z" transform="translate(-42.336 -34.989)"/><rect class="f" width="92.887" height="166.59" transform="translate(126.355 45.32)"/><rect class="g" width="76.886" height="117.237" transform="translate(134.038 64.316)"/><rect class="h" width="37.072" height="32.53" transform="translate(182.162 78.355)"/><rect class="h" width="42.769" height="32.53" transform="translate(176.465 126.039)"/><circle class="i" cx="9.091" cy="9.091" r="9.091" transform="translate(163.989 187.478)"/><path class="h" d="M177.979,123.69l15.268,2.279-.472,1.017a30.43,30.43,0,0,0-2.58,10.865c-.114,1.823-1.148,4.314-4.582,7.243-5.86,5-9.628,21.087-17.409,27.37a21.161,21.161,0,0,0-7.6,15.643l-1.514,38.382H144l3.329-58.688,4-20.257,9.766-10.027,8.953-11.549,4.069-2.279Z" transform="translate(-16.782 -14.587)"/><rect class="j" width="26.044" height="3.801" transform="translate(164.941 51.831)"/><circle class="g" cx="4.24" cy="4.24" r="4.24" transform="translate(151.268 49.902)"/><path class="d" d="M152.96,146.352l14.617-18.222,3.158,2.767-12.46,20.835Z" transform="translate(-18.45 -15.414)"/><path class="k" d="M121.834,113.214l2.694,8.1-6.405,4.069-2.3-14.031Z" transform="translate(-11.537 -12.29)"/><path class="k" d="M112.995,101.044a5.038,5.038,0,0,1,8.334-1.416c2.726,2.905,6.014,7.536,2.3,10.059-5.7,3.858-10.914-3.353-10.914-3.353a9.156,9.156,0,0,1,.285-5.29Z" transform="translate(-10.909 -9.806)"/><path class="k" d="M117.719,107.745s-1.457-1.221-2.124.513,1.921,2.564,2.686,1.693S117.719,107.745,117.719,107.745Z" transform="translate(-11.474 -11.542)"/><path class="d" d="M108.891,131.208a16.367,16.367,0,0,1,10.271-8.953c8.7-2.613,24.733.244,29.617,8.391,6.69,11.142-3.1,46.553-3.1,46.553l-29.25,2.271S100.378,150.431,108.891,131.208Z" transform="translate(-9.783 -14.146)"/><path class="e" d="M148.071,189.96l-3.85,50.281h-6.08l-5.437-39.066-13.445-8.944Z" transform="translate(-12.177 -26.922)"/><path class="e" d="M117.341,192.75l-8.391,48.01h6.519l14.088-39.888Z" transform="translate(-10.258 -27.442)"/><path class="h" d="M121.725,121.51s-13.681,44.063,25.824,46.984l-1.839,8.757-29.25,2.271a76.023,76.023,0,0,1-9.872-38.919s.252-11.239,8.139-16.2a17.905,17.905,0,0,1,7-2.889Z" transform="translate(-9.816 -14.182)"/><path class="d" d="M109.853,251.61l-3.931,2.9a.871.871,0,0,0,.513,1.563h6.584a.871.871,0,0,0,.863-.871V251.61Z" transform="translate(-9.631 -38.398)"/><path class="d" d="M148.069,251.608l3.7,2.9a.871.871,0,0,1-.537,1.563h-4.688A2.507,2.507,0,0,1,144,253.553V251.6Z" transform="translate(-16.782 -38.396)"/><path class="d" d="M139.33,122.17a14.747,14.747,0,0,0,0,15.594c3.19,5.388,12.477,15.87,18.817,22.788a6.7,6.7,0,0,0,10.8-1.262L182.6,135.273l-4.623-2.962L165.48,150.623S156.91,122.52,139.33,122.17Z" transform="translate(-15.498 -14.304)"/><path class="l" d="M139.33,122.17a14.747,14.747,0,0,0,0,15.594c3.19,5.388,12.477,15.87,18.817,22.788a6.7,6.7,0,0,0,10.8-1.262L182.6,135.273l-4.623-2.962L165.48,150.623S156.91,122.52,139.33,122.17Z" transform="translate(-15.498 -14.304)"/><path class="k" d="M190.311,135.089s7.74-2.84,4.582-7.219-7.593,5.29-7.593,5.29Z" transform="translate(-24.841 -15.153)"/><rect class="m" width="7.642" height="11.142" transform="translate(165.524 104.096) rotate(24.13)"/><path class="e" d="M115.043,109.726l-4.346-4.484a4.753,4.753,0,0,1-1.318-3.524c.106-2.279.594-5.917,2.442-8.651,2.962-4.281,6.91-5.9,7.886-2.2s1.188-.692,3.573,1.27,1.9,3.125,0,4.167-5.827,2.556-6.177,5.7S119.764,107.626,115.043,109.726Z" transform="translate(-10.337 -8.094)"/><path class="k" d="M171.83,127.539s.969-6.682,7.447-6.039,4.11,2.3,1.5,2.442h0a3.036,3.036,0,0,0-2.279,2.083c-.383,1.172-1.432,2.686-4.224,3.646Z" transform="translate(-21.962 -14.172)"/><rect class="m" width="77.749" height="32.53" transform="translate(182.162 73.545)"/><rect class="g" width="25.8" height="16.53" transform="translate(190.985 80.601)"/><path class="e" d="M222.35,88.67l12.892,12.07,12.9-12.07Z" transform="translate(-31.365 -8.069)"/><rect class="g" width="23.74" height="4.883" transform="translate(226.274 82.359)"/><rect class="n" width="23.74" height="4.883" transform="translate(226.274 90.229)"/><rect class="m" width="77.749" height="32.53" transform="translate(176.465 121.563)"/><rect class="g" width="25.726" height="4.883" transform="translate(217.256 130.507)"/><rect class="n" width="25.726" height="4.883" transform="translate(217.256 138.377)"/><circle class="e" cx="12.037" cy="12.037" r="12.037" transform="translate(185.93 125.535)"/><circle class="g" cx="4.623" cy="4.623" r="4.623" transform="translate(193.638 129.921)"/><path class="o" d="M221,167.947s1-7.064,8.065-7.431c7.488-.383,8.065,7.431,8.065,7.431a12.037,12.037,0,0,1-16.131,0Z" transform="translate(-31.114 -21.44)"/><path class="p" d="M91.219,117.433,84.537,114.7V108.35H58.29V124.7H84.537v-5.5Z" transform="translate(-0.828 -11.732)"/><circle class="j" cx="1.994" cy="1.994" r="1.994" transform="translate(62.719 102.803)"/><circle class="j" cx="1.994" cy="1.994" r="1.994" transform="translate(68.547 102.803)"/><circle class="j" cx="1.994" cy="1.994" r="1.994" transform="translate(74.235 102.803)"/></g></svg>