<svg xmlns="http://www.w3.org/2000/svg" width="24" height="24" viewBox="0 0 24 24">
  <g id="Group_2780" data-name="Group 2780" transform="translate(-36 -358)">
    <g id="check_3_" data-name="check (3)" transform="translate(36 358)">
      <path id="Path_16642" data-name="Path 16642" d="M12,0A12,12,0,1,0,24,12,12.013,12.013,0,0,0,12,0Zm0,0" fill="#ebeafc"/>
    </g>
    <g id="notification_2_" data-name="notification (2)" transform="translate(-10.862 363)">
      <g id="Group_2773" data-name="Group 2773" transform="translate(53.848 0)">
        <g id="Group_2772" data-name="Group 2772" transform="translate(0)">
          <path id="Path_16804" data-name="Path 16804" d="M63.47,9.683a1.362,1.362,0,0,1-.421-.986V6.147a.247.247,0,1,0-.495,0V8.7a1.884,1.884,0,0,0,.582,1.364.678.678,0,0,1,.209.491.656.656,0,0,1-.643.666H54.986a.656.656,0,0,1-.643-.666.678.678,0,0,1,.209-.491A1.884,1.884,0,0,0,55.134,8.7V5.737A3.782,3.782,0,0,1,58.844,1.9a3.608,3.608,0,0,1,1.619.385,1.933,1.933,0,0,0-.276,1,1.831,1.831,0,1,0,3.661,0,1.866,1.866,0,0,0-1.83-1.9,1.789,1.789,0,0,0-1.23.493,4.1,4.1,0,0,0-1.173-.419.966.966,0,0,0,.144-.51.916.916,0,1,0-1.83,0,.966.966,0,0,0,.144.509,4.323,4.323,0,0,0-3.433,4.281V8.7a1.362,1.362,0,0,1-.421.986,1.2,1.2,0,0,0-.37.87,1.16,1.16,0,0,0,1.138,1.178h2.3a1.575,1.575,0,0,0,3.127,0h2.3a1.16,1.16,0,0,0,1.138-1.178A1.2,1.2,0,0,0,63.47,9.683ZM62.018,1.9a1.362,1.362,0,0,1,1.336,1.383,1.336,1.336,0,1,1-2.671,0A1.362,1.362,0,0,1,62.018,1.9ZM58.844.512a.429.429,0,0,1,.42.435.421.421,0,1,1-.841,0A.429.429,0,0,1,58.844.512Zm0,12.089a1.1,1.1,0,0,1-1.06-.871H59.9A1.1,1.1,0,0,1,58.844,12.6Z" transform="translate(-53.848 0)" fill="#3f38dd"/>
        </g>
      </g>
      <g id="Group_2775" data-name="Group 2775" transform="translate(55.823 5.476)">
        <g id="Group_2774" data-name="Group 2774">
          <path id="Path_16805" data-name="Path 16805" d="M134.1,213.791a.256.256,0,0,0-.256.256v.005a.256.256,0,0,0,.512,0v-.005A.256.256,0,0,0,134.1,213.791Z" transform="translate(-133.848 -213.791)" fill="#3f38dd"/>
        </g>
      </g>
      <g id="Group_2777" data-name="Group 2777" transform="translate(56.012 2.613)">
        <g id="Group_2776" data-name="Group 2776">
          <path id="Path_16806" data-name="Path 16806" d="M145.6,102a3.121,3.121,0,0,0-2.878,1.9.256.256,0,1,0,.472.2,2.61,2.61,0,0,1,2.406-1.593.256.256,0,1,0,0-.512Z" transform="translate(-142.704 -101.999)" fill="#3f38dd"/>
        </g>
      </g>
      <g id="Group_2779" data-name="Group 2779" transform="translate(61.456 2.429)">
        <g id="Group_2778" data-name="Group 2778">
          <path id="Path_16807" data-name="Path 16807" d="M363,94.853a.256.256,0,0,0-.279.056l-.295.295a.256.256,0,0,0,.22.434V96.1a.256.256,0,0,0,.512,0V95.089A.256.256,0,0,0,363,94.853Z" transform="translate(-362.348 -94.833)" fill="#3f38dd"/>
        </g>
      </g>
    </g>
  </g>
</svg>
