<svg xmlns="http://www.w3.org/2000/svg" width="237.632" height="246.239" viewBox="0 0 237.632 246.239">
  <g id="Group_2681" data-name="Group 2681" transform="translate(-14400.841 -1297.506)">
    <path id="path22" d="M-.025-7.641A4.033,4.033,0,0,1,.064-8.952a5.284,5.284,0,0,1,1.874-3.021,5.34,5.34,0,0,1,2.254-1.068,5.427,5.427,0,0,1,2.858.174,5.092,5.092,0,0,1,1.391.713,5.094,5.094,0,0,1,1.174,1.134,5.455,5.455,0,0,1,1.116,3.2A5.452,5.452,0,0,1,9.719-4.579,5.089,5.089,0,0,1,8.584-3.407a5.1,5.1,0,0,1-1.368.758,5.431,5.431,0,0,1-2.851.268,5.346,5.346,0,0,1-2.287-.994A5.285,5.285,0,0,1,.107-6.334,4.041,4.041,0,0,1-.025-7.641,12.554,12.554,0,0,0,.217-6.363,5.284,5.284,0,0,0,2.2-3.541a5.185,5.185,0,0,0,2.206.922A5.208,5.208,0,0,0,7.12-2.9a4.84,4.84,0,0,0,1.295-.728A4.864,4.864,0,0,0,9.487-4.744a5.194,5.194,0,0,0,.953-3.068,5.2,5.2,0,0,0-1.052-3.034,4.847,4.847,0,0,0-1.108-1.081,4.845,4.845,0,0,0-1.317-.686A5.215,5.215,0,0,0,4.24-12.8a5.178,5.178,0,0,0-2.175.994A5.292,5.292,0,0,0,.174-8.926a12.517,12.517,0,0,0-.2,1.285" transform="translate(14595.064 1424.821)" fill="#e1e1e1"/>
    <path id="path26" d="M-4.089-16.511a1.214,1.214,0,0,1-.178.054l-.548.145-2.167.553.036-.046c.028,1.266.064,2.93.108,4.945L-6.9-10.93l2.927.6.05.011.015.049A12.1,12.1,0,0,0-2.623-7.337l.03.049-.03.05L-4.169-4.679l-.017-.128L-.624-1.376l-.142-.013,2.5-1.641.06-.04.064.036a12.051,12.051,0,0,0,2.97,1.169l.073.018.018.074.712,2.9-.129-.1L10.448.945l-.13.107.61-2.925.017-.082.081-.023a12.022,12.022,0,0,0,2.923-1.271l.073-.044.073.045L16.649-1.7l-.176.022,3.438-3.555-.017.179-1.636-2.5-.048-.074.043-.077a12.029,12.029,0,0,0,1.171-2.96v0l.022-.085.085-.021,2.9-.707-.111.144q-.041-2.5-.08-4.945l.115.139-2.924-.614-.086-.018-.023-.083A11.97,11.97,0,0,0,18.06-19.78l-.044-.073.044-.073,1.555-2.553.022.172-3.551-3.443.167.016-2.5,1.633-.066.043-.069-.039a12.022,12.022,0,0,0-2.966-1.179l-.074-.018-.017-.074c-.241-1-.475-1.961-.7-2.9l.12.093-4.946.07.107-.089-.62,2.924-.013.062-.06.017A12.077,12.077,0,0,0,1.5-23.93l-.05.03-.049-.03-2.549-1.561.107-.014-3.455,3.539.008-.08,1.62,2.512.016.024-.015.025a12.485,12.485,0,0,0-.985,2.214c-.078.246-.137.435-.18.572s-.061.189-.061.189.01-.07.037-.2.079-.324.158-.581a11.662,11.662,0,0,1,.95-2.244l0,.048-1.651-2.492-.029-.043.036-.038,3.425-3.568.047-.049.06.036L1.5-24.094h-.1a12.169,12.169,0,0,1,2.979-1.3l-.074.079c.193-.931.393-1.9.606-2.926l.018-.087.089,0,4.945-.089.1,0,.023.094.712,2.9-.092-.092a12.234,12.234,0,0,1,3.032,1.2l-.135,0,2.5-1.639.089-.058.077.074,3.557,3.436.079.077-.058.095L18.3-19.78v-.146a12.3,12.3,0,0,1,1.3,2.992l-.108-.1,2.925.611.112.023,0,.115q.04,2.439.082,4.945l0,.116L22.5-11.2l-2.9.708.107-.107v0a12.262,12.262,0,0,1-1.2,3.031L18.5-7.71l1.635,2.5.063.1-.08.083L16.677-1.475l-.079.082-.1-.059L13.947-3.007h.146a12.311,12.311,0,0,1-2.993,1.3l.1-.1-.615,2.924-.022.106-.108,0-4.945.075-.1,0-.024-.1c-.245-1.011-.486-2-.7-2.9l.092.092a12.267,12.267,0,0,1-3.027-1.2l.124,0L-.641-1.2l-.077.05-.065-.064L-4.33-4.658l-.059-.058.043-.071,1.56-2.55v.1A12.211,12.211,0,0,1-4.07-10.222l.065.06-2.922-.624-.059-.013v-.059c-.022-2.015-.04-3.68-.053-4.946v-.037L-7-15.848l2.16-.5.559-.125a1.571,1.571,0,0,1,.2-.036" transform="translate(14592.61 1430.889)" fill="#e1e1e1"/>
    <path id="path30" d="M-14.606-22.62a5.934,5.934,0,0,0,6.03,5.837,5.934,5.934,0,0,0,5.837-6.03,5.934,5.934,0,0,0-6.03-5.837,5.934,5.934,0,0,0-5.837,6.03m-7.29-3.134a13.557,13.557,0,0,1,1.326-3.353l-1.829-2.8,3.847-3.974,2.857,1.737a13.538,13.538,0,0,1,3.308-1.435l.685-3.272,5.531-.089.791,3.247a13.542,13.542,0,0,1,3.354,1.327l2.8-1.83L4.748-32.35,3.011-29.493a13.551,13.551,0,0,1,1.435,3.309l3.271.685.091,5.531-3.247.792a13.558,13.558,0,0,1-1.327,3.353l1.829,2.8L1.216-9.049l-2.857-1.737A13.565,13.565,0,0,1-4.95-9.351L-5.635-6.08l-5.531.09-.791-3.247a13.54,13.54,0,0,1-3.354-1.327l-2.8,1.83-3.974-3.847,1.737-2.857a13.548,13.548,0,0,1-1.435-3.308l-3.271-.685-.091-5.531Z" transform="translate(14465.781 1426.494)" fill="#e1e1e1" fill-rule="evenodd"/>
    <path id="path34" d="M-4.216-6.531A1.713,1.713,0,0,0-2.474-4.846,1.712,1.712,0,0,0-.79-6.587,1.713,1.713,0,0,0-2.53-8.272,1.714,1.714,0,0,0-4.216-6.531m-2.105-.905A3.939,3.939,0,0,1-5.937-8.4l-.528-.808,1.111-1.148.825.5a3.923,3.923,0,0,1,.954-.415l.2-.944,1.6-.026.229.937a3.917,3.917,0,0,1,.968.383l.808-.528L1.372-9.339l-.5.825a3.916,3.916,0,0,1,.414.955l.944.2.026,1.6-.938.229a3.911,3.911,0,0,1-.383.968l.528.808L.352-2.613l-.825-.5a3.9,3.9,0,0,1-.955.415l-.2.944-1.6.026-.228-.937a3.919,3.919,0,0,1-.968-.383l-.808.528L-6.374-3.633l.5-.825a3.925,3.925,0,0,1-.414-.955l-.944-.2-.026-1.6Z" transform="translate(14577.649 1393.884)" fill="#e1e1e1" fill-rule="evenodd"/>
    <path id="path38" d="M-5.837-9.04a2.372,2.372,0,0,0,2.41,2.333A2.371,2.371,0,0,0-1.1-9.118,2.37,2.37,0,0,0-3.5-11.45,2.371,2.371,0,0,0-5.837-9.04m-2.914-1.253a5.4,5.4,0,0,1,.53-1.34l-.731-1.119,1.538-1.588,1.142.694a5.41,5.41,0,0,1,1.322-.573l.274-1.308,2.21-.036.316,1.3a5.406,5.406,0,0,1,1.341.53l1.118-.731L1.9-12.928,1.2-11.787a5.412,5.412,0,0,1,.574,1.322l1.307.274.036,2.21-1.3.316a5.441,5.441,0,0,1-.53,1.341l.731,1.118L.485-3.617-.657-4.311a5.411,5.411,0,0,1-1.322.574L-2.252-2.43l-2.211.036-.316-1.3a5.415,5.415,0,0,1-1.34-.53l-1.119.731L-8.827-5.028l.695-1.142a5.4,5.4,0,0,1-.573-1.322l-1.308-.274-.036-2.211Z" transform="translate(14415.853 1413.273)" fill="#ececec" fill-rule="evenodd"/>
    <path id="path42" d="M-13.36-20.69a5.429,5.429,0,0,0,5.516,5.339,5.428,5.428,0,0,0,5.338-5.516,5.427,5.427,0,0,0-5.516-5.338A5.428,5.428,0,0,0-13.36-20.69m-6.669-2.867a12.427,12.427,0,0,1,1.214-3.068l-1.673-2.56,3.519-3.636,2.613,1.589a12.364,12.364,0,0,1,3.027-1.313l.626-2.992,5.06-.082.724,2.97a12.4,12.4,0,0,1,3.067,1.214l2.56-1.673,3.636,3.519L2.754-26.976A12.408,12.408,0,0,1,4.067-23.95l2.992.627.083,5.058-2.97.724a12.38,12.38,0,0,1-1.214,3.067l1.673,2.56L1.112-8.277-1.5-9.866A12.434,12.434,0,0,1-4.527-8.553l-.627,2.992-5.059.083-.724-2.97A12.393,12.393,0,0,1-14-9.663l-2.561,1.674L-20.2-11.508l1.589-2.614a12.378,12.378,0,0,1-1.313-3.025l-2.992-.627L-23-22.833Z" transform="translate(14628.169 1390.937)" fill="#ececec" fill-rule="evenodd"/>
    <path id="path46" d="M-12.094-18.731A4.913,4.913,0,0,0-7.1-13.9a4.913,4.913,0,0,0,4.833-4.992,4.914,4.914,0,0,0-4.994-4.833,4.914,4.914,0,0,0-4.833,4.993m-6.037-2.6a11.221,11.221,0,0,1,1.1-2.776l-1.515-2.318,3.186-3.291L-13-28.273a11.232,11.232,0,0,1,2.739-1.189l.568-2.709,4.58-.075.655,2.689a11.2,11.2,0,0,1,2.777,1.1L.64-29.972l3.291,3.185L2.493-24.421a11.234,11.234,0,0,1,1.188,2.74l2.709.567.075,4.58-2.688.655a11.243,11.243,0,0,1-1.1,2.776l1.515,2.318L1.006-7.494-1.359-8.932A11.23,11.23,0,0,1-4.1-7.744l-.568,2.709-4.58.075L-9.9-7.649a11.2,11.2,0,0,1-2.777-1.1L-15-7.233l-3.291-3.185,1.438-2.366a11.232,11.232,0,0,1-1.189-2.739l-2.709-.567-.075-4.58Z" transform="translate(14433.256 1473.038)" fill="#f5f5f5" fill-rule="evenodd"/>
    <path id="path50" d="M-5.267-8.156a2.14,2.14,0,0,0,2.174,2.1,2.14,2.14,0,0,0,2.1-2.174,2.14,2.14,0,0,0-2.174-2.1,2.14,2.14,0,0,0-2.1,2.174M-7.9-9.286a4.873,4.873,0,0,1,.478-1.21l-.66-1.009,1.388-1.433,1.03.626a4.888,4.888,0,0,1,1.193-.517l.247-1.18,1.994-.032.285,1.171a4.882,4.882,0,0,1,1.209.478l1.009-.659,1.433,1.388-.626,1.03A4.91,4.91,0,0,1,1.6-9.441l1.179.247L2.815-7.2l-1.171.286a4.848,4.848,0,0,1-.478,1.209L1.825-4.7.438-3.263-.592-3.89a4.89,4.89,0,0,1-1.193.518l-.247,1.179-1.994.032-.285-1.171a4.882,4.882,0,0,1-1.209-.478L-6.53-3.15-7.964-4.537l.626-1.03A4.852,4.852,0,0,1-7.854-6.76l-1.18-.247L-9.067-9Z" transform="translate(14519.106 1366.25)" fill="#f5f5f5" fill-rule="evenodd"/>
    <path id="path54" d="M-4.176-1.715a13.319,13.319,0,0,1,8.262-1A6.863,6.863,0,0,1,8.167-.9C9.187.23,9.38,2.211,8.209,3.179a3.914,3.914,0,0,1-2.573.653c-2.184-.026-4.607-.41-6.353.9-1,.749-1.657,2-2.848,2.364a2.813,2.813,0,0,1-3.1-1.377,4.807,4.807,0,0,1-.35-3.549A5.419,5.419,0,0,1-4.176-1.715" transform="translate(14618.81 1498.182)" fill="#ececec"/>
    <path id="path58" d="M-2.012-31.592c1.537,2.2,4.523,1.468,5.908.128s1.97-3.281,2.5-5.132c1.217-4.23,2.445-8.668,1.54-12.976A7.22,7.22,0,0,0,6.282-53.1a3.767,3.767,0,0,0-3.57-1.188c-1.505.4-2.441,1.873-3.118,3.276A30.944,30.944,0,0,0-3.463-37.738a10.737,10.737,0,0,0,1.451,6.146" transform="translate(14610.888 1516.946)" fill="#ececec"/>
    <path id="path62" d="M-24.528-26.168a7.986,7.986,0,0,0,1.243-7.348,14.169,14.169,0,0,0-4.353-6.314,23.451,23.451,0,0,0-7.795-4.6,8.309,8.309,0,0,0-3.5-.6,3.68,3.68,0,0,0-2.942,1.779c-.82,1.565-.034,3.462.817,5.01a59.382,59.382,0,0,0,5.119,7.8c1.534,1.978,3.292,3.93,5.631,4.824s4.768.789,6.007-.833" transform="translate(14629.184 1514.67)" fill="#ececec"/>
    <path id="path66" d="M-.038-27.972a4.76,4.76,0,0,0,.139-1c.071-.726.159-1.637.265-2.721a39.369,39.369,0,0,1,.612-3.993,30.836,30.836,0,0,1,1.451-4.711,17.363,17.363,0,0,1,2.406-4.264,8.988,8.988,0,0,1,3.042-2.529,8.529,8.529,0,0,1,2.562-.8,4.813,4.813,0,0,0,.992-.144,4.661,4.661,0,0,0-1.01-.016,7.754,7.754,0,0,0-2.671.7A8.966,8.966,0,0,0,4.541-44.9a16.955,16.955,0,0,0-2.494,4.349A28.773,28.773,0,0,0,.606-35.76a33.72,33.72,0,0,0-.531,4.043c-.086,1.156-.119,2.092-.135,2.738a4.736,4.736,0,0,0,.021,1.007" transform="translate(14608.81 1546.432)" fill="#e1e1e1"/>
    <path id="path70" d="M-.3-62.353a1.991,1.991,0,0,0,.027-.463c0-.348,0-.786,0-1.323,0-1.148,0-2.811.059-4.862.1-4.1.455-8.521,1.138-14.749.646-5.856,1.514-12.671,2.429-17.1.2-1.007.394-1.914.58-2.708s.329-1.483.476-2.037c.126-.522.228-.948.31-1.286a1.953,1.953,0,0,0,.08-.457,1.974,1.974,0,0,0-.161.434l-.383,1.268c-.171.55-.346,1.232-.545,2.025s-.426,1.695-.641,2.7A150.156,150.156,0,0,0,.511-85.044C-.172-78.8-.481-73.122-.508-69.007c-.024,2.057.02,3.723.072,4.872.032.537.059.975.08,1.323a1.951,1.951,0,0,0,.056.459" transform="translate(14609.259 1578.719)" fill="#e1e1e1"/>
    <path id="path74" d="M-20.319-42.52a8.647,8.647,0,0,0-.01-1.383c-.05-.887-.172-2.172-.422-3.745A49.446,49.446,0,0,0-21.97-53.1a44.7,44.7,0,0,0-2.282-6.457,34.391,34.391,0,0,0-6.7-10.434,16.938,16.938,0,0,0-1.577-1.465c-.241-.2-.455-.409-.673-.571l-.611-.421a8.935,8.935,0,0,0-1.164-.745,41.437,41.437,0,0,1,3.814,3.4,36.255,36.255,0,0,1,6.534,10.4,51.074,51.074,0,0,1,2.3,6.4c.6,2.005,1,3.849,1.3,5.4s.451,2.829.55,3.708a8.979,8.979,0,0,0,.169,1.37" transform="translate(14629.306 1547.927)" fill="#e1e1e1"/>
    <path id="path78" d="M0,0,1.1,15.045H20.426L21.524,0Z" transform="translate(14598.394 1524.74)" fill="#e1e1e1"/>
    <path id="path80" d="M516.744-86.2h25.7v-5.93h-25.7Z" transform="translate(14079.783 1610.944)" fill="#e1e1e1"/>
    <path id="path84" d="M0,0V1.643H25.273V0Z" transform="translate(14596.526 1539.209)" fill="#ececec"/>
    <path id="path88" d="M-1.64-4.01-2.824-6.9H20.321L18.94-4.01Z" transform="translate(14600.558 1547.755)" fill="#e1e1e1"/>
    <path id="path92" d="M-28.883-2.929a.63.63,0,0,1-.091.138l-.289.383L-30.388-.967l-.05.064-.049-.067L-33.253-4.8h.159L-35.817-.939l-.086.12L-36-.933l-3.23-3.843.186,0-.177.224L-42.108-.934l-.1.121-.089-.125c-.98-1.388-1.9-2.684-2.725-3.856l.159.008L-48.214-.963l-.06.068-.045-.077L-49.37-2.737l-.27-.47a.712.712,0,0,1-.082-.168.748.748,0,0,1,.112.149l.3.452,1.1,1.733-.106-.009,3.3-3.87.083-.1.075.105c.836,1.166,1.76,2.457,2.749,3.837l-.185,0L-39.407-4.7l.177-.224.092-.115.094.113,3.222,3.851L-36-1.072l2.751-3.837.08-.112.079.112,2.708,3.867-.1,0,1.171-1.4L-29-2.812c.072-.081.112-.121.116-.117" transform="translate(14648.442 1532.586)" fill="#f5f5f5"/>
    <path id="path96" d="M-29.982-.167c0,.066-4.843.12-10.815.12S-51.615-.1-51.615-.167-46.772-.288-40.8-.288s10.815.054,10.815.121" transform="translate(14650.169 1524.807)" fill="#f5f5f5"/>
    <path id="path100" d="M-32.584-.167c0,.066-5.263.12-11.754.12S-56.093-.1-56.093-.167s5.262-.121,11.755-.121,11.754.054,11.754.121" transform="translate(14653.747 1541.182)" fill="#f5f5f5"/>
    <path id="path104" d="M0-.036A6.578,6.578,0,0,1,1-.061c.323,0,.718.005,1.175.038S3.156.025,3.73.1A35.569,35.569,0,0,1,7.735.732a39.749,39.749,0,0,1,4.771,1.384,39.745,39.745,0,0,1,4.54,2.019,35.449,35.449,0,0,1,3.471,2.1c.484.314.9.638,1.264.91s.677.519.923.729a6.61,6.61,0,0,1,.749.664,6.491,6.491,0,0,1-.819-.575c-.255-.2-.571-.431-.949-.686S20.891,6.7,20.4,6.4a39.8,39.8,0,0,0-3.481-2.03,42.7,42.7,0,0,0-4.516-1.984A42.78,42.78,0,0,0,7.676.994,39.834,39.834,0,0,0,3.707.3C3.138.216,2.619.185,2.165.14S1.319.068,1,.053A6.64,6.64,0,0,1,0-.036" transform="translate(14417.628 1372.586)" fill="#ececec"/>
    <path id="path108" d="M0-15.976a2.024,2.024,0,0,1,.3-.253l.9-.68c.388-.3.87-.65,1.451-1.03s1.223-.843,1.978-1.284c.744-.458,1.563-.954,2.472-1.434.893-.511,1.885-.982,2.923-1.493a60.987,60.987,0,0,1,7-2.748,60.959,60.959,0,0,1,7.3-1.785c1.142-.18,2.225-.367,3.249-.463,1.02-.132,1.975-.2,2.848-.252.871-.075,1.662-.071,2.356-.091s1.291-.013,1.779.006l1.124.039a2.014,2.014,0,0,1,.391.034,1.948,1.948,0,0,1-.393.025l-1.123.015c-.487,0-1.083,0-1.774.044s-1.48.045-2.346.134c-.868.067-1.818.145-2.833.286-1.019.107-2.1.3-3.231.488a64.094,64.094,0,0,0-7.263,1.8,63.984,63.984,0,0,0-6.971,2.714c-1.035.5-2.027.962-2.922,1.462-.91.469-1.732.952-2.48,1.4-.759.427-1.409.873-1.995,1.242s-1.078.7-1.475.987l-.927.635A1.929,1.929,0,0,1,0-15.976" transform="translate(14407.272 1450.782)" fill="#ececec"/>
    <path id="path112" d="M0-36.661a1.186,1.186,0,0,1,.039-.3c.045-.228.1-.511.168-.856.073-.372.171-.825.306-1.346s.269-1.12.465-1.769c.36-1.307.863-2.842,1.49-4.521C3.107-47.128,3.882-48.943,4.8-50.8s1.922-3.556,2.879-5.072,1.9-2.829,2.73-3.9c.4-.545.8-1.013,1.138-1.431s.641-.769.895-1.051l.585-.647a1.194,1.194,0,0,1,.218-.212,1.219,1.219,0,0,1-.174.251l-.542.682c-.24.292-.531.651-.855,1.08s-.71.9-1.1,1.453c-.807,1.084-1.715,2.412-2.668,3.92s-1.917,3.22-2.846,5.06-1.7,3.646-2.349,5.307c-.638,1.666-1.158,3.189-1.543,4.483-.208.642-.358,1.235-.505,1.751S.4-38.16.314-37.793l-.222.842a1.205,1.205,0,0,1-.1.29" transform="translate(14447.438 1501.504)" fill="#ececec"/>
    <path id="path116" d="M-20.444,0a2.158,2.158,0,0,1-.218.34l-.668.94c-.3.4-.654.9-1.047,1.494s-.867,1.25-1.336,2.013-1.009,1.58-1.533,2.493c-.549.9-1.077,1.89-1.646,2.927-1.1,2.094-2.225,4.44-3.261,6.966-1.021,2.533-1.854,5-2.528,7.266-.316,1.14-.631,2.22-.865,3.246-.262,1.019-.462,1.979-.643,2.855-.2.873-.319,1.674-.448,2.374s-.224,1.3-.294,1.8l-.178,1.14a2.1,2.1,0,0,1-.082.4,2.078,2.078,0,0,1,.023-.4c.031-.291.073-.673.124-1.148.053-.5.128-1.108.245-1.811s.223-1.509.407-2.387c.168-.882.357-1.847.61-2.872.225-1.032.531-2.117.842-3.264a77.093,77.093,0,0,1,2.516-7.3c1.041-2.535,2.178-4.888,3.294-6.982.578-1.037,1.115-2.029,1.675-2.924.535-.91,1.072-1.733,1.567-2.482s.966-1.41,1.375-1.994.778-1.074,1.089-1.469L-20.708.3a2.064,2.064,0,0,1,.265-.3" transform="translate(14543.799 1311.458)" fill="#ececec"/>
    <path id="path120" d="M-36.216-.009a1.513,1.513,0,0,1-.336.064l-.967.127-.7.084c-.254.039-.528.1-.823.153-.588.119-1.267.214-1.993.426l-1.148.3c-.4.106-.8.259-1.223.394-.852.254-1.722.634-2.648,1.008A35.25,35.25,0,0,0-51.7,5.719a35.224,35.224,0,0,0-4.9,4.243c-.666.744-1.318,1.434-1.846,2.149-.27.352-.55.678-.785,1.017l-.669.978c-.445.612-.764,1.218-1.076,1.731-.151.26-.3.5-.422.723l-.317.629-.447.867a1.516,1.516,0,0,1-.175.294,1.527,1.527,0,0,1,.121-.319l.4-.892.3-.643c.116-.231.259-.473.4-.738.3-.524.609-1.141,1.047-1.764l.658-1c.232-.344.51-.677.777-1.035.525-.727,1.175-1.429,1.841-2.184a34.189,34.189,0,0,1,4.93-4.3A34.238,34.238,0,0,1-46.159,2.3c.936-.37,1.817-.744,2.679-.991.428-.13.834-.279,1.237-.381l1.161-.282c.734-.2,1.42-.282,2.015-.387.3-.046.574-.1.832-.129l.7-.06L-36.557,0a1.487,1.487,0,0,1,.34-.006" transform="translate(14609.884 1369.523)" fill="#ececec"/>
    <path id="path124" d="M-79.441-8.477a.585.585,0,0,1-.147-.04l-.42-.143-1.6-.577-1.156-.423c-.425-.146-.895-.287-1.394-.449-1-.312-2.133-.71-3.416-1.034l-2-.547c-.7-.187-1.434-.333-2.19-.511-1.51-.374-3.15-.647-4.868-.963a92.778,92.778,0,0,0-11.309-1.11,92.834,92.834,0,0,0-11.358.415c-1.735.21-3.388.382-4.918.663-.766.132-1.511.232-2.218.376l-2.032.423c-1.3.245-2.452.574-3.473.823-.509.131-.986.243-1.419.363l-1.18.351-1.637.477-.428.117a.583.583,0,0,1-.149.03.6.6,0,0,1,.14-.059l.419-.145,1.622-.53,1.175-.377c.432-.129.908-.248,1.415-.386,1.019-.265,2.169-.609,3.47-.867l2.033-.442c.708-.15,1.454-.257,2.221-.394,1.533-.292,3.19-.473,4.93-.691a90.075,90.075,0,0,1,11.4-.439,90.071,90.071,0,0,1,11.344,1.136c1.723.324,3.365.606,4.877.992.758.184,1.5.336,2.193.529l2,.566c1.283.338,2.41.751,3.411,1.077.5.17.965.318,1.389.473l1.149.448,1.586.629.41.17a.581.581,0,0,1,.136.067" transform="translate(14694.198 1411.246)" fill="#ececec"/>
    <path id="path136" d="M-235.66-33.548l-1.066-1.736a46.616,46.616,0,0,0-42.39-22.382,45.394,45.394,0,0,0-6.562.89A48.6,48.6,0,0,0-320.444-26.94c-3.305,8.765-4.229,18.857-10.5,25.814-8.164,9.055-22.025,9.34-34.21,8.964s-26.055-.055-34.18,9.036c-5.088,5.693-6.705,13.789-6.3,21.413,1.086,20.186,15.331,38.235,33.446,47.207s39.444,9.775,59.271,5.828c27.774-5.529,54.187-20.712,70.063-44.162s19.894-55.4,7.191-80.709" transform="translate(14855.106 1445.722)" fill="#ececec"/>
    <path id="path140" d="M-93.34-46.671A33.673,33.673,0,0,1-127.013-13a33.673,33.673,0,0,1-33.673-33.673,33.673,33.673,0,0,1,33.673-33.673A33.673,33.673,0,0,1-93.34-46.671" transform="translate(14590.335 1410.416)" fill="#ececec"/>
    <path id="path152" d="M-23.119-13.194v12.04C-26.739,1.527-39.8,11.482-39.8,11.482h16.681v9.474c0,3.353,3.576,6.081,8.016,6.113l92.474.66c4.5.032,8.168-2.714,8.168-6.113V-13.194c0-3.376-3.623-6.113-8.092-6.113H-15.027c-4.469,0-8.092,2.737-8.092,6.113" transform="translate(14551.02 1337.557)" fill="#fafafa"/>
    <path id="path156" d="M-23.5-13.478s-.005-.231.035-.683a5.039,5.039,0,0,1,.711-1.927,6.089,6.089,0,0,1,1.033-1.258,8.379,8.379,0,0,1,1.738-1.214,9.776,9.776,0,0,1,2.515-.861,14.69,14.69,0,0,1,3.131-.212l37.574-.044,25.947-.017L63.635-19.7l7.559,0H77c.329.011.664.017,1,.042.328.045.664.058.986.133a7.893,7.893,0,0,1,5.831,3.906,5.166,5.166,0,0,1,.472,1.509,15.257,15.257,0,0,1,.044,1.544q0,1.535,0,3.088,0,6.209.005,12.669t0,13.126v3.345q0,.84,0,1.683a5.067,5.067,0,0,1-.338,1.7,6.327,6.327,0,0,1-2.434,2.887,8.258,8.258,0,0,1-1.913.964,9.881,9.881,0,0,1-2.2.529,15.069,15.069,0,0,1-2.186.088l-2.154-.016-4.289-.031-8.5-.061L44.7,27.278l-31.518-.232-28.667-.216a9.613,9.613,0,0,1-6-2.032,5.491,5.491,0,0,1-2.156-4.511q.006-4.751.011-9.132l.134.1-16.681-.014h-.278l.2-.148L-23.557-1.5l-.022.04c.016-3.9.028-6.9.036-8.937.008-1.011.015-1.78.02-2.3s.02-.78.02-.78.013.263.02.78.011,1.291.02,2.3c.008,2.034.02,5.037.036,8.937v.024l-.022.017L-40.1,11.216l-.082-.148,16.681-.014h.134v.1q.005,4.376.011,9.132a5.3,5.3,0,0,0,2.088,4.359A9.265,9.265,0,0,0-15.487,26.6l28.667.193,31.519.217,16.628.117,8.5.06,4.289.03,2.154.015a14.6,14.6,0,0,0,2.121-.084c2.936-.354,5.451-2.06,6.257-4.185a4.861,4.861,0,0,0,.323-1.626q0-.841,0-1.68,0-1.678,0-3.345,0-6.665,0-13.126t0-12.669q0-1.552,0-3.088c0-.513.006-1.024-.04-1.517a4.984,4.984,0,0,0-.452-1.447A7.563,7.563,0,0,0,78.9-19.285a21.717,21.717,0,0,0-3.851-.17l-3.858,0-7.559,0L49.18-19.466l-25.947-.017-37.574-.044a14.582,14.582,0,0,0-3.1.2,9.7,9.7,0,0,0-2.486.838A8.359,8.359,0,0,0-21.655-17.3a6.154,6.154,0,0,0-1.038,1.238,5.124,5.124,0,0,0-.811,2.587" transform="translate(14551.405 1338.018)" fill="#1a2e35"/>
    <g id="Group_2680" data-name="Group 2680" transform="translate(14549.784 1332.081)">
      <path id="path192" d="M-17.643-10.608a4.516,4.516,0,0,0-4.631-4.737,4.515,4.515,0,0,0-4.63,4.737,4.515,4.515,0,0,0,4.63,4.737,4.515,4.515,0,0,0,4.631-4.737m-12.729,0c0-4.4,3.426-7.654,8.1-7.654,4.652,0,8.1,3.235,8.1,7.654s-3.446,7.655-8.1,7.655c-4.673,0-8.1-3.256-8.1-7.655" transform="translate(30.372 18.263)"/>
      <path id="path196" d="M-12.69-8.118a2.871,2.871,0,0,0-2.9-3.151A2.886,2.886,0,0,0-18.5-8.118a2.886,2.886,0,0,0,2.918,3.151,2.871,2.871,0,0,0,2.9-3.151m-9.156,0c0-3.425,2.643-5.857,6.259-5.857s6.238,2.432,6.238,5.857-2.622,5.857-6.238,5.857-6.259-2.431-6.259-5.857" transform="translate(39.54 17.485)"/>
      <path id="path200" d="M-12.543-8.118a2.871,2.871,0,0,0-2.9-3.151,2.87,2.87,0,0,0-2.9,3.151,2.87,2.87,0,0,0,2.9,3.151,2.871,2.871,0,0,0,2.9-3.151m3.341,0A5.525,5.525,0,0,1-14.87-2.261a4.413,4.413,0,0,1-3.425-1.375V1.672h-3.3V-13.805h3.15v1.31a4.423,4.423,0,0,1,3.574-1.48A5.525,5.525,0,0,1-9.2-8.118" transform="translate(53.981 17.485)"/>
      <path id="path204" d="M0-14.536,1.1-16.9a7.782,7.782,0,0,0,3.954,1.1c1.523,0,2.093-.4,2.093-1.036,0-1.861-6.872.042-6.872-4.5,0-2.156,1.945-3.679,5.265-3.679a9.356,9.356,0,0,1,4.377.994l-1.1,2.347a6.529,6.529,0,0,0-3.277-.845c-1.48,0-2.115.465-2.115,1.057,0,1.945,6.873.063,6.873,4.546,0,2.115-1.967,3.616-5.372,3.616A9.773,9.773,0,0,1,0-14.536" transform="translate(45.874 28.534)"/>
      <path id="path208" d="M-.088,0H3.844L3.189,9.663H.567ZM-.152,13.047a1.9,1.9,0,0,1,2.03-1.882,1.9,1.9,0,0,1,2.03,1.882,1.944,1.944,0,0,1-2.03,1.924,1.944,1.944,0,0,1-2.03-1.924" transform="translate(57.865 0.254)"/>
    </g>
    <path id="path220" d="M-18.011-20.544l-.524.521L-31.007-32.583l.525-.521a7.8,7.8,0,0,1,11.024.039l1.485,1.5a7.8,7.8,0,0,1-.039,11.024" transform="translate(14504.228 1341.386)" fill="#375a64"/>
    <path id="path224" d="M-.054-3.879,12.4,8.661l.515-.511a7.731,7.731,0,0,0,2.3-5.494,7.727,7.727,0,0,0-2.259-5.51l-1.485-1.5a7.732,7.732,0,0,0-5.494-2.3H5.942A7.729,7.729,0,0,0,.46-4.39ZM12.4,8.7l-.01-.01L-.093-3.879l.009-.01.525-.52a7.758,7.758,0,0,1,5.5-2.268h.028a7.757,7.757,0,0,1,5.514,2.307l1.485,1.5a7.759,7.759,0,0,1,2.268,5.53A7.758,7.758,0,0,1,12.931,8.17Z" transform="translate(14473.294 1312.682)" fill="#1a2e35"/>
    <path id="path228" d="M-3.477-.695l.543-.5,12,13.007-.543.5A7.8,7.8,0,0,1-2.489,11.87l-1.429-1.55A7.8,7.8,0,0,1-3.477-.695" transform="translate(14438.972 1346.468)" fill="#375a64"/>
    <path id="path232" d="M-3.51-.737a7.781,7.781,0,0,0-.441,11l1.43,1.549a7.728,7.728,0,0,0,5.406,2.5c.107,0,.213.006.32.006a7.724,7.724,0,0,0,5.27-2.063l.533-.492L-2.977-1.228ZM3.205,14.34c-.107,0-.213,0-.321-.006a7.758,7.758,0,0,1-5.426-2.507l-1.429-1.549A7.81,7.81,0,0,1-3.529-.757l.554-.511.009.01L9.047,11.759l-.01.01-.543.5a7.755,7.755,0,0,1-5.289,2.07" transform="translate(14439.015 1346.52)" fill="#1a2e35"/>
    <path id="path236" d="M-13.688-10.059l-.878,1.089-9-7.257.878-1.089Z" transform="translate(14451.352 1346.969)" fill="#375a64"/>
    <path id="path240" d="M-6.429-.875A2.849,2.849,0,0,1-6,3.131a2.849,2.849,0,0,1-4.007.429,2.849,2.849,0,0,1-.429-4.007A2.849,2.849,0,0,1-6.429-.875" transform="translate(14435.678 1328.236)" fill="#1a2e35"/>
    <path id="path244" d="M-80.986-44.841l-26.242,26.057a9.221,9.221,0,0,1-13.041-.046L-136.74-35.419a9.221,9.221,0,0,1,.046-13.041l26.242-26.057a9.221,9.221,0,0,1,13.041.046l16.472,16.589a9.221,9.221,0,0,1-.046,13.041" transform="translate(14573.772 1385.212)" fill="#ff4f5b"/>
    <path id="path248" d="M-7.449-10.849l-1.234-4.715-3.213.533-.928-3.4,1.05-.242.737,2.478,3.2-.435L-6.491-11.8Z" transform="translate(14471.5 1320.819)" fill="#375a64"/>
    <path id="path252" d="M-51.316-19.943-74,2.581a7.8,7.8,0,0,1-11.034-.039l-1.043-1.05a7.8,7.8,0,0,1,.039-11.034l22.682-22.523a7.8,7.8,0,0,1,11.035.039l1.042,1.05a7.8,7.8,0,0,1-.039,11.034" transform="translate(14529.297 1348.961)" fill="#1a2e35"/>
    <path id="path256" d="M-55.6-25.28s.068-.089.21-.253a8.515,8.515,0,0,0,.615-.739,9.526,9.526,0,0,0,1.639-3.281,10.635,10.635,0,0,0,.369-2.629,10.2,10.2,0,0,0-.5-3.108,9.673,9.673,0,0,0-1.744-3.158l-.658-.723-.716-.718A14.731,14.731,0,0,0-57.931-41.3a9.893,9.893,0,0,0-4.036-1.823,9.959,9.959,0,0,0-4.782.276,10,10,0,0,0-2.3,1.073,11.883,11.883,0,0,0-2.018,1.688l-3.942,3.923L-92.576-18.705a9.723,9.723,0,0,0-2.777,5.647,10.09,10.09,0,0,0,.1,3.122,9.713,9.713,0,0,0,1.076,2.879,10.246,10.246,0,0,0,.845,1.266c.332.382.657.761,1.024,1.118a17.1,17.1,0,0,0,2.2,2.023A9.611,9.611,0,0,0-84.732-.819a9.633,9.633,0,0,0,5.241-1.346A10.126,10.126,0,0,0-78.4-2.91c.334-.286.66-.568.972-.876L-75.591-5.6l6.695-6.623,9.708-9.574,2.649-2.593.694-.668c.158-.15.244-.221.244-.221s-.072.085-.222.242l-.674.69-2.611,2.631-9.642,9.64L-75.421-5.43-77.25-3.609c-.31.307-.65.6-.99.9a10.3,10.3,0,0,1-1.121.767A9.881,9.881,0,0,1-84.74-.551a9.877,9.877,0,0,1-5.527-1.875,17.268,17.268,0,0,1-2.241-2.05c-.363-.351-.706-.748-1.046-1.139a10.652,10.652,0,0,1-.872-1.3,10,10,0,0,1-1.109-2.964A10.359,10.359,0,0,1-95.64-13.1a10.006,10.006,0,0,1,2.859-5.817L-75.2-36.352l3.951-3.914a12.117,12.117,0,0,1,2.064-1.716,10.228,10.228,0,0,1,2.365-1.093,10.179,10.179,0,0,1,4.9-.266,10.084,10.084,0,0,1,4.117,1.88,14.931,14.931,0,0,1,1.558,1.434l.712.721.665.739a9.822,9.822,0,0,1,1.756,3.226,10.3,10.3,0,0,1,.485,3.159,10.652,10.652,0,0,1-.4,2.659,9.363,9.363,0,0,1-1.7,3.286,7.237,7.237,0,0,1-.639.723c-.15.158-.232.233-.232.233" transform="translate(14534.831 1356.36)" fill="#1a2e35"/>
    <path id="path260" d="M-.323-13.942A43.647,43.647,0,0,1-.54-18.97,43.533,43.533,0,0,1-.465-24a43.72,43.72,0,0,1,.216,5.028,43.471,43.471,0,0,1-.074,5.032" transform="translate(14450.552 1362.611)" fill="#fff"/>
    <path id="path264" d="M-13.944-.059a43.684,43.684,0,0,1-5.024.373A43.688,43.688,0,0,1-24.005.4,43.669,43.669,0,0,1-18.981.022a43.689,43.689,0,0,1,5.037-.082" transform="translate(14469.04 1343.301)" fill="#fff"/>
    <path id="path268" d="M-.323-13.942A43.647,43.647,0,0,1-.54-18.97,43.533,43.533,0,0,1-.465-24a43.568,43.568,0,0,1,.216,5.028,43.471,43.471,0,0,1-.074,5.032" transform="translate(14470.468 1342.312)" fill="#fff"/>
    <path id="path272" d="M-13.945-.059a43.714,43.714,0,0,1-5.024.373A43.7,43.7,0,0,1-24.007.4,43.687,43.687,0,0,1-18.982.022a43.69,43.69,0,0,1,5.037-.082" transform="translate(14488.958 1323.003)" fill="#fff"/>
    <path id="path276" d="M-6.752-1.167a2.85,2.85,0,0,1-.014,4.03,2.849,2.849,0,0,1-4.03-.014,2.849,2.849,0,0,1,.015-4.03,2.849,2.849,0,0,1,4.03.014" transform="translate(14467.32 1299.515)" fill="#1a2e35"/>
    <path id="path280" d="M-15.865-15.827a2.713,2.713,0,0,1-.492-.406c-.3-.275-.736-.68-1.266-1.184-1.06-1.009-2.509-2.417-4.093-3.989s-3.006-3.01-4.02-4.067a12.478,12.478,0,0,1-1.573-1.774,4.691,4.691,0,0,1,.471.428l1.248,1.2,4.079,4c1.584,1.571,3.011,3,4.033,4.05l1.2,1.25a2.717,2.717,0,0,1,.412.486" transform="translate(14483.276 1381.396)" fill="#1a2e35"/>
    <path id="path284" d="M-15.865-15.827a2.694,2.694,0,0,1-.492-.406c-.3-.275-.736-.679-1.266-1.184-1.06-1.009-2.509-2.418-4.093-3.99s-3.006-3.01-4.02-4.066a12.51,12.51,0,0,1-1.573-1.774,4.958,4.958,0,0,1,.471.428l1.248,1.2,4.079,4c1.584,1.571,3.01,3,4.033,4.05l1.2,1.25a2.717,2.717,0,0,1,.412.486" transform="translate(14507.482 1357.017)" fill="#1a2e35"/>
    <path id="path288" d="M-31.492-3.11-51.935,17.664l-2.28-2.243L-33.772-5.353Z" transform="translate(14513.822 1338.607)" fill="#1a2e35"/>
    <path id="path292" d="M-1.694-.881A.611.611,0,0,1-2.33-.3.612.612,0,0,1-2.917-.93a.612.612,0,0,1,.636-.586.611.611,0,0,1,.586.635" transform="translate(14458.538 1358.708)" fill="#1a2e35"/>
    <path id="path296" d="M-1.694-.881A.611.611,0,0,1-2.33-.3.612.612,0,0,1-2.917-.93a.612.612,0,0,1,.636-.587.611.611,0,0,1,.586.635" transform="translate(14463.2 1363.63)" fill="#1a2e35"/>
    <path id="path300" d="M-1.695-.881A.611.611,0,0,1-2.33-.3.611.611,0,0,1-2.917-.93a.612.612,0,0,1,.636-.586.611.611,0,0,1,.586.635" transform="translate(14485.935 1330.814)" fill="#1a2e35"/>
    <path id="path304" d="M-1.695-.881A.611.611,0,0,1-2.33-.3.611.611,0,0,1-2.917-.93a.612.612,0,0,1,.636-.587.611.611,0,0,1,.586.635" transform="translate(14490.595 1335.737)" fill="#1a2e35"/>
    <path id="path308" d="M-6.68-13.795A16.763,16.763,0,0,0-7.972-14.94c-.421-.329-.949-.691-1.492-1.166a5.847,5.847,0,0,1-1.422-1.869,6.289,6.289,0,0,1-.439-4.178,5.224,5.224,0,0,1,.455-1.2c.156-.262.25-.4.267-.389a12.18,12.18,0,0,0-.521,1.638,6.469,6.469,0,0,0,.5,4.007,8.9,8.9,0,0,0,2.782,3A4,4,0,0,1-6.68-13.795" transform="translate(14445.562 1372.263)" fill="#fff"/>
    <path id="path312" d="M-36.65,0c.056.058-5.818,5.856-13.12,12.95s-13.267,12.8-13.323,12.742,5.817-5.855,13.121-12.951S-36.706-.058-36.65,0" transform="translate(14499.823 1313.517)" fill="#fff"/>
    <path id="path316" d="M-2.338-5.385c-.008.032-.292,0-.669-.25a2.334,2.334,0,0,1-.97-1.431,2.336,2.336,0,0,1,.3-1.7c.243-.381.489-.526.51-.5s-.153.226-.329.6a2.467,2.467,0,0,0-.2,1.542A2.469,2.469,0,0,0-2.883-5.8c.313.269.562.37.545.414" transform="translate(14429.188 1336.974)" fill="#fff"/>
    <path id="path320" d="M-2.339-5.729c-.007.031-.315-.006-.713-.288a2.373,2.373,0,0,1-.957-1.6A2.376,2.376,0,0,1-3.488-9.4c.313-.374.6-.488.617-.46s-.207.21-.452.582a2.456,2.456,0,0,0-.4,1.626,2.456,2.456,0,0,0,.8,1.472c.331.3.6.4.585.449" transform="translate(14460.222 1308.16)" fill="#fff"/>
    <path id="path324" d="M-6-.131A12.738,12.738,0,0,0-8.3.39a12.648,12.648,0,0,0-2.029,1.194A3.69,3.69,0,0,1-8.4.12,3.7,3.7,0,0,1-6-.131" transform="translate(14485.04 1307.044)" fill="#fff"/>
    <path id="path328" d="M-11.272-11.667c-.058.056-1.925-1.783-4.17-4.107s-4.019-4.254-3.961-4.31,1.925,1.783,4.17,4.107,4.019,4.253,3.961,4.309" transform="translate(14467.115 1378.234)" fill="#fff"/>
    <path id="path330" d="M301.832-101.276H277.921v-33.892h23.912Z" transform="translate(14218.512 1635.941)" fill="#ff4f5b"/>
    <path id="path334" d="M-41.472-4.836H-71.394v-.3a3.188,3.188,0,0,1,3.188-3.187h23.548a3.188,3.188,0,0,1,3.188,3.187Z" transform="translate(14564.821 1542.407)" fill="#1a2e35"/>
    <path id="path336" d="M300.561-41.848H264.246v-5.521h36.315Z" transform="translate(14226.455 1584.94)" fill="#ff4f5b"/>
    <path id="path340" d="M-32.818-.2c0,.08-5.3.145-11.839.145S-56.5-.122-56.5-.2s5.3-.146,11.84-.146,11.839.065,11.839.146" transform="translate(14553.045 1531.142)" fill="#1a2e35"/>
    <path id="path344" d="M-32.818-.2c0,.08-5.3.145-11.839.145S-56.5-.122-56.5-.2s5.3-.146,11.84-.146,11.839.065,11.839.146" transform="translate(14553.045 1527.112)" fill="#1a2e35"/>
    <path id="path348" d="M-32.818-.2c0,.08-5.3.146-11.839.146S-56.5-.121-56.5-.2s5.3-.145,11.84-.145,11.839.065,11.839.145" transform="translate(14553.045 1523.152)" fill="#1a2e35"/>
    <path id="path352" d="M-32.818-.2c0,.081-5.3.146-11.839.146S-56.5-.12-56.5-.2s5.3-.145,11.84-.145,11.839.065,11.839.145" transform="translate(14553.045 1519.122)" fill="#1a2e35"/>
    <path id="path356" d="M-32.818-.2c0,.08-5.3.146-11.839.146S-56.5-.122-56.5-.2s5.3-.146,11.84-.146,11.839.065,11.839.146" transform="translate(14553.045 1515.164)" fill="#1a2e35"/>
    <path id="path360" d="M-32.818-.2c0,.08-5.3.146-11.839.146S-56.5-.122-56.5-.2s5.3-.146,11.84-.146,11.839.065,11.839.146" transform="translate(14553.045 1511.134)" fill="#1a2e35"/>
    <path id="path364" d="M-32.818-.2c0,.08-5.3.145-11.839.145S-56.5-.122-56.5-.2s5.3-.146,11.84-.146,11.839.065,11.839.146" transform="translate(14553.045 1507.175)" fill="#1a2e35"/>
    <path id="path368" d="M-32.818-.2c0,.08-5.3.145-11.839.145S-56.5-.122-56.5-.2s5.3-.146,11.84-.146,11.839.065,11.839.146" transform="translate(14553.045 1503.145)" fill="#1a2e35"/>
    <g id="g380" transform="translate(14496.217 1501.38)">
      <path id="path378" d="M-.3-5.7l23.8-.661V-9.82H-.513Z" transform="translate(0.513 9.82)"/>
    </g>
    <path id="path374" d="M277.407-133.721h24.01v4.116h-24.01Z" transform="translate(14218.81 1635.101)"/>
    <path id="path386" d="M391.194-101.276H367.282v-33.892h23.912Z" transform="translate(14166.604 1635.941)" fill="#ff4f5b"/>
    <path id="path390" d="M-41.472-4.836H-71.394v-.3a3.188,3.188,0,0,1,3.188-3.187h23.548a3.188,3.188,0,0,1,3.188,3.187Z" transform="translate(14602.274 1542.407)" fill="#1a2e35"/>
    <path id="path392" d="M389.922-41.848H353.606v-5.521h36.316Z" transform="translate(14174.548 1584.94)" fill="#ff4f5b"/>
    <path id="path396" d="M-32.818-.2c0,.08-5.3.145-11.839.145S-56.5-.122-56.5-.2s5.3-.146,11.84-.146,11.839.065,11.839.146" transform="translate(14590.497 1531.142)" fill="#1a2e35"/>
    <path id="path400" d="M-32.818-.2c0,.08-5.3.145-11.839.145S-56.5-.122-56.5-.2s5.3-.146,11.84-.146,11.839.065,11.839.146" transform="translate(14590.497 1527.112)" fill="#1a2e35"/>
    <path id="path404" d="M-32.818-.2c0,.08-5.3.146-11.839.146S-56.5-.121-56.5-.2s5.3-.145,11.84-.145,11.839.065,11.839.145" transform="translate(14590.497 1523.152)" fill="#1a2e35"/>
    <path id="path408" d="M-32.818-.2c0,.081-5.3.146-11.839.146S-56.5-.12-56.5-.2s5.3-.145,11.84-.145,11.839.065,11.839.145" transform="translate(14590.497 1519.122)" fill="#1a2e35"/>
    <path id="path412" d="M-32.818-.2c0,.08-5.3.146-11.839.146S-56.5-.122-56.5-.2s5.3-.146,11.84-.146,11.839.065,11.839.146" transform="translate(14590.497 1515.164)" fill="#1a2e35"/>
    <path id="path416" d="M-32.818-.2c0,.08-5.3.146-11.839.146S-56.5-.122-56.5-.2s5.3-.146,11.84-.146,11.839.065,11.839.146" transform="translate(14590.497 1511.134)" fill="#1a2e35"/>
    <path id="path420" d="M-32.818-.2c0,.08-5.3.145-11.839.145S-56.5-.122-56.5-.2s5.3-.146,11.84-.146,11.839.065,11.839.146" transform="translate(14590.497 1507.175)" fill="#1a2e35"/>
    <path id="path424" d="M-32.818-.2c0,.08-5.3.145-11.839.145S-56.5-.122-56.5-.2s5.3-.146,11.84-.146,11.839.065,11.839.146" transform="translate(14590.497 1503.145)" fill="#1a2e35"/>
    <g id="g436" transform="translate(14533.67 1501.38)">
      <path id="path434" d="M-.3-5.7l23.8-.661V-9.82H-.513Z" transform="translate(0.513 9.82)"/>
    </g>
    <path id="path430" d="M366.768-133.721h24.01v4.116h-24.01Z" transform="translate(14166.901 1635.101)"/>
    <path id="path444" d="M-15.86-3.395-16.952.933-26.53-1.485a1.024,1.024,0,0,1-.742-1.243l.592-2.343a1.023,1.023,0,0,1,1.242-.742Z" transform="translate(14586.238 1411.014)" fill="#ff4f5b"/>
    <g id="g456" transform="translate(14558.935 1405.169)">
      <path id="path454" d="M-15.86-3.395-16.952.933-26.53-1.485a1.024,1.024,0,0,1-.742-1.243l.592-2.343a1.023,1.023,0,0,1,1.242-.742Z" transform="translate(27.303 5.844)"/>
    </g>
    <path id="path450" d="M427.05-363.278h11.443v6.777H427.05Z" transform="translate(14131.886 1768.447)"/>
    <path id="path464" d="M-16.424-3.194l-1.644,6.511L-26.99,1.064A1.7,1.7,0,0,1-28.221-1l.812-3.216a1.7,1.7,0,0,1,2.063-1.232Z" transform="translate(14585.096 1417.569)" fill="#ff4f5b"/>
    <path id="path468" d="M-9.649-1.46-12.438,9.589l-4.173-1.053,2.79-11.049Z" transform="translate(14580.026 1409.079)" fill="#ff4f5b"/>
    <path id="path472" d="M-5.886-58.141s17.852-.726,16.376-17.834C9.359-89.08-10.133-89.2-10.133-89.2l4.984-10.891s22.779,1.982,27.275,18.57c5.08,18.74-6.667,34.028-28.012,33.668Z" transform="translate(14579.011 1509.624)" fill="#ff4f5b"/>
    <path id="path476" d="M-9.407-23.016l-6.787-1.5,3.339-15.106,6.787,1.5Z" transform="translate(14581.383 1446.124)" fill="#1a2e35"/>
    <path id="path480" d="M-9.258-2.052a13.1,13.1,0,0,1-3.38-.552,19.468,19.468,0,0,1-3.3-.915,21.036,21.036,0,0,1,3.365.632c.921.21,1.751.411,2.35.564l.708.187a1.33,1.33,0,0,1,.256.084" transform="translate(14581.53 1423.558)" fill="#375a64"/>
    <path id="path484" d="M-9.258-2.052A13.1,13.1,0,0,1-12.637-2.6a19.465,19.465,0,0,1-3.3-.915,21.057,21.057,0,0,1,3.365.631c.921.21,1.751.412,2.351.565l.707.187a1.33,1.33,0,0,1,.256.084" transform="translate(14582.131 1420.839)" fill="#375a64"/>
    <path id="path488" d="M-9.258-2.052A13.067,13.067,0,0,1-12.637-2.6a19.5,19.5,0,0,1-3.3-.915,21.037,21.037,0,0,1,3.365.632c.921.21,1.751.411,2.35.564l.708.187a1.314,1.314,0,0,1,.256.084" transform="translate(14582.85 1418.119)" fill="#375a64"/>
    <path id="path492" d="M-9.258-2.052A13.067,13.067,0,0,1-12.637-2.6a19.465,19.465,0,0,1-3.3-.915,21.069,21.069,0,0,1,3.365.631c.921.21,1.751.412,2.35.565l.708.187a1.33,1.33,0,0,1,.256.084" transform="translate(14583.334 1415.4)" fill="#375a64"/>
    <path id="path496" d="M-9.258-2.052A13.067,13.067,0,0,1-12.637-2.6a19.443,19.443,0,0,1-3.3-.915,21.037,21.037,0,0,1,3.365.632c.921.21,1.751.411,2.35.564l.708.187a1.314,1.314,0,0,1,.256.084" transform="translate(14584.032 1412.855)" fill="#375a64"/>
    <path id="path500" d="M-1.691-14.524a7.626,7.626,0,0,1-.363-1.507c-.18-.939-.392-2.245-.556-3.7s-.249-2.771-.282-3.727A7.558,7.558,0,0,1-2.874-25a8.926,8.926,0,0,1,.187,1.537c.086.95.2,2.262.367,3.707s.341,2.75.469,3.695a8.888,8.888,0,0,1,.16,1.54" transform="translate(14578.718 1476.181)" fill="#1a2e35"/>
    <path id="path504" d="M-4.129-14.89a53.353,53.353,0,0,1-1.626-5.332A53.264,53.264,0,0,1-7.1-25.633,53.816,53.816,0,0,1-5.475-20.3a53.506,53.506,0,0,1,1.346,5.41" transform="translate(14586.701 1475.682)" fill="#1a2e35"/>
    <path id="path508" d="M-8.563-14.27a11.06,11.06,0,0,1-.952-1.481l-2.177-3.642-2.188-3.635a11.167,11.167,0,0,1-.859-1.538,9.994,9.994,0,0,1,1.033,1.428c.6.9,1.41,2.173,2.264,3.6s1.592,2.732,2.106,3.689a10.108,10.108,0,0,1,.773,1.583" transform="translate(14598.596 1472.392)" fill="#1a2e35"/>
    <path id="path512" d="M-13.5-11.2c-.051.061-2.273-1.7-4.962-3.929s-4.828-4.092-4.777-4.154,2.273,1.7,4.963,3.93,4.828,4.092,4.776,4.153" transform="translate(14609.808 1464.295)" fill="#1a2e35"/>
    <path id="path516" d="M-16.117-6.717c-.031.074-2.659-.95-5.87-2.287s-5.789-2.481-5.759-2.555,2.659.949,5.87,2.287,5.789,2.481,5.758,2.555" transform="translate(14616.465 1452.911)" fill="#1a2e35"/>
    <path id="path520" d="M-17.718-2.187a12.7,12.7,0,0,1-1.88-.175l-4.516-.559-4.52-.544A12.767,12.767,0,0,1-30.5-3.747a11.564,11.564,0,0,1,1.888.077c1.163.089,2.767.245,4.534.46s3.361.451,4.511.644a11.608,11.608,0,0,1,1.851.379" transform="translate(14620.045 1440.933)" fill="#1a2e35"/>
    <path id="path524" d="M-16.451-.009a9.7,9.7,0,0,1-1.688.573c-1.055.309-2.528.691-4.17,1.037s-3.145.591-4.236.734a9.694,9.694,0,0,1-1.775.156,12.175,12.175,0,0,1,1.743-.36c1.08-.2,2.57-.471,4.208-.816S-19.257.623-18.19.366a12.126,12.126,0,0,1,1.74-.374" transform="translate(14617.854 1431.034)" fill="#1a2e35"/>
    <path id="path528" d="M-15.009,0c.036.072-2.359,1.352-5.348,2.858s-5.443,2.671-5.48,2.6,2.359-1.352,5.349-2.859,5.444-2.671,5.48-2.6" transform="translate(14614.168 1423.622)" fill="#1a2e35"/>
    <path id="path532" d="M-12.59,0c.053.061-1.939,1.862-4.447,4.021s-4.584,3.862-4.637,3.8,1.938-1.861,4.447-4.022S-12.643-.063-12.59,0" transform="translate(14607.146 1417.612)" fill="#1a2e35"/>
    <path id="path536" d="M-8.134,0a55.575,55.575,0,0,1-2.808,4.938A55.467,55.467,0,0,1-14,9.725a55.811,55.811,0,0,1,2.808-4.938A55.667,55.667,0,0,1-8.134,0" transform="translate(14594.923 1413.147)" fill="#1a2e35"/>
    <path id="path540" d="M-5,0A56.72,56.72,0,0,1-6.669,5.51a57.121,57.121,0,0,1-1.94,5.42A56.889,56.889,0,0,1-6.945,5.419,57.23,57.23,0,0,1-5,0" transform="translate(14584.833 1410.353)" fill="#1a2e35"/>
    <g id="g552" transform="translate(14577.357 1429.22)">
      <path id="path550" d="M-15.048-18.278a13.8,13.8,0,0,1-6.475,6.641,20.471,20.471,0,0,1-4.382,1.706c3.416,1.821,7.874.731,10.861-1.73A13.792,13.792,0,0,0-10.378-21.91a12.156,12.156,0,0,0-.967-5.366,8.389,8.389,0,0,0-3.678-4.191,10.291,10.291,0,0,1,1.039,2.934,17.119,17.119,0,0,1-1.064,10.254" transform="translate(25.905 31.467)"/>
    </g>
    <path id="path546" d="M471.007-305.891h15.532v22.443H471.007Z" transform="translate(14106.352 1735.112)"/>
    <path id="path560" d="M0,0A4.549,4.549,0,0,1,.553.616c.346.406.818,1.019,1.372,1.8a39.055,39.055,0,0,1,3.7,6.469,39.033,39.033,0,0,1,2.4,7.058c.216.93.362,1.689.438,2.217a4.432,4.432,0,0,1,.1.824,4.562,4.562,0,0,1-.206-.8c-.11-.52-.287-1.27-.526-2.188A44.947,44.947,0,0,0,5.362,9,45.06,45.06,0,0,0,1.756,2.529C1.225,1.741.781,1.112.464.686A4.627,4.627,0,0,1,0,0" transform="translate(14456.975 1472.554)" fill="#1a2e35"/>
    <path id="path564" d="M-.013-.018C.04-.078.3.069.576.311s.45.487.4.547S.656.771.383.529s-.45-.487-.4-.547" transform="translate(14454.614 1470.589)" fill="#1a2e35"/>
    <path id="path568" d="M-.022,0C.048-.046.324.289.6.742s.436.856.368.9S.618,1.346.346.892-.09.037-.022,0" transform="translate(14455.166 1468.934)" fill="#1a2e35"/>
    <path id="path572" d="M0-54.1a2.634,2.634,0,0,1,.086-.449q.112-.475.3-1.272c.26-1.106.638-2.7,1.067-4.688.86-3.966,1.9-9.48,2.671-15.625A69.289,69.289,0,0,1,5.4-84.784a13.085,13.085,0,0,1,1.5-3.531,10.329,10.329,0,0,1,2.227-2.493,10.572,10.572,0,0,1,4.317-2.106,9.108,9.108,0,0,1,1.3-.194,2.522,2.522,0,0,1,.457-.012,2.689,2.689,0,0,1-.451.07,11.522,11.522,0,0,0-1.277.246,10.808,10.808,0,0,0-4.214,2.156A10.245,10.245,0,0,0,7.1-88.188a12.978,12.978,0,0,0-1.445,3.474A72.232,72.232,0,0,0,4.41-76.093,158.673,158.673,0,0,1,1.651-60.461C1.2-58.48.787-56.887.493-55.79L.14-54.529A2.75,2.75,0,0,1,0-54.1" transform="translate(14465.487 1545.982)" fill="#375a64"/>
    <path id="path576" d="M0,0A9.045,9.045,0,0,0,1.422,2.08,9.428,9.428,0,0,0,6.8,4.693a20.153,20.153,0,0,0,6.1-.258l1.841-.321a3.135,3.135,0,0,1,.682-.088,3.137,3.137,0,0,1-.659.2c-.429.109-1.051.256-1.827.414a18.52,18.52,0,0,1-6.177.344A9.252,9.252,0,0,1,1.272,2.221,6.079,6.079,0,0,1,.224.651,2.424,2.424,0,0,1,0,0" transform="translate(14466.149 1447.571)" fill="#1a2e35"/>
    <path id="path580" d="M-.015-.015c.057-.057.324.118.6.39s.447.539.391.6S.648.853.375.581s-.447-.539-.39-.6" transform="translate(14464.039 1445.82)" fill="#1a2e35"/>
    <path id="path584" d="M-.024-.006C.044-.048.3.236.541.628s.386.745.317.787S.537,1.174.294.781-.092.037-.024-.006" transform="translate(14464.684 1444.839)" fill="#1a2e35"/>
    <path id="path588" d="M-.41,0c.079.012.093.341.031.734s-.178.7-.257.69-.093-.341-.03-.735S-.489-.013-.41,0" transform="translate(14466.819 1444.706)" fill="#1a2e35"/>
    <path id="path592" d="M-7,0a6.569,6.569,0,0,1-.049.994c-.049.639-.141,1.561-.275,2.7-.266,2.276-.731,5.409-1.429,8.835s-1.5,6.493-2.146,8.691c-.322,1.1-.6,1.983-.8,2.59a6.54,6.54,0,0,1-.345.934,6.527,6.527,0,0,1,.236-.967l.714-2.614c.595-2.208,1.361-5.274,2.06-8.694s1.192-6.539,1.51-8.8c.15-1.1.273-2,.367-2.685A6.476,6.476,0,0,1-7,0" transform="translate(14478.673 1466.53)" fill="#375a64"/>
    <path id="path596" d="M-13.3-.036c0,.055-.8.058-2.035.385A10.351,10.351,0,0,0-19.652,2.7a10.344,10.344,0,0,0-2.691,4.115c-.424,1.2-.492,2.006-.546,2a1.864,1.864,0,0,1,.023-.563,8.458,8.458,0,0,1,.328-1.5A9.831,9.831,0,0,1-19.85,2.49,9.835,9.835,0,0,1-15.387.149a8.427,8.427,0,0,1,1.522-.207,1.854,1.854,0,0,1,.563.022" transform="translate(14494.882 1453.627)" fill="#375a64"/>
    <path id="path600" d="M-.006-50.632a2.265,2.265,0,0,1,.023-.421c.026-.274.069-.68.14-1.2a11.351,11.351,0,0,1,1.325-4.234c.473-.818,1.118-1.625,1.643-2.575a5.258,5.258,0,0,0,.581-1.554,6.5,6.5,0,0,0,.048-1.765,13.845,13.845,0,0,1-.173-3.9,4.752,4.752,0,0,1,.9-1.895c.411-.572.882-1.1,1.256-1.689a3.564,3.564,0,0,0,.627-1.909,8.4,8.4,0,0,0-.267-2,11.8,11.8,0,0,1-.322-3.894,11.134,11.134,0,0,1,2.456-6.069,11.078,11.078,0,0,1,3.433-2.808,9.646,9.646,0,0,1,1.1-.5,2.206,2.206,0,0,1,.4-.126,2.26,2.26,0,0,1-.381.18c-.25.114-.618.284-1.071.541a11.443,11.443,0,0,0-3.328,2.837A11.048,11.048,0,0,0,6.04-77.642a11.636,11.636,0,0,0,.333,3.809,8.607,8.607,0,0,1,.278,2.065A3.849,3.849,0,0,1,5.98-69.71c-.393.617-.866,1.146-1.267,1.7a4.474,4.474,0,0,0-.851,1.784,13.865,13.865,0,0,0,.16,3.821,6.712,6.712,0,0,1-.064,1.837,5.5,5.5,0,0,1-.621,1.621c-.551.972-1.2,1.768-1.679,2.564A11.7,11.7,0,0,0,.27-52.234c-.08.494-.145.889-.194,1.188a2.323,2.323,0,0,1-.082.414" transform="translate(14468.141 1542.403)" fill="#375a64"/>
    <path id="path604" d="M-16.4-.06a5.209,5.209,0,0,0-1.373.194,5.465,5.465,0,0,0-2.889,2.307A12.048,12.048,0,0,0-22.17,7.8a68,68,0,0,1-1.023,6.886,111.188,111.188,0,0,1-3.329,12.192c-.5,1.538-.925,2.775-1.222,3.629l-.351.98a1.727,1.727,0,0,1-.141.336,1.7,1.7,0,0,1,.085-.354c.077-.258.176-.588.3-1,.278-.9.663-2.138,1.134-3.656.943-3.089,2.258-7.361,3.241-12.188.491-2.414.818-4.732,1.042-6.858a12.044,12.044,0,0,1,1.6-5.447,5.471,5.471,0,0,1,3.029-2.3A3.712,3.712,0,0,1-16.766-.1,1.692,1.692,0,0,1-16.4-.06" transform="translate(14498.642 1459.441)" fill="#e1e1e1"/>
    <path id="path608" d="M-44.331,0H-33.5s-6.564,52.131-42.813,51.954l.465-10.162S-51.193,40.263-44.331,0" transform="translate(14506.03 1489.768)" fill="#ff4f5b"/>
    <path id="path612" d="M-15.191-.241l-.078,4.462-9.877-.173a1.024,1.024,0,0,1-1.005-1.041L-26.108.59A1.024,1.024,0,0,1-25.067-.415Z" transform="translate(14441.346 1528.872)" fill="#ff4f5b"/>
    <g id="g624" transform="translate(14415.194 1528.457)">
      <path id="path622" d="M-15.191-.241l-.078,4.462-9.877-.173a1.024,1.024,0,0,1-1.005-1.041L-26.108.59A1.024,1.024,0,0,1-25.067-.415Z" transform="translate(26.151 0.415)"/>
    </g>
    <path id="path618" d="M84.089-69.116H95.049v4.636H84.089Z" transform="translate(14331.105 1597.573)"/>
    <path id="path632" d="M-15.23-.225l-.118,6.714-9.2-.161A1.7,1.7,0,0,1-26.218,4.6l.058-3.317A1.7,1.7,0,0,1-24.43-.387Z" transform="translate(14441.263 1535.823)" fill="#ff4f5b"/>
    <path id="path636" d="M-6.241-.105l-.2,11.394-4.3-.076.2-11.394Z" transform="translate(14432.396 1528.736)" fill="#ff4f5b"/>
    <path id="path640" d="M-9.9-21.441l-6.951.085-.189-15.469,6.951-.085Z" transform="translate(14441.134 1564.789)" fill="#1a2e35"/>
    <path id="path644" d="M-9.478-.084a13.106,13.106,0,0,1-3.416.232,19.369,19.369,0,0,1-3.422-.14A21.157,21.157,0,0,1-12.9-.142c.944-.005,1.8,0,2.417.015l.732.021a1.4,1.4,0,0,1,.268.023" transform="translate(14440.64 1541.805)" fill="#375a64"/>
    <path id="path648" d="M-9.478-.084a13.106,13.106,0,0,1-3.416.232,19.364,19.364,0,0,1-3.422-.14A21.151,21.151,0,0,1-12.9-.142c.944-.005,1.8,0,2.417.015l.732.021a1.4,1.4,0,0,1,.268.023" transform="translate(14440.605 1539.02)" fill="#375a64"/>
    <path id="path652" d="M-9.478-.083a13.077,13.077,0,0,1-3.416.232,19.369,19.369,0,0,1-3.422-.14A21.123,21.123,0,0,1-12.9-.141c.944-.006,1.8,0,2.417.014l.732.021a1.4,1.4,0,0,1,.268.023" transform="translate(14440.686 1536.208)" fill="#375a64"/>
    <path id="path656" d="M-9.478-.083a13.106,13.106,0,0,1-3.416.232,19.364,19.364,0,0,1-3.422-.14A21.117,21.117,0,0,1-12.9-.141c.944-.006,1.8,0,2.417.014l.732.021a1.4,1.4,0,0,1,.268.023" transform="translate(14440.538 1533.45)" fill="#375a64"/>
    <path id="path660" d="M-9.478-.084a13.122,13.122,0,0,1-3.416.232,19.364,19.364,0,0,1-3.422-.14A21.187,21.187,0,0,1-12.9-.143c.944-.006,1.8,0,2.417.014l.733.021a1.314,1.314,0,0,1,.268.023" transform="translate(14440.64 1530.815)" fill="#375a64"/>
    <path id="path664" d="M-2.366-14.28c.015,0,.027.09.034.279l.011.325-.1-.317A47.044,47.044,0,0,1-3.484-19.11c-.241-1.5-.405-2.869-.5-3.861a8.144,8.144,0,0,1-.075-1.613A9.724,9.724,0,0,1-3.775-23c.143.984.339,2.343.579,3.84.386,2.425.777,4.469.863,5.143L-2.42-14c.021-.188.039-.277.054-.276" transform="translate(14437.328 1555.489)" fill="#1a2e35"/>
    <path id="path668" d="M-4.619-14.715a53.244,53.244,0,0,1-1.8-5.265,53.376,53.376,0,0,1-1.524-5.352,53.336,53.336,0,0,1,1.8,5.265,53.3,53.3,0,0,1,1.524,5.352" transform="translate(14444.723 1554.936)" fill="#1a2e35"/>
    <path id="path672" d="M-7.035-14.224A56.4,56.4,0,0,1-9.7-19.291a56.317,56.317,0,0,1-2.406-5.2A56.553,56.553,0,0,1-9.441-19.42a56.361,56.361,0,0,1,2.406,5.2" transform="translate(14453.21 1551.88)" fill="#1a2e35"/>
    <path id="path676" d="M-9.254-12.5a54.181,54.181,0,0,1-3.454-4.423,54.43,54.43,0,0,1-3.22-4.6A54.209,54.209,0,0,1-12.474-17.1a54.438,54.438,0,0,1,3.22,4.6" transform="translate(14460.811 1546.135)" fill="#1a2e35"/>
    <path id="path680" d="M-10.856-10.9a52.915,52.915,0,0,1-4.018-3.83,53.024,53.024,0,0,1-3.813-4.035,52.978,52.978,0,0,1,4.019,3.83A53.216,53.216,0,0,1-10.856-10.9" transform="translate(14467.112 1540.074)" fill="#1a2e35"/>
    <path id="path684" d="M-12.968-7.579a9.04,9.04,0,0,1-1.4-.751l-3.3-1.933-3.308-1.929a9.124,9.124,0,0,1-1.342-.852,8.223,8.223,0,0,1,1.442.672c.872.451,2.061,1.1,3.355,1.858s2.444,1.472,3.266,2.01a8.227,8.227,0,0,1,1.293.926" transform="translate(14473.096 1531.399)" fill="#1a2e35"/>
    <path id="path688" d="M-12.736-5.9a8.289,8.289,0,0,1-1.356-.61c-.823-.4-1.959-.956-3.226-1.542s-2.425-1.092-3.265-1.459a8.182,8.182,0,0,1-1.342-.638A6.977,6.977,0,0,1-20.5-9.7c.861.319,2.037.8,3.31,1.386s2.4,1.174,3.2,1.623a6.958,6.958,0,0,1,1.26.792" transform="translate(14475.485 1524.292)" fill="#1a2e35"/>
    <path id="path692" d="M-14.237-4.145a7.745,7.745,0,0,1-1.55-.259c-.948-.2-2.25-.524-3.672-.937s-2.693-.841-3.6-1.177A7.768,7.768,0,0,1-24.51-7.13,9.214,9.214,0,0,1-23-6.713c.924.286,2.2.681,3.618,1.092s2.706.762,3.639,1.017a9.206,9.206,0,0,1,1.5.458" transform="translate(14480.119 1517.299)" fill="#1a2e35"/>
    <path id="path696" d="M-14.276-1.84a46.545,46.545,0,0,1-5.169-.511,46.345,46.345,0,0,1-5.132-.8,46.545,46.545,0,0,1,5.169.511,46.159,46.159,0,0,1,5.132.8" transform="translate(14481.83 1509.707)" fill="#1a2e35"/>
    <path id="path700" d="M-14.148-1.447a7.679,7.679,0,0,1-1.5-.047c-.926-.066-2.2-.178-3.614-.32s-2.686-.286-3.607-.405a7.753,7.753,0,0,1-1.483-.252,7.8,7.8,0,0,1,1.507.048c.927.066,2.2.178,3.612.319s2.682.286,3.6.405a7.786,7.786,0,0,1,1.486.252" transform="translate(14483.477 1504.149)" fill="#1a2e35"/>
    <path id="path704" d="M-14.945-.075a49.976,49.976,0,0,1-5.387.314,49.96,49.96,0,0,1-5.4.023,50.122,50.122,0,0,1,5.387-.314,50.137,50.137,0,0,1,5.4-.023" transform="translate(14485.646 1497.767)" fill="#1a2e35"/>
    <path id="path708" d="M-14.043-.029A6.75,6.75,0,0,1-15.516.2c-.915.094-2.186.175-3.591.182S-21.783.321-22.7.236A6.741,6.741,0,0,1-24.175.02a8.692,8.692,0,0,1,1.488.01c.916.032,2.182.068,3.579.062s2.661-.056,3.577-.1a8.671,8.671,0,0,1,1.488-.025" transform="translate(14485.304 1493.629)" fill="#1a2e35"/>
    <path id="path712" d="M-41.446,0a.516.516,0,0,1,.011.141c0,.11,0,.246,0,.413-.008.363.01.9-.036,1.589a41.4,41.4,0,0,1-.686,5.805,43.829,43.829,0,0,1-2.43,8.32,44.434,44.434,0,0,1-5.106,9.3,44.43,44.43,0,0,1-7.215,7.785,43.815,43.815,0,0,1-7.127,4.935,41.512,41.512,0,0,1-5.29,2.485c-.639.261-1.154.413-1.5.536l-.393.128a.488.488,0,0,1-.137.034.536.536,0,0,1,.127-.063l.383-.155c.335-.14.843-.31,1.474-.586a45.643,45.643,0,0,0,5.231-2.559,44.982,44.982,0,0,0,7.055-4.96A44.982,44.982,0,0,0-49.927,25.4a45.051,45.051,0,0,0,5.094-9.232,45.043,45.043,0,0,0,2.477-8.26,45.738,45.738,0,0,0,.775-5.772c.063-.686.063-1.221.091-1.583.011-.167.02-.3.027-.412A.5.5,0,0,1-41.446,0" transform="translate(14503.618 1491.316)" fill="#fff"/>
    <path id="path716" d="M-27.521-63.608s-5.993-8.107-19.857-6.906c0,0,14.111-10.839,5.808-21.978,0,0,17.821,5.266,18.024-17.01,0,0,3.241,20.656,20.049,14.783,0,0,1.193,16.411,12.827,13.374C3.7-75.8-1.779-70.924-.662-63.849" transform="translate(14539.868 1494.169)" fill="#ff4f5b"/>
    <g id="g728" transform="translate(14492.491 1384.667)">
      <path id="path726" d="M-27.521-63.608s-5.993-8.107-19.857-6.906c0,0,14.111-10.839,5.808-21.978,0,0,17.821,5.266,18.024-17.01,0,0,3.241,20.656,20.049,14.783,0,0,1.193,16.411,12.827,13.374C3.7-75.8-1.779-70.924-.662-63.849" transform="translate(47.377 109.502)" fill="#fff"/>
    </g>
    <path id="path722" d="M268.517-412.2h56.707V-366.3H268.517Z" transform="translate(14223.975 1796.863)"/>
    <path id="path736" d="M-15.631-51.383s-.142-9.455-11.278-8.49c0,0,10.358-5.972,3.688-14.919,0,0,14.315,4.23,14.478-13.664,0,0,2.6,16.592,16.1,11.875,0,0-1.61,12.038,7.736,9.6-4.522,4.453-6.355,9.516-5.458,15.2" transform="translate(14527.979 1481.943)" fill="#ff4f5b"/>
    <g id="g748" transform="translate(14501.069 1393.487)">
      <path id="path746" d="M-15.631-51.383s-.142-9.455-11.278-8.49c0,0,10.358-5.972,3.688-14.919,0,0,14.315,4.23,14.478-13.664,0,0,2.6,16.592,16.1,11.875,0,0-1.61,12.038,7.736,9.6-4.522,4.453-6.355,9.516-5.458,15.2" transform="translate(26.909 88.456)" fill="#fff"/>
    </g>
    <path id="path742" d="M288.986-391.15h42v37.073h-42Z" transform="translate(14212.084 1784.637)"/>
    <path id="path756" d="M-9.615,0A1.8,1.8,0,0,1-9.75.352l-.438.986c-.2.425-.432.947-.681,1.563s-.562,1.305-.848,2.092c-.3.78-.629,1.635-.936,2.569-.334.925-.629,1.934-.953,2.99-.608,2.125-1.189,4.486-1.649,6.995-.444,2.512-.723,4.929-.894,7.133-.064,1.1-.14,2.151-.149,3.134-.037.983-.03,1.9-.019,2.734-.007.837.043,1.592.065,2.257s.058,1.236.093,1.7c.027.443.049.8.067,1.076a1.8,1.8,0,0,1,0,.378,1.8,1.8,0,0,1-.061-.372c-.031-.275-.072-.631-.121-1.073-.054-.466-.108-1.037-.142-1.7s-.1-1.422-.108-2.261c-.023-.838-.044-1.757-.017-2.744,0-.987.066-2.04.123-3.148a69.507,69.507,0,0,1,.875-7.165,69.5,69.5,0,0,1,1.678-7.019c.333-1.058.638-2.068.983-2.993.319-.934.658-1.788.972-2.566s.624-1.471.89-2.081.515-1.128.728-1.546c.2-.4.362-.716.487-.963A1.772,1.772,0,0,1-9.615,0" transform="translate(14540.251 1367.848)" fill="#ff4f5b"/>
    <path id="path760" d="M-10.117-5.452A18.354,18.354,0,0,0-13.47-7.963a18.365,18.365,0,0,0-3.946-1.406,3.772,3.772,0,0,1,1.244.12,10.47,10.47,0,0,1,2.839,1.03,10.462,10.462,0,0,1,2.428,1.8,3.77,3.77,0,0,1,.788.971" transform="translate(14500.755 1369.464)" fill="#ff4f5b"/>
    <path id="path764" d="M0,0A1.318,1.318,0,0,1,.231.218L.853.886c.54.579,1.289,1.448,2.183,2.547s1.917,2.443,3,3.975,2.188,3.271,3.277,5.141,2.022,3.71,2.826,5.4,1.452,3.253,1.955,4.578.887,2.405,1.121,3.162c.109.353.2.642.268.872a1.293,1.293,0,0,1,.075.31,1.31,1.31,0,0,1-.13-.291l-.32-.853c-.266-.745-.674-1.814-1.2-3.123s-1.2-2.852-2.006-4.539-1.76-3.5-2.836-5.373S6.863,9.1,5.812,7.561s-2.061-2.89-2.936-4S1.281,1.562.768.96L.187.258A1.338,1.338,0,0,1,0,0" transform="translate(14494.932 1388.34)" fill="#ff4f5b"/>
    <path id="path768" d="M-8.641,0a1.006,1.006,0,0,1-.115.255l-.378.7c-.17.3-.374.671-.59,1.111s-.488.928-.739,1.493c-.535,1.111-1.1,2.468-1.659,4A47.709,47.709,0,0,0-13.6,12.647a47.471,47.471,0,0,0-.845,5.233c-.153,1.623-.222,3.091-.215,4.325-.016.617.017,1.175.027,1.665s.033.913.058,1.257c.016.317.03.579.041.8a1.01,1.01,0,0,1-.006.279,1.046,1.046,0,0,1-.053-.274c-.026-.214-.058-.476-.1-.792-.042-.344-.085-.766-.107-1.258s-.073-1.051-.07-1.671a39.7,39.7,0,0,1,.154-4.353,44.3,44.3,0,0,1,.828-5.271,44.3,44.3,0,0,1,1.51-5.116,39.793,39.793,0,0,1,1.726-4c.264-.562.547-1.047.78-1.48s.45-.8.635-1.091l.426-.674A1,1,0,0,1-8.641,0" transform="translate(14541.994 1391.193)" fill="#ff4f5b"/>
    <path id="path772" d="M-9.319,0a14.927,14.927,0,0,1-1.21,1.048,21.465,21.465,0,0,0-2.658,2.767,21.466,21.466,0,0,0-2.1,3.21,15.344,15.344,0,0,1-.75,1.414,6.147,6.147,0,0,1,.567-1.507,16.994,16.994,0,0,1,2.059-3.3A17.011,17.011,0,0,1-10.66.887,6.256,6.256,0,0,1-9.319,0" transform="translate(14553.648 1393.36)" fill="#ff4f5b"/>
    <path id="path776" d="M0,0A6.5,6.5,0,0,1,1.365.85,19.33,19.33,0,0,1,4.248,3.462,19.3,19.3,0,0,1,6.551,6.6a6.49,6.49,0,0,1,.708,1.447,13.761,13.761,0,0,1-.883-1.338,25.43,25.43,0,0,0-2.344-3.05A25.35,25.35,0,0,0,1.239,1.013,13.764,13.764,0,0,1,0,0" transform="translate(14497.667 1407.616)" fill="#ff4f5b"/>
    <path id="path780" d="M-7.719-2.1c-.044.078-1.184-.559-2.725-.95s-2.844-.4-2.844-.487a6.4,6.4,0,0,1,2.917.205A6.41,6.41,0,0,1-7.719-2.1" transform="translate(14502.554 1404.519)" fill="#ff4f5b"/>
    <path id="path784" d="M-4.031-6.244A1.638,1.638,0,0,0-2.367-4.633,1.638,1.638,0,0,0-.756-6.3,1.639,1.639,0,0,0-2.42-7.909,1.639,1.639,0,0,0-4.031-6.244m-2.012-.865a3.734,3.734,0,0,1,.366-.926l-.505-.772L-5.12-9.9l.788.48a3.729,3.729,0,0,1,.913-.4l.189-.9,1.527-.025.218.9a3.744,3.744,0,0,1,.925.367l.773-.505,1.1,1.062-.479.788a3.745,3.745,0,0,1,.4.914l.9.189.025,1.527-.9.218a3.721,3.721,0,0,1-.366.925L1.4-3.6.336-2.5l-.788-.48a3.719,3.719,0,0,1-.913.4l-.189.9-1.527.025-.218-.9a3.757,3.757,0,0,1-.926-.367L-5-2.411-6.1-3.473l.479-.788a3.762,3.762,0,0,1-.4-.913l-.9-.189L-6.94-6.891Z" transform="translate(14489.382 1392.031)" fill="#ff4f5b" fill-rule="evenodd"/>
    <path id="path788" d="M-2.975-4.608A1.209,1.209,0,0,0-1.747-3.419,1.208,1.208,0,0,0-.558-4.647,1.207,1.207,0,0,0-1.786-5.836,1.209,1.209,0,0,0-2.975-4.608M-4.46-5.247a2.749,2.749,0,0,1,.27-.682L-4.563-6.5l.784-.809.582.354a2.749,2.749,0,0,1,.674-.293l.14-.666,1.127-.018.161.661A2.765,2.765,0,0,1-.412-7l.569-.373.81.783-.354.582a2.767,2.767,0,0,1,.292.674l.667.14.018,1.127-.662.161a2.771,2.771,0,0,1-.27.683l.373.569-.784.81L-.334-2.2a2.727,2.727,0,0,1-.674.293l-.14.666-1.127.019-.161-.662a2.784,2.784,0,0,1-.683-.27l-.57.372-.81-.784.354-.582a2.79,2.79,0,0,1-.292-.674l-.667-.14-.018-1.126Z" transform="translate(14551.816 1431.46)" fill="#375a64" fill-rule="evenodd"/>
    <path id="path792" d="M0-7.3l2.5-5.264,2.38,1.13-2.5,5.264Z" transform="translate(14533.645 1390.458)" fill="#e1e1e1"/>
    <path id="path796" d="M0-7.551a6.2,6.2,0,0,1,.688.273c.423.18,1.018.436,1.737.763l-.14.05c.624-1.372,1.493-3.236,2.464-5.28-.061-.174.084.235.069.193h0l-.005,0-.01-.005-.02-.009-.04-.019-.078-.037L4.5-11.7l-.308-.147-.606-.289L2.438-12.69l.184-.065C1.9-11.254,1.255-9.97.786-9.044L.227-7.955a2.9,2.9,0,0,1-.23.4,1.664,1.664,0,0,1,.142-.378c.132-.3.29-.666.477-1.094.417-.94,1.024-2.288,1.757-3.851L2.431-13l.126.059,1.156.543.607.287.309.146.156.074.078.037.039.018.02.009.009,0,.005,0,0,0h0l.069.194c-.972,2.044-1.868,3.9-2.537,5.246l-.047.1-.093-.046C1.58-6.7.985-7.006.585-7.217A3.827,3.827,0,0,1,0-7.551" transform="translate(14533.648 1390.713)" fill="#1a2e35"/>
    <path id="path800" d="M-4.491-.327A2.432,2.432,0,0,0-7.731.826l4.393,2.087A2.431,2.431,0,0,0-4.491-.327" transform="translate(14542.786 1376.555)" fill="#e1e1e1"/>
    <path id="path804" d="M-4.741-.438c.006-.012.1.017.269.1a2.269,2.269,0,0,1,.628.5,2.445,2.445,0,0,1,.556,1.111A2.53,2.53,0,0,1-3.467,2.86l-.055.122-.123-.058-2.2-1.033L-8.038.836-8.161.777-8.1.657A2.531,2.531,0,0,1-6.986-.481,2.444,2.444,0,0,1-5.773-.753a2.3,2.3,0,0,1,.786.169c.169.078.253.134.246.146A4.608,4.608,0,0,0-5.774-.589a2.385,2.385,0,0,0-1.105.306A2.348,2.348,0,0,0-7.86.772L-7.923.594l2.2,1.033L-3.53,2.681l-.179.063a2.35,2.35,0,0,0,.2-1.426A2.394,2.394,0,0,0-3.97.267a4.61,4.61,0,0,0-.771-.705" transform="translate(14543.036 1376.666)" fill="#1a2e35"/>
    <path id="path808" d="M-.667-2.167a1.533,1.533,0,0,0-.481-1.564" transform="translate(14539.017 1379.785)" fill="#e1e1e1"/>
    <path id="path812" d="M-.009-.017C.027-.087.44.135.6.652s-.055.932-.125.894S.452,1.152.318.738-.061.049-.009-.017" transform="translate(14537.878 1376.071)" fill="#1a2e35"/>
    <path id="path816" d="M0-.014A5.216,5.216,0,0,1,1.275.513a5.24,5.24,0,0,1,1.243.607A2.569,2.569,0,0,1,1.155.778C.442.459-.048.049,0-.014" transform="translate(14535.668 1378.653)" fill="#1a2e35"/>
    <path id="path820" d="M0-.014A5.2,5.2,0,0,1,1.275.513a5.24,5.24,0,0,1,1.243.607A2.569,2.569,0,0,1,1.155.778C.442.459-.048.049,0-.014" transform="translate(14535.375 1379.271)" fill="#1a2e35"/>
    <path id="path824" d="M0-.014A5.214,5.214,0,0,1,1.275.513a5.226,5.226,0,0,1,1.243.607A2.569,2.569,0,0,1,1.155.778C.442.459-.048.049,0-.014" transform="translate(14535.081 1379.889)" fill="#1a2e35"/>
    <path id="path828" d="M0-.014A5.214,5.214,0,0,1,1.275.513a5.24,5.24,0,0,1,1.243.607A2.569,2.569,0,0,1,1.155.778C.442.459-.048.049,0-.014" transform="translate(14534.787 1380.507)" fill="#1a2e35"/>
    <path id="path832" d="M0-.014A5.206,5.206,0,0,1,1.274.513a5.178,5.178,0,0,1,1.243.607A2.579,2.579,0,0,1,1.155.778C.442.46-.049.049,0-.014" transform="translate(14534.494 1381.126)" fill="#1a2e35"/>
    <path id="path836" d="M0-.014A5.206,5.206,0,0,1,1.274.513a5.178,5.178,0,0,1,1.243.607A2.584,2.584,0,0,1,1.155.779C.442.46-.049.049,0-.014" transform="translate(14534.2 1381.744)" fill="#1a2e35"/>
    <path id="path840" d="M0-.014A5.206,5.206,0,0,1,1.274.513a5.178,5.178,0,0,1,1.243.607A2.584,2.584,0,0,1,1.155.779C.442.46-.049.049,0-.014" transform="translate(14533.907 1382.362)" fill="#1a2e35"/>
    <path id="path844" d="M-8.864-3.327-14.171-.919l-1.089-2.4,5.307-2.407Z" transform="translate(14490.953 1429.011)" fill="#e1e1e1"/>
    <path id="path848" d="M-9.05-3.519a6,6,0,0,1-.35-.653c-.207-.41-.5-.989-.835-1.7l.139.053c-1.362.645-3.228,1.508-5.29,2.444l.072-.192h0v0l0,.005.005.01.009.02.017.039.036.079.072.158.141.311q.14.31.276.611l.522,1.166-.183-.069c1.521-.68,2.841-1.246,3.8-1.65l1.13-.471a2.953,2.953,0,0,1,.437-.16,1.668,1.668,0,0,1-.353.2l-1.07.527c-.926.45-2.259,1.087-3.827,1.808l-.125.058-.058-.126-.532-1.161-.279-.611-.141-.311-.072-.158-.036-.078-.018-.04-.009-.02,0-.01,0-.005v0h0c-.016.041.137-.365.073-.193,2.061-.934,3.94-1.77,5.323-2.371l.1-.042.042.095c.334.769.588,1.39.758,1.809a4,4,0,0,1,.235.635" transform="translate(14491.139 1429.203)" fill="#1a2e35"/>
    <path id="path852" d="M-.3-4.462a2.432,2.432,0,0,0,3.219,1.21L.909-7.681A2.432,2.432,0,0,0-.3-4.462" transform="translate(14474.362 1432.442)" fill="#e1e1e1"/>
    <path id="path856" d="M-.411-4.711c-.012.006-.066-.079-.141-.249a2.279,2.279,0,0,1-.155-.789A2.443,2.443,0,0,1-.414-6.956a2.531,2.531,0,0,1,1.158-1.1l.121-.058.057.124,1.015,2.21.994,2.22.056.125-.123.053a2.528,2.528,0,0,1-1.587.149A2.437,2.437,0,0,1,.175-3.8a2.278,2.278,0,0,1-.492-.636C-.4-4.609-.423-4.7-.411-4.711a4.644,4.644,0,0,0,.692.782,2.38,2.38,0,0,0,1.042.479,2.35,2.35,0,0,0,1.43-.174l-.067.178c-.316-.689-.657-1.431-1.015-2.21L.677-7.875l.178.066a2.351,2.351,0,0,0-1.073.962,2.39,2.39,0,0,0-.326,1.1A4.657,4.657,0,0,0-.411-4.711" transform="translate(14474.472 1432.691)" fill="#1a2e35"/>
    <path id="path860" d="M-.918,0a1.533,1.533,0,0,0-.641,1.5" transform="translate(14475.834 1426.884)" fill="#e1e1e1"/>
    <path id="path864" d="M-.186-2.108c-.073.03-.244-.407-.031-.9s.643-.677.672-.6C.5-3.542.216-3.3.051-2.9s-.155.771-.237.788" transform="translate(14474.461 1430.496)" fill="#1a2e35"/>
    <path id="path868" d="M-1.668-3.46A5.186,5.186,0,0,1-2.3-4.688a5.219,5.219,0,0,1-.558-1.266c.063-.046.484.434.82,1.14A2.57,2.57,0,0,1-1.668-3.46" transform="translate(14479.294 1431.296)" fill="#1a2e35"/>
    <path id="path872" d="M-1.668-3.46A5.175,5.175,0,0,1-2.3-4.688a5.229,5.229,0,0,1-.557-1.266c.063-.046.484.434.82,1.14A2.576,2.576,0,0,1-1.668-3.46" transform="translate(14479.918 1431.014)" fill="#1a2e35"/>
    <path id="path876" d="M-1.668-3.46A5.175,5.175,0,0,1-2.3-4.688a5.2,5.2,0,0,1-.557-1.266c.063-.046.484.434.82,1.14A2.58,2.58,0,0,1-1.668-3.46" transform="translate(14480.54 1430.731)" fill="#1a2e35"/>
    <path id="path880" d="M-1.668-3.46A5.175,5.175,0,0,1-2.3-4.688a5.2,5.2,0,0,1-.557-1.266c.063-.046.484.434.82,1.14A2.58,2.58,0,0,1-1.668-3.46" transform="translate(14481.164 1430.448)" fill="#1a2e35"/>
    <path id="path884" d="M-1.668-3.46A5.21,5.21,0,0,1-2.3-4.688a5.219,5.219,0,0,1-.558-1.266c.063-.046.484.434.82,1.14A2.571,2.571,0,0,1-1.668-3.46" transform="translate(14481.786 1430.166)" fill="#1a2e35"/>
    <path id="path888" d="M-1.668-3.46A5.186,5.186,0,0,1-2.3-4.688a5.219,5.219,0,0,1-.558-1.266c.063-.046.484.434.82,1.14A2.575,2.575,0,0,1-1.668-3.46" transform="translate(14482.41 1429.883)" fill="#1a2e35"/>
    <path id="path892" d="M-1.668-3.46A5.175,5.175,0,0,1-2.3-4.688a5.229,5.229,0,0,1-.557-1.266c.063-.046.484.434.82,1.14A2.581,2.581,0,0,1-1.668-3.46" transform="translate(14483.033 1429.6)" fill="#1a2e35"/>
    <path id="path896" d="M0,0S6.767,6.687,8.452,10.858c1.6,3.972,2.666,7.671,2.666,7.671s1.744-3.052,3.706,0,11.233,40.107,12.76,54.058h5.907s-2.754-23.322-4.061-25.938a11.013,11.013,0,0,0-2.4-3.488S25.5,33.352,24.414,31.826a7.352,7.352,0,0,0-2.4-2.18s-1.961-10.681-4.8-12.861-5.013-1.09-5.013-1.09S10.4,4.276,0,0" transform="translate(14492.567 1357.579)" fill="#ff4f5b"/>
    <path id="path900" d="M-10.406-.02A32.714,32.714,0,0,0-14.33,1.308,32.784,32.784,0,0,0-17.912,3.39,4.005,4.005,0,0,1-17,2.561,13.45,13.45,0,0,1-14.45,1.043,13.482,13.482,0,0,1-11.628.119,3.979,3.979,0,0,1-10.406-.02" transform="translate(14558.377 1407.099)" fill="#375a64"/>
    <path id="path904" d="M-10.416-.011a40.649,40.649,0,0,0-3.941,1.75A40.744,40.744,0,0,0-17.93,4.153a4.365,4.365,0,0,1,.9-.911A15.407,15.407,0,0,1-14.5,1.484,15.363,15.363,0,0,1-11.663.266a4.354,4.354,0,0,1,1.247-.277" transform="translate(14558.157 1405.919)" fill="#375a64"/>
    <path id="path908" d="M-7.254-.1c0,.089-1.234.108-2.678.525s-2.509,1.036-2.554.959A5.857,5.857,0,0,1-10.011.149,5.852,5.852,0,0,1-7.254-.1" transform="translate(14553.854 1408.857)" fill="#375a64"/>
    <path id="path912" d="M-.283-29.648c-.985-7.828,1.583-16.995,7.84-21.391l1.49,1.214S1.271-45.2,1.841-29.588" transform="translate(14533.841 1459.754)" fill="#1a2e35"/>
    <path id="path916" d="M-7.689-.02a18.867,18.867,0,0,0-3,1.336A18.847,18.847,0,0,0-13.233,3.39,6.453,6.453,0,0,1-10.84,1.068,6.454,6.454,0,0,1-7.689-.02" transform="translate(14509.131 1418.858)" fill="#375a64"/>
    <path id="path920" d="M-8.473-.014a28.7,28.7,0,0,1-3.043,1.177,28.635,28.635,0,0,1-3.07,1.1A13.546,13.546,0,0,1-11.618.891a13.583,13.583,0,0,1,3.144-.9" transform="translate(14509.763 1418.157)" fill="#375a64"/>
    <path id="path924" d="M-15.419-9.851a3.026,3.026,0,0,0-1.544.374,1.628,1.628,0,0,0-.847,1.539,1.151,1.151,0,0,0,.609.718,1.616,1.616,0,0,0,1.324.113,2.515,2.515,0,0,0,1.294-2.559c0-.037-.009-.074-.015-.111a4.769,4.769,0,0,0-.821-.074m8.327,8.266L-9.8-2.29a6.161,6.161,0,0,0-.726-4.737A6.013,6.013,0,0,0-11.84-8.506a5.137,5.137,0,0,1-2.967,3.98,4.391,4.391,0,0,1-3.714-.231A3.884,3.884,0,0,1-20.552-7.4a4.383,4.383,0,0,1,2.167-4.484,5.532,5.532,0,0,1,2.046-.7q-.1-.081-.2-.161a7.476,7.476,0,0,0-8.428-.227l-1.575-2.308a10.24,10.24,0,0,1,11.7.316,8.243,8.243,0,0,1,2.43,2.917A9.028,9.028,0,0,1-8.153-8.51,9,9,0,0,1-7.092-1.585" transform="translate(14525.599 1433.622)" fill="#1a2e35"/>
    <path id="path928" d="M0,0a4.681,4.681,0,0,1,.75.4c.476.267,1.143.692,1.945,1.25A33.576,33.576,0,0,1,5.4,3.754a37.375,37.375,0,0,1,3,2.939,37.393,37.393,0,0,1,2.625,3.284,33.482,33.482,0,0,1,1.828,2.9c.475.853.832,1.559,1.049,2.06a4.665,4.665,0,0,1,.32.785,4.685,4.685,0,0,1-.421-.735c-.249-.484-.631-1.172-1.126-2.007s-1.123-1.807-1.869-2.852A41.235,41.235,0,0,0,8.19,6.889,41.235,41.235,0,0,0,5.224,3.956c-.965-.846-1.866-1.571-2.65-2.144S1.146.787.689.491A4.756,4.756,0,0,1,0,0" transform="translate(14495.817 1380.145)" fill="#ff4f5b"/>
    <path id="path932" d="M-7.6-39.122h-.475a5.009,5.009,0,0,1-5.009-5.009V-62.34a5.009,5.009,0,0,1,5.009-5.009H-7.6Z" transform="translate(14494.439 1509.757)" fill="#1a2e35"/>
    <path id="path936" d="M-.725-39.122h-.523V-67.349h.523a4.961,4.961,0,0,1,4.961,4.961v18.3A4.961,4.961,0,0,1-.725-39.122" transform="translate(14568.889 1509.757)" fill="#1a2e35"/>
    <path id="path940" d="M-104.771-85.189h-67.7a7.89,7.89,0,0,1-7.89-7.89v-45.685a7.89,7.89,0,0,1,7.89-7.89h67.7a7.89,7.89,0,0,1,7.89,7.89v45.685a7.89,7.89,0,0,1-7.89,7.89" transform="translate(14665.76 1583.55)" fill="#ff4f5b"/>
    <path id="path944" d="M-26.517,0A19.132,19.132,0,0,0-45.649,19.132H-7.385A19.132,19.132,0,0,0-26.517,0" transform="translate(14564.275 1443.428)" fill="#fff"/>
    <path id="path948" d="M-4.033-.008c.8-.009,1.531-.008,2.058,0a4.124,4.124,0,0,1,.853.053A4.083,4.083,0,0,1-1.974.11C-2.5.125-3.229.134-4.032.134L-6.09.116-6.714.1A.888.888,0,0,1-6.943.077.938.938,0,0,1-6.714.054L-6.09.03l2.058-.038" transform="translate(14557.202 1461.637)" fill="#e1e1e1"/>
    <path id="path952" d="M-3.579-1.529a12.109,12.109,0,0,1,2.7-1.092A12.139,12.139,0,0,1-3.46-1.27a19.758,19.758,0,0,1-2.7,1.092,19.821,19.821,0,0,1,2.582-1.35" transform="translate(14555.412 1457.378)" fill="#e1e1e1"/>
    <path id="path956" d="M-2.551-2.875A12.327,12.327,0,0,1-.5-4.946,12.318,12.318,0,0,1-2.339-2.685a19.184,19.184,0,0,1-2.05,2.07,19.42,19.42,0,0,1,1.839-2.26" transform="translate(14550.795 1453.994)" fill="#e1e1e1"/>
    <path id="path960" d="M-1.231-3.712A12.41,12.41,0,0,1-.081-6.39,12.444,12.444,0,0,1-.964-3.613,19,19,0,0,1-2.113-.936a18.97,18.97,0,0,1,.882-2.777" transform="translate(14544.356 1451.81)" fill="#e1e1e1"/>
    <path id="path964" d="M0-4.034A12.554,12.554,0,0,1,.139-6.945,12.554,12.554,0,0,1,.282-4.034,18.809,18.809,0,0,1,.139-1.125,18.562,18.562,0,0,1,0-4.034" transform="translate(14537.266 1451.136)" fill="#e1e1e1"/>
    <path id="path968" d="M-1.24-3.85a12.4,12.4,0,0,1-.882-2.777A12.475,12.475,0,0,1-.973-3.95,19,19,0,0,1-.091-1.173,18.848,18.848,0,0,1-1.24-3.85" transform="translate(14532.657 1452.046)" fill="#e1e1e1"/>
    <path id="path972" d="M-2.554-3.138A12.278,12.278,0,0,1-4.393-5.4a12.247,12.247,0,0,1,2.051,2.07A19.2,19.2,0,0,1-.5-1.069a19.176,19.176,0,0,1-2.05-2.069" transform="translate(14528.906 1454.448)" fill="#e1e1e1"/>
    <path id="path976" d="M-3.58-1.886A12.11,12.11,0,0,1-6.163-3.237a12.076,12.076,0,0,1,2.7,1.092A19.709,19.709,0,0,1-.88-.8a19.772,19.772,0,0,1-2.7-1.091" transform="translate(14526.437 1457.996)" fill="#e1e1e1"/>
    <path id="path980" d="M-4.034-.205c-.8,0-1.531-.008-2.058-.024a4.083,4.083,0,0,1-.852-.062,4.179,4.179,0,0,1,.853-.053c.527-.011,1.255-.012,2.059,0l2.057.038.624.024a.944.944,0,0,1,.229.023.893.893,0,0,1-.229.021l-.624.017-2.058.018" transform="translate(14525.672 1461.976)" fill="#e1e1e1"/>
    <path id="path984" d="M-7.039-3.519A2.539,2.539,0,0,1-9.578-.98a2.539,2.539,0,0,1-2.539-2.539A2.539,2.539,0,0,1-9.578-6.059,2.539,2.539,0,0,1-7.039-3.519" transform="translate(14512.896 1450.299)" fill="#fff"/>
    <path id="path988" d="M-7.039-3.519A2.539,2.539,0,0,1-9.578-.98a2.539,2.539,0,0,1-2.539-2.539A2.539,2.539,0,0,1-9.578-6.059,2.539,2.539,0,0,1-7.039-3.519" transform="translate(14512.896 1457.955)" fill="#375a64"/>
    <path id="path992" d="M-72.371-36.588s-.008-.165-.012-.475-.006-.775-.012-1.371c-.006-1.209-.015-2.974-.027-5.243-.014-4.54-.034-11.09-.058-19.164l.108.108-52.067.037h0l.146-.145c0,9.257-.006,18.138-.009,26.253l-.137-.137,37.393.066,10.788.037,2.884.017.747.008c.169,0,.259.008.259.008s-.079.006-.243.009l-.731.008-2.856.017-10.757.037-37.485.066h-.137v-.137c0-8.115-.006-17-.008-26.253v-.146h.149l52.067.037h.108v.109c-.025,8.1-.044,14.673-.058,19.231-.012,2.258-.021,4.015-.027,5.218q-.008.881-.012,1.351c0,.3-.012.453-.012.453" transform="translate(14626.356 1529.648)" fill="#1a2e35"/>
    <path id="path996" d="M-87-5.284h-59.29a3.482,3.482,0,0,1-3.482-3.482V-9.1h66.254v.33A3.482,3.482,0,0,1-87-5.284" transform="translate(14643.782 1507.338)" fill="#1a2e35"/>
    <g id="g1008" transform="translate(14548.403 1469.412)">
      <path id="path1006" d="M-.018-1.495A1.58,1.58,0,0,0,1.065.169a1.743,1.743,0,0,0,1.894-.7,1.945,1.945,0,0,0,.026-2.046,1.932,1.932,0,0,1-.438,1.309,1.428,1.428,0,0,1-1.26.5,1.136,1.136,0,0,1-.947-.916" transform="translate(0.032 2.573)"/>
    </g>
    <path id="path1002" d="M401.922-209.994h3.294v2.809h-3.294Z" transform="translate(14146.481 1679.407)"/>
    <path id="path1016" d="M-4.28-2.141A1.544,1.544,0,0,1-5.825-.6,1.544,1.544,0,0,1-7.368-2.141,1.544,1.544,0,0,1-5.825-3.685,1.545,1.545,0,0,1-4.28-2.141" transform="translate(14555.684 1472.01)" fill="#e1e1e1"/>
    <path id="path1020" d="M-4.482-2.314c-.025,0-.031-.137-.1-.363a1.543,1.543,0,0,0-.569-.782,1.45,1.45,0,0,0-1.352-.179,1.426,1.426,0,0,0-.918,1.324A1.425,1.425,0,0,0-6.507-.99a1.449,1.449,0,0,0,1.352-.178,1.544,1.544,0,0,0,.569-.783c.072-.226.079-.363.1-.363s.049.138.007.391A1.538,1.538,0,0,1-5.029-1,1.639,1.639,0,0,1-6.6-.738,1.68,1.68,0,0,1-7.716-2.314,1.68,1.68,0,0,1-6.6-3.89a1.639,1.639,0,0,1,1.569.267,1.538,1.538,0,0,1,.554.919c.042.252.008.392-.007.391" transform="translate(14555.886 1472.183)" fill="#1a2e35"/>
    <path id="path1024" d="M-1.808-.034c.028.079-.338.269-.676.625s-.522.723-.6.7-.006-.491.392-.9.868-.5.885-.422" transform="translate(14552.38 1469.243)" fill="#1a2e35"/>
    <path id="path1028" d="M-1.974-1.388c-.07.046-.327-.237-.707-.489s-.734-.392-.717-.474.448-.061.88.232.611.693.544.73" transform="translate(14552.546 1471.739)" fill="#1a2e35"/>
    <g id="g1040" transform="translate(14549.128 1488.519)">
      <path id="path1038" d="M-.018-1.5A1.579,1.579,0,0,0,1.065.168a1.743,1.743,0,0,0,1.894-.7,1.946,1.946,0,0,0,.026-2.046,1.927,1.927,0,0,1-.438,1.309,1.427,1.427,0,0,1-1.26.5,1.137,1.137,0,0,1-.947-.916" transform="translate(0.032 2.575)"/>
    </g>
    <path id="path1034" d="M403.651-164.4h3.295v2.809h-3.295Z" transform="translate(14145.478 1652.925)"/>
    <path id="path1048" d="M-4.28-2.14A1.544,1.544,0,0,1-5.824-.6,1.544,1.544,0,0,1-7.368-2.14,1.544,1.544,0,0,1-5.824-3.684,1.544,1.544,0,0,1-4.28-2.14" transform="translate(14556.408 1491.116)" fill="#e1e1e1"/>
    <path id="path1052" d="M-4.481-2.313c-.025,0-.031-.137-.1-.363a1.544,1.544,0,0,0-.569-.783,1.448,1.448,0,0,0-1.352-.178,1.425,1.425,0,0,0-.919,1.324A1.426,1.426,0,0,0-6.505-.988a1.448,1.448,0,0,0,1.352-.179,1.545,1.545,0,0,0,.568-.782c.072-.226.079-.364.1-.363s.049.139.007.391A1.536,1.536,0,0,1-5.029-1,1.639,1.639,0,0,1-6.6-.736,1.678,1.678,0,0,1-7.715-2.313,1.679,1.679,0,0,1-6.6-3.889a1.64,1.64,0,0,1,1.569.267,1.535,1.535,0,0,1,.554.919c.042.253.008.392-.007.391" transform="translate(14556.609 1491.289)" fill="#1a2e35"/>
    <path id="path1056" d="M-1.808-.034c.028.079-.338.269-.676.625s-.521.723-.6.7S-3.09.8-2.693.389s.868-.5.885-.423" transform="translate(14553.104 1488.349)" fill="#1a2e35"/>
    <path id="path1060" d="M-1.974-1.388c-.069.046-.327-.236-.707-.489s-.734-.391-.717-.473.448-.062.88.232.611.692.544.73" transform="translate(14553.271 1490.846)" fill="#1a2e35"/>
    <g id="g1072" transform="translate(14504.21 1469.389)">
      <path id="path1070" d="M-.018-1.5A1.579,1.579,0,0,0,1.065.168a1.742,1.742,0,0,0,1.894-.7,1.946,1.946,0,0,0,.026-2.047,1.931,1.931,0,0,1-.438,1.309,1.426,1.426,0,0,1-1.259.5A1.137,1.137,0,0,1,.34-1.686" transform="translate(0.032 2.575)"/>
    </g>
    <path id="path1066" d="M296.478-210.05h3.294v2.809h-3.294Z" transform="translate(14207.732 1679.439)"/>
    <path id="path1080" d="M-4.28-2.141A1.544,1.544,0,0,1-5.824-.6,1.544,1.544,0,0,1-7.368-2.141,1.544,1.544,0,0,1-5.824-3.685,1.544,1.544,0,0,1-4.28-2.141" transform="translate(14511.49 1471.987)" fill="#e1e1e1"/>
    <path id="path1084" d="M-4.482-2.314c-.025,0-.031-.137-.1-.363a1.546,1.546,0,0,0-.569-.783,1.449,1.449,0,0,0-1.352-.178,1.426,1.426,0,0,0-.918,1.324A1.425,1.425,0,0,0-6.507-.99a1.449,1.449,0,0,0,1.352-.178,1.546,1.546,0,0,0,.569-.783c.072-.226.079-.364.1-.363s.049.138.007.391A1.537,1.537,0,0,1-5.03-1,1.639,1.639,0,0,1-6.6-.738,1.679,1.679,0,0,1-7.716-2.314,1.679,1.679,0,0,1-6.6-3.89a1.64,1.64,0,0,1,1.569.267,1.539,1.539,0,0,1,.554.919c.042.253.008.392-.007.391" transform="translate(14511.692 1472.16)" fill="#1a2e35"/>
    <path id="path1088" d="M-1.808-.034c.028.079-.339.269-.676.625s-.522.723-.6.7-.005-.491.393-.9.868-.5.885-.423" transform="translate(14508.187 1469.219)" fill="#1a2e35"/>
    <path id="path1092" d="M-1.974-1.388c-.07.046-.327-.236-.707-.489s-.734-.391-.717-.473.448-.061.88.232.611.692.544.73" transform="translate(14508.353 1471.715)" fill="#1a2e35"/>
    <g id="g1104" transform="translate(14503.882 1488.33)">
      <path id="path1102" d="M-.018-1.5A1.579,1.579,0,0,0,1.065.168a1.743,1.743,0,0,0,1.894-.7,1.947,1.947,0,0,0,.026-2.047,1.933,1.933,0,0,1-.438,1.309,1.427,1.427,0,0,1-1.26.5,1.136,1.136,0,0,1-.947-.916" transform="translate(0.032 2.575)"/>
    </g>
    <path id="path1098" d="M295.7-164.857h3.295v2.809H295.7Z" transform="translate(14208.187 1653.187)"/>
    <path id="path1112" d="M-4.28-2.14A1.544,1.544,0,0,1-5.824-.6,1.544,1.544,0,0,1-7.368-2.14,1.544,1.544,0,0,1-5.824-3.684,1.544,1.544,0,0,1-4.28-2.14" transform="translate(14511.163 1490.927)" fill="#e1e1e1"/>
    <path id="path1116" d="M-4.482-2.313c-.025,0-.031-.137-.1-.363a1.546,1.546,0,0,0-.569-.783,1.449,1.449,0,0,0-1.352-.178,1.425,1.425,0,0,0-.918,1.324A1.426,1.426,0,0,0-6.507-.988a1.447,1.447,0,0,0,1.352-.179,1.543,1.543,0,0,0,.569-.782c.072-.226.079-.364.1-.363s.049.139.007.391A1.538,1.538,0,0,1-5.029-1,1.639,1.639,0,0,1-6.6-.736,1.679,1.679,0,0,1-7.716-2.313,1.68,1.68,0,0,1-6.6-3.889a1.639,1.639,0,0,1,1.568.267,1.539,1.539,0,0,1,.554.919c.042.253.008.392-.007.391" transform="translate(14511.365 1491.1)" fill="#1a2e35"/>
    <path id="path1120" d="M-1.808-.034c.028.079-.339.269-.676.625s-.522.723-.6.7,0-.491.393-.9.868-.5.885-.423" transform="translate(14507.858 1488.16)" fill="#1a2e35"/>
    <path id="path1124" d="M-1.974-1.388c-.07.046-.327-.236-.707-.489s-.734-.391-.717-.473.448-.061.88.232.611.693.544.73" transform="translate(14508.024 1490.656)" fill="#1a2e35"/>
    <g id="g1136" transform="translate(14501.915 1493.06)">
      <path id="path1134" d="M0-.2C6.048,1.117,13.108,1.167,19.642.849c3.141-.153,6.59-.35,9.1,1.543.552.416,1.2.955,1.843.715.943-.35.977-2.07,1.982-2.1.5-.017.885.463,1.048.938a7.329,7.329,0,0,0,.459,1.433c.257.432.867.725,1.266.42.638-.488-.1-1.532.144-2.3C35.736.7,36.864.639,37.634.954a4.738,4.738,0,0,0,2.346.736A4.5,4.5,0,0,0,41.559.877,9.824,9.824,0,0,1,46.565-.1c1.817-.031,3.689-.2,5.506-.236Z" transform="translate(0 0.339)"/>
    </g>
    <path id="path1130" d="M291-153.572h52.071v4.258H291Z" transform="translate(14210.915 1646.632)"/>
    <path id="path1144" d="M-35.815,0A1.178,1.178,0,0,1-36.1.1a6.329,6.329,0,0,0-.81.27,12.412,12.412,0,0,0-2.725,1.546c-1.09.76-2.294,1.809-3.818,2.739a8.841,8.841,0,0,1-2.587,1.075,14.126,14.126,0,0,1-2.985.223A11.206,11.206,0,0,0-54.391,7.6c-1.556.832-2.952,1.589-4.054,2.332a14.681,14.681,0,0,0-2.429,1.988c-.515.536-.761.869-.782.853a1.2,1.2,0,0,1,.16-.255,7.623,7.623,0,0,1,.539-.674,13.341,13.341,0,0,1,2.4-2.081,43.7,43.7,0,0,1,4.043-2.4A18.385,18.385,0,0,1-51.99,6.19a8.763,8.763,0,0,1,2.958-.532A14.239,14.239,0,0,0-46.1,5.448a8.716,8.716,0,0,0,2.511-1.027c1.5-.9,2.723-1.931,3.836-2.677A11.479,11.479,0,0,1-36.948.26a4.953,4.953,0,0,1,.835-.221,1.174,1.174,0,0,1,.3-.043" transform="translate(14579.371 1473.49)" fill="#1a2e35"/>
    <path id="path1148" d="M-14.27-5.733a7.193,7.193,0,0,1-1.622-.249,24.594,24.594,0,0,1-3.783-1.176,24.579,24.579,0,0,1-3.547-1.766,7.191,7.191,0,0,1-1.344-.941A12.4,12.4,0,0,1-23.12-9.1a35.111,35.111,0,0,0,3.552,1.675,34.87,34.87,0,0,0,3.725,1.246,12.613,12.613,0,0,1,1.573.449" transform="translate(14544.58 1483.643)" fill="#1a2e35"/>
    <path id="path1152" d="M0-5.913c.426-.226,12.983-4.266,12.983-4.266L.981-3.45Z" transform="translate(14538.715 1465.58)" fill="#ff4f5b"/>
    <path id="path1156" d="M-5.884,0a4.245,4.245,0,0,0-4.245,4.245h8.491A4.246,4.246,0,0,0-5.884,0" transform="translate(14543.288 1458.315)" fill="#1a2e35"/>
    <path id="path1160" d="M-.2-84.494c-.08,0-.145-13.648-.145-30.48s.065-30.483.145-30.483.145,13.645.145,30.483S-.121-84.494-.2-84.494" transform="translate(14494.905 1582.736)" fill="#1a2e35"/>
    <path id="path1164" d="M-.2-84.494c-.081,0-.146-13.648-.146-30.48s.065-30.483.146-30.483.145,13.645.145,30.483S-.122-84.494-.2-84.494" transform="translate(14561.32 1582.736)" fill="#1a2e35"/>
    <path id="path1168" d="M-1.807-.9a.651.651,0,0,1-.652.652A.651.651,0,0,1-3.111-.9a.651.651,0,0,1,.652-.652A.651.651,0,0,1-1.807-.9" transform="translate(14494.374 1445.795)" fill="#1a2e35"/>
    <path id="path1172" d="M-1.807-.9a.652.652,0,0,1-.652.652A.652.652,0,0,1-3.111-.9a.652.652,0,0,1,.652-.652A.652.652,0,0,1-1.807-.9" transform="translate(14494.374 1458.027)" fill="#1a2e35"/>
    <path id="path1176" d="M-1.807-.9a.651.651,0,0,1-.652.652A.651.651,0,0,1-3.111-.9a.651.651,0,0,1,.652-.652A.651.651,0,0,1-1.807-.9" transform="translate(14494.374 1470.257)" fill="#1a2e35"/>
    <path id="path1180" d="M-1.807-.9a.652.652,0,0,1-.652.652A.652.652,0,0,1-3.111-.9a.652.652,0,0,1,.652-.652A.652.652,0,0,1-1.807-.9" transform="translate(14494.374 1482.488)" fill="#1a2e35"/>
    <path id="path1184" d="M-1.807-.9a.651.651,0,0,1-.652.652A.651.651,0,0,1-3.111-.9a.652.652,0,0,1,.652-.652A.652.652,0,0,1-1.807-.9" transform="translate(14494.374 1494.72)" fill="#1a2e35"/>
    <path id="path1188" d="M-1.807-.9a.651.651,0,0,1-.652.652A.651.651,0,0,1-3.111-.9a.651.651,0,0,1,.652-.652A.651.651,0,0,1-1.807-.9" transform="translate(14566.992 1445.795)" fill="#1a2e35"/>
    <path id="path1192" d="M-1.807-.9a.652.652,0,0,1-.652.652A.652.652,0,0,1-3.111-.9a.652.652,0,0,1,.652-.652A.652.652,0,0,1-1.807-.9" transform="translate(14566.992 1458.027)" fill="#1a2e35"/>
    <path id="path1196" d="M-1.807-.9a.651.651,0,0,1-.652.652A.651.651,0,0,1-3.111-.9a.651.651,0,0,1,.652-.652A.651.651,0,0,1-1.807-.9" transform="translate(14566.992 1470.257)" fill="#1a2e35"/>
    <path id="path1200" d="M-1.807-.9a.652.652,0,0,1-.652.652A.652.652,0,0,1-3.111-.9a.652.652,0,0,1,.652-.652A.652.652,0,0,1-1.807-.9" transform="translate(14566.992 1482.488)" fill="#1a2e35"/>
    <path id="path1204" d="M-1.807-.9a.651.651,0,0,1-.652.652A.651.651,0,0,1-3.111-.9a.652.652,0,0,1,.652-.652A.652.652,0,0,1-1.807-.9" transform="translate(14566.992 1494.72)" fill="#1a2e35"/>
    <path id="path1206" d="M340.958-296.905H312.4v-6.73h28.556Z" transform="translate(14198.482 1733.801)" fill="#375a64"/>
    <path id="path1210" d="M-.2-9a18.247,18.247,0,0,1-.145-3.247A18.251,18.251,0,0,1-.2-15.5a18.251,18.251,0,0,1,.145,3.248A18.247,18.247,0,0,1-.2-9" transform="translate(14513.145 1445.898)" fill="#1a2e35"/>
    <path id="path1214" d="M-.2-9a18.247,18.247,0,0,1-.145-3.247A18.251,18.251,0,0,1-.2-15.5a18.251,18.251,0,0,1,.145,3.248A18.247,18.247,0,0,1-.2-9" transform="translate(14516.077 1445.898)" fill="#1a2e35"/>
    <path id="path1218" d="M-.2-9a18.247,18.247,0,0,1-.145-3.247A18.251,18.251,0,0,1-.2-15.5a18.251,18.251,0,0,1,.145,3.248A18.247,18.247,0,0,1-.2-9" transform="translate(14519.009 1445.898)" fill="#1a2e35"/>
    <path id="path1222" d="M-.2-9a18.213,18.213,0,0,1-.146-3.247A18.217,18.217,0,0,1-.2-15.5a18.217,18.217,0,0,1,.146,3.248A18.213,18.213,0,0,1-.2-9" transform="translate(14521.941 1445.898)" fill="#1a2e35"/>
    <path id="path1226" d="M-.2-9a18.15,18.15,0,0,1-.146-3.247A18.154,18.154,0,0,1-.2-15.5a18.251,18.251,0,0,1,.145,3.248A18.247,18.247,0,0,1-.2-9" transform="translate(14524.873 1445.898)" fill="#1a2e35"/>
    <path id="path1230" d="M-.2-9a18.213,18.213,0,0,1-.146-3.247A18.217,18.217,0,0,1-.2-15.5a18.217,18.217,0,0,1,.146,3.248A18.213,18.213,0,0,1-.2-9" transform="translate(14527.806 1445.898)" fill="#1a2e35"/>
    <path id="path1234" d="M-.2-9a18.15,18.15,0,0,1-.146-3.247A18.154,18.154,0,0,1-.2-15.5a18.251,18.251,0,0,1,.145,3.248A18.247,18.247,0,0,1-.2-9" transform="translate(14530.737 1445.898)" fill="#1a2e35"/>
    <path id="path1238" d="M-.2-9a18.213,18.213,0,0,1-.146-3.247A18.217,18.217,0,0,1-.2-15.5a18.217,18.217,0,0,1,.146,3.248A18.213,18.213,0,0,1-.2-9" transform="translate(14533.669 1445.898)" fill="#1a2e35"/>
    <path id="path1242" d="M-.2-9a18.247,18.247,0,0,1-.145-3.247A18.251,18.251,0,0,1-.2-15.5a18.154,18.154,0,0,1,.146,3.248A18.15,18.15,0,0,1-.2-9" transform="translate(14536.6 1445.898)" fill="#1a2e35"/>
    <g id="g1254" transform="translate(14573.121 1451.483)">
      <path id="path1252" d="M-.006,0C.685,3.5,1.327,6.794,2.017,10.295a15.182,15.182,0,0,1-2.023-.006C-.022,6.936.01,3.352-.006,0" transform="translate(0.011)"/>
    </g>
    <path id="path1248" d="M460.9-252.775h2.028v10.33H460.9Z" transform="translate(14112.225 1704.258)"/>
    <path id="path1262" d="M-.974,0c.08,0-.005,10.437-.191,23.3s-.4,23.3-.482,23.3.005-10.434.191-23.307S-1.054,0-.974,0" transform="translate(14488.301 1443.455)" fill="#fff"/>
    <path id="path1266" d="M-.2-32.172c-.08,0-.145-5.2-.145-11.606S-.282-55.384-.2-55.384s.145,5.2.145,11.606S-.121-32.172-.2-32.172" transform="translate(14499.677 1523.672)" fill="#fff"/>
    <path id="path1270" d="M-79.307-.2c0,.081-12.81.146-28.609.146S-136.528-.12-136.528-.2s12.808-.145,28.612-.145,28.609.065,28.609.145" transform="translate(14633.665 1438.979)" fill="#fff"/>
    <path id="path1282" d="M-329.352-.2c0,.08-53.2.146-118.81.146C-513.8-.056-566.984-.122-566.984-.2S-513.8-.348-448.162-.348c65.61,0,118.81.065,118.81.146" transform="translate(14967.825 1543.744)" fill="#1a2e35"/>
  </g>
</svg>
