<svg xmlns="http://www.w3.org/2000/svg" xmlns:xlink="http://www.w3.org/1999/xlink" width="259.153" height="153.706" viewBox="0 0 259.153 153.706">
  <defs>
    <filter id="path314" x="89.466" y="77.102" width="85.576" height="76.604" filterUnits="userSpaceOnUse">
      <feOffset dy="3" input="SourceAlpha"/>
      <feGaussianBlur stdDeviation="3" result="blur"/>
      <feFlood flood-opacity="0.161"/>
      <feComposite operator="in" in2="blur"/>
      <feComposite in="SourceGraphic"/>
    </filter>
    <filter id="path314-2" x="175.356" y="33.362" width="83.796" height="74.085" filterUnits="userSpaceOnUse">
      <feOffset dy="3" input="SourceAlpha"/>
      <feGaussianBlur stdDeviation="3" result="blur-2"/>
      <feFlood flood-opacity="0.161"/>
      <feComposite operator="in" in2="blur-2"/>
      <feComposite in="SourceGraphic"/>
    </filter>
    <filter id="path314-3" x="0" y="33.245" width="82.509" height="72.319" filterUnits="userSpaceOnUse">
      <feOffset dy="3" input="SourceAlpha"/>
      <feGaussianBlur stdDeviation="3" result="blur-3"/>
      <feFlood flood-opacity="0.161"/>
      <feComposite operator="in" in2="blur-3"/>
      <feComposite in="SourceGraphic"/>
    </filter>
    <filter id="path314-4" x="46.557" y="58.587" width="77.396" height="65.634" filterUnits="userSpaceOnUse">
      <feOffset dy="3" input="SourceAlpha"/>
      <feGaussianBlur stdDeviation="3" result="blur-4"/>
      <feFlood flood-opacity="0.161"/>
      <feComposite operator="in" in2="blur-4"/>
      <feComposite in="SourceGraphic"/>
    </filter>
    <filter id="path314-5" x="133.819" y="57" width="92.872" height="90.808" filterUnits="userSpaceOnUse">
      <feOffset dy="3" input="SourceAlpha"/>
      <feGaussianBlur stdDeviation="3" result="blur-5"/>
      <feFlood flood-opacity="0.161"/>
      <feComposite operator="in" in2="blur-5"/>
      <feComposite in="SourceGraphic"/>
    </filter>
    <filter id="path314-6" x="55.819" y="0" width="92.872" height="90.808" filterUnits="userSpaceOnUse">
      <feOffset dy="3" input="SourceAlpha"/>
      <feGaussianBlur stdDeviation="3" result="blur-6"/>
      <feFlood flood-opacity="0.161"/>
      <feComposite operator="in" in2="blur-6"/>
      <feComposite in="SourceGraphic"/>
    </filter>
    <filter id="path314-7" x="116.669" y="14.923" width="87.171" height="78.963" filterUnits="userSpaceOnUse">
      <feOffset dy="3" input="SourceAlpha"/>
      <feGaussianBlur stdDeviation="3" result="blur-7"/>
      <feFlood flood-opacity="0.161"/>
      <feComposite operator="in" in2="blur-7"/>
      <feComposite in="SourceGraphic"/>
    </filter>
    <filter id="path314-8" x="86.466" y="39.102" width="85.576" height="76.604" filterUnits="userSpaceOnUse">
      <feOffset dy="3" input="SourceAlpha"/>
      <feGaussianBlur stdDeviation="3" result="blur-8"/>
      <feFlood flood-opacity="0.161"/>
      <feComposite operator="in" in2="blur-8"/>
      <feComposite in="SourceGraphic"/>
    </filter>
  </defs>
  <g id="Group_2625" data-name="Group 2625" transform="translate(-7017.387 -2573.711)">
    <g id="Group_2617" data-name="Group 2617" transform="translate(985.073 -2368.631) rotate(13)">
      <g transform="matrix(0.97, -0.22, 0.22, 0.97, 6989.49, 3458.69)" filter="url(#path314)">
        <path id="path314-9" data-name="path314" d="M193.718-925.253,155.03-914.779a7.368,7.368,0,0,0-5.172,9.011l5.211,19.25a7.369,7.369,0,0,0,9.011,5.172l10.668-2.888,8.684,4.983a2.727,2.727,0,0,0,3.722-1.007l4.984-8.684,10.63-2.878a7.369,7.369,0,0,0,5.172-9.011l-5.211-19.25a7.369,7.369,0,0,0-9.011-5.172" transform="translate(-245.01 951.24) rotate(13)" fill="#f03a4d"/>
      </g>
      <path id="path316" d="M239.709-854.02a4.541,4.541,0,0,1-3.2,5.57,4.541,4.541,0,0,1-5.57-3.2,4.541,4.541,0,0,1,3.2-5.569,4.541,4.541,0,0,1,5.57,3.2" transform="translate(6901.999 4388.005)" fill="#fff"/>
      <path id="path318" d="M238.2-798.484c-.879-3.246,1.694-4.174,4.94-5.053s5.936-1.375,6.814,1.871L238.2-798.484" transform="translate(6896.398 4346.902)" fill="#fff"/>
      <path id="path320" d="M310.856-859.083a1.252,1.252,0,0,1-1.535-.881l-2.39-8.829L306-867.165a1.253,1.253,0,0,1-1.709.462,1.252,1.252,0,0,1-.462-1.709l2.438-4.245a1.252,1.252,0,0,1,1.245-.618,1.253,1.253,0,0,1,1.047.914l3.179,11.743a1.251,1.251,0,0,1-.881,1.535" transform="translate(6845.674 4400.303)" fill="#fff"/>
      <path id="path772" d="M269.333-830.495v-.17h.064q-.03.085-.064.17" transform="translate(6872.205 4367.361)"/>
    </g>
    <g id="Group_2618" data-name="Group 2618" transform="translate(813.976 -2084.075) rotate(10)">
      <g transform="matrix(0.98, -0.17, 0.17, 0.98, 6917.98, 3509.81)" filter="url(#path314-2)">
        <path id="path314-10" data-name="path314" d="M193.718-925.253,155.03-914.779a7.368,7.368,0,0,0-5.172,9.011l5.211,19.25a7.369,7.369,0,0,0,9.011,5.172l10.668-2.888,8.684,4.983a2.727,2.727,0,0,0,3.722-1.007l4.984-8.684,10.63-2.878a7.369,7.369,0,0,0,5.172-9.011l-5.211-19.25a7.369,7.369,0,0,0-9.011-5.172" transform="translate(-115.59 924.83) rotate(10)" fill="#f03a4d"/>
      </g>
      <path id="path316-2" data-name="path316" d="M239.709-854.02a4.541,4.541,0,0,1-3.2,5.57,4.541,4.541,0,0,1-5.57-3.2,4.541,4.541,0,0,1,3.2-5.569,4.541,4.541,0,0,1,5.57,3.2" transform="translate(6901.999 4388.005)" fill="#fff"/>
      <path id="path318-2" data-name="path318" d="M238.2-798.484c-.879-3.246,1.694-4.174,4.94-5.053s5.936-1.375,6.814,1.871L238.2-798.484" transform="translate(6896.398 4346.902)" fill="#fff"/>
      <path id="path320-2" data-name="path320" d="M310.856-859.083a1.252,1.252,0,0,1-1.535-.881l-2.39-8.829L306-867.165a1.253,1.253,0,0,1-1.709.462,1.252,1.252,0,0,1-.462-1.709l2.438-4.245a1.252,1.252,0,0,1,1.245-.618,1.253,1.253,0,0,1,1.047.914l3.179,11.743a1.251,1.251,0,0,1-.881,1.535" transform="translate(6845.674 4400.303)" fill="#fff"/>
      <path id="path772-2" data-name="path772" d="M269.333-830.495v-.17h.064q-.03.085-.064.17" transform="translate(6872.205 4367.361)"/>
    </g>
    <g id="Group_2619" data-name="Group 2619" transform="translate(-507.938 130.287) rotate(-8)">
      <g transform="matrix(0.99, 0.14, -0.14, 0.99, 7112.03, 3466.97)" filter="url(#path314-3)">
        <path id="path314-11" data-name="path314" d="M193.718-925.253,155.03-914.779a7.368,7.368,0,0,0-5.172,9.011l5.211,19.25a7.369,7.369,0,0,0,9.011,5.172l10.668-2.888,8.684,4.983a2.727,2.727,0,0,0,3.722-1.007l4.984-8.684,10.63-2.878a7.369,7.369,0,0,0,5.172-9.011l-5.211-19.25a7.369,7.369,0,0,0-9.011-5.172" transform="translate(-10.34 984.72) rotate(-8)" fill="#f03a4d"/>
      </g>
      <path id="path316-3" data-name="path316" d="M239.709-854.02a4.541,4.541,0,0,1-3.2,5.57,4.541,4.541,0,0,1-5.57-3.2,4.541,4.541,0,0,1,3.2-5.569,4.541,4.541,0,0,1,5.57,3.2" transform="translate(6901.999 4388.005)" fill="#fff"/>
      <path id="path318-3" data-name="path318" d="M238.2-798.484c-.879-3.246,1.694-4.174,4.94-5.053s5.936-1.375,6.814,1.871L238.2-798.484" transform="translate(6896.398 4346.902)" fill="#fff"/>
      <path id="path320-3" data-name="path320" d="M310.856-859.083a1.252,1.252,0,0,1-1.535-.881l-2.39-8.829L306-867.165a1.253,1.253,0,0,1-1.709.462,1.252,1.252,0,0,1-.462-1.709l2.438-4.245a1.252,1.252,0,0,1,1.245-.618,1.253,1.253,0,0,1,1.047.914l3.179,11.743a1.251,1.251,0,0,1-.881,1.535" transform="translate(6845.674 4400.303)" fill="#fff"/>
      <path id="path772-3" data-name="path772" d="M269.333-830.495v-.17h.064q-.03.085-.064.17" transform="translate(6872.205 4367.361)"/>
    </g>
    <g id="Group_2620" data-name="Group 2620" transform="matrix(1, 0.017, -0.017, 1, 21.843, -1000.487)">
      <g transform="matrix(1, -0.02, 0.02, 1, 7056.86, 3451.56)" filter="url(#path314-4)">
        <path id="path314-12" data-name="path314" d="M193.718-925.253,155.03-914.779a7.368,7.368,0,0,0-5.172,9.011l5.211,19.25a7.369,7.369,0,0,0,9.011,5.172l10.668-2.888,8.684,4.983a2.727,2.727,0,0,0,3.722-1.007l4.984-8.684,10.63-2.878a7.369,7.369,0,0,0,5.172-9.011l-5.211-19.25a7.369,7.369,0,0,0-9.011-5.172" transform="matrix(1, 0.02, -0.02, 1, -109.36, 987.34)" fill="#f03a4d"/>
      </g>
      <path id="path316-4" data-name="path316" d="M239.709-854.02a4.541,4.541,0,0,1-3.2,5.57,4.541,4.541,0,0,1-5.57-3.2,4.541,4.541,0,0,1,3.2-5.569,4.541,4.541,0,0,1,5.57,3.2" transform="translate(6901.999 4388.005)" fill="#fff"/>
      <path id="path318-4" data-name="path318" d="M238.2-798.484c-.879-3.246,1.694-4.174,4.94-5.053s5.936-1.375,6.814,1.871L238.2-798.484" transform="translate(6896.398 4346.902)" fill="#fff"/>
      <path id="path320-4" data-name="path320" d="M310.856-859.083a1.252,1.252,0,0,1-1.535-.881l-2.39-8.829L306-867.165a1.253,1.253,0,0,1-1.709.462,1.252,1.252,0,0,1-.462-1.709l2.438-4.245a1.252,1.252,0,0,1,1.245-.618,1.253,1.253,0,0,1,1.047.914l3.179,11.743a1.251,1.251,0,0,1-.881,1.535" transform="translate(6845.674 4400.303)" fill="#fff"/>
      <path id="path772-4" data-name="path772" d="M269.333-830.495v-.17h.064q-.03.085-.064.17" transform="translate(6872.205 4367.361)"/>
    </g>
    <g id="Group_2621" data-name="Group 2621" transform="matrix(0.788, 0.616, -0.616, 0.788, 3746.873, -4513.3)">
      <g transform="matrix(0.79, -0.62, 0.62, 0.79, 6940.4, 3571.11)" filter="url(#path314-5)">
        <path id="path314-13" data-name="path314" d="M193.718-925.253,155.03-914.779a7.368,7.368,0,0,0-5.172,9.011l5.211,19.25a7.369,7.369,0,0,0,9.011,5.172l10.668-2.888,8.684,4.983a2.727,2.727,0,0,0,3.722-1.007l4.984-8.684,10.63-2.878a7.369,7.369,0,0,0,5.172-9.011l-5.211-19.25a7.369,7.369,0,0,0-9.011-5.172" transform="matrix(0.79, 0.62, -0.62, 0.79, -516.17, 700.2)" fill="#f03a4d"/>
      </g>
      <path id="path316-5" data-name="path316" d="M239.709-854.02a4.541,4.541,0,0,1-3.2,5.57,4.541,4.541,0,0,1-5.57-3.2,4.541,4.541,0,0,1,3.2-5.569,4.541,4.541,0,0,1,5.57,3.2" transform="translate(6901.999 4388.005)" fill="#fff"/>
      <path id="path318-5" data-name="path318" d="M238.2-798.484c-.879-3.246,1.694-4.174,4.94-5.053s5.936-1.375,6.814,1.871L238.2-798.484" transform="translate(6896.398 4346.902)" fill="#fff"/>
      <path id="path320-5" data-name="path320" d="M310.856-859.083a1.252,1.252,0,0,1-1.535-.881l-2.39-8.829L306-867.165a1.253,1.253,0,0,1-1.709.462,1.252,1.252,0,0,1-.462-1.709l2.438-4.245a1.252,1.252,0,0,1,1.245-.618,1.253,1.253,0,0,1,1.047.914l3.179,11.743a1.251,1.251,0,0,1-.881,1.535" transform="translate(6845.674 4400.303)" fill="#fff"/>
      <path id="path772-5" data-name="path772" d="M269.333-830.495v-.17h.064q-.03.085-.064.17" transform="translate(6872.205 4367.361)"/>
    </g>
    <g id="Group_2622" data-name="Group 2622" transform="matrix(0.788, 0.616, -0.616, 0.788, 3668.873, -4570.3)">
      <g transform="matrix(0.79, -0.62, 0.62, 0.79, 7036.96, 3568.01)" filter="url(#path314-6)">
        <path id="path314-14" data-name="path314" d="M193.718-925.253,155.03-914.779a7.368,7.368,0,0,0-5.172,9.011l5.211,19.25a7.369,7.369,0,0,0,9.011,5.172l10.668-2.888,8.684,4.983a2.727,2.727,0,0,0,3.722-1.007l4.984-8.684,10.63-2.878a7.369,7.369,0,0,0,5.172-9.011l-5.211-19.25a7.369,7.369,0,0,0-9.011-5.172" transform="matrix(0.79, 0.62, -0.62, 0.79, -594.17, 643.2)" fill="#f03a4d"/>
      </g>
      <path id="path316-6" data-name="path316" d="M239.709-854.02a4.541,4.541,0,0,1-3.2,5.57,4.541,4.541,0,0,1-5.57-3.2,4.541,4.541,0,0,1,3.2-5.569,4.541,4.541,0,0,1,5.57,3.2" transform="translate(6901.999 4388.005)" fill="#fff"/>
      <path id="path318-6" data-name="path318" d="M238.2-798.484c-.879-3.246,1.694-4.174,4.94-5.053s5.936-1.375,6.814,1.871L238.2-798.484" transform="translate(6896.398 4346.902)" fill="#fff"/>
      <path id="path320-6" data-name="path320" d="M310.856-859.083a1.252,1.252,0,0,1-1.535-.881l-2.39-8.829L306-867.165a1.253,1.253,0,0,1-1.709.462,1.252,1.252,0,0,1-.462-1.709l2.438-4.245a1.252,1.252,0,0,1,1.245-.618,1.253,1.253,0,0,1,1.047.914l3.179,11.743a1.251,1.251,0,0,1-.881,1.535" transform="translate(6845.674 4400.303)" fill="#fff"/>
      <path id="path772-6" data-name="path772" d="M269.333-830.495v-.17h.064q-.03.085-.064.17" transform="translate(6872.205 4367.361)"/>
    </g>
    <g id="Group_2623" data-name="Group 2623" transform="translate(1286.066 -2745.332) rotate(16)">
      <g transform="matrix(0.96, -0.28, 0.28, 0.96, 6975.43, 3533.23)" filter="url(#path314-7)">
        <path id="path314-15" data-name="path314" d="M193.718-925.253,155.03-914.779a7.368,7.368,0,0,0-5.172,9.011l5.211,19.25a7.369,7.369,0,0,0,9.011,5.172l10.668-2.888,8.684,4.983a2.727,2.727,0,0,0,3.722-1.007l4.984-8.684,10.63-2.878a7.369,7.369,0,0,0,5.172-9.011l-5.211-19.25a7.369,7.369,0,0,0-9.011-5.172" transform="translate(-260.39 869.34) rotate(16)" fill="#f03a4d"/>
      </g>
      <path id="path316-7" data-name="path316" d="M239.709-854.02a4.541,4.541,0,0,1-3.2,5.57,4.541,4.541,0,0,1-5.57-3.2,4.541,4.541,0,0,1,3.2-5.569,4.541,4.541,0,0,1,5.57,3.2" transform="translate(6901.999 4388.005)" fill="#fff"/>
      <path id="path318-7" data-name="path318" d="M238.2-798.484c-.879-3.246,1.694-4.174,4.94-5.053s5.936-1.375,6.814,1.871L238.2-798.484" transform="translate(6896.398 4346.902)" fill="#fff"/>
      <path id="path320-7" data-name="path320" d="M310.856-859.083a1.252,1.252,0,0,1-1.535-.881l-2.39-8.829L306-867.165a1.253,1.253,0,0,1-1.709.462,1.252,1.252,0,0,1-.462-1.709l2.438-4.245a1.252,1.252,0,0,1,1.245-.618,1.253,1.253,0,0,1,1.047.914l3.179,11.743a1.251,1.251,0,0,1-.881,1.535" transform="translate(6845.674 4400.303)" fill="#fff"/>
      <path id="path772-7" data-name="path772" d="M269.333-830.495v-.17h.064q-.03.085-.064.17" transform="translate(6872.205 4367.361)"/>
    </g>
    <g id="Group_2624" data-name="Group 2624" transform="translate(982.073 -2406.631) rotate(13)">
      <g transform="matrix(0.97, -0.22, 0.22, 0.97, 7000.96, 3495.05)" filter="url(#path314-8)">
        <path id="path314-16" data-name="path314" d="M193.718-925.253,155.03-914.779a7.368,7.368,0,0,0-5.172,9.011l5.211,19.25a7.369,7.369,0,0,0,9.011,5.172l10.668-2.888,8.684,4.983a2.727,2.727,0,0,0,3.722-1.007l4.984-8.684,10.63-2.878a7.369,7.369,0,0,0,5.172-9.011l-5.211-19.25a7.369,7.369,0,0,0-9.011-5.172" transform="translate(-248.01 913.24) rotate(13)" fill="#f03a4d"/>
      </g>
      <path id="path316-8" data-name="path316" d="M239.709-854.02a4.541,4.541,0,0,1-3.2,5.57,4.541,4.541,0,0,1-5.57-3.2,4.541,4.541,0,0,1,3.2-5.569,4.541,4.541,0,0,1,5.57,3.2" transform="translate(6901.999 4388.005)" fill="#fff"/>
      <path id="path318-8" data-name="path318" d="M238.2-798.484c-.879-3.246,1.694-4.174,4.94-5.053s5.936-1.375,6.814,1.871L238.2-798.484" transform="translate(6896.398 4346.902)" fill="#fff"/>
      <path id="path320-8" data-name="path320" d="M310.856-859.083a1.252,1.252,0,0,1-1.535-.881l-2.39-8.829L306-867.165a1.253,1.253,0,0,1-1.709.462,1.252,1.252,0,0,1-.462-1.709l2.438-4.245a1.252,1.252,0,0,1,1.245-.618,1.253,1.253,0,0,1,1.047.914l3.179,11.743a1.251,1.251,0,0,1-.881,1.535" transform="translate(6845.674 4400.303)" fill="#fff"/>
      <path id="path772-8" data-name="path772" d="M269.333-830.495v-.17h.064q-.03.085-.064.17" transform="translate(6872.205 4367.361)"/>
    </g>
  </g>
</svg>
