<svg xmlns="http://www.w3.org/2000/svg" width="246.074" height="227.189" viewBox="0 0 246.074 227.189"><defs><style>.a,.g{fill:#e6e6e6;}.a{opacity:0.45;}.b,.d,.e{fill:#3f38dd;}.c,.i,.j{fill:#a5a5a5;}.d{opacity:0.58;}.e{opacity:0.73;}.f{fill:#24285b;}.h{fill:#c9c9c9;}.i{opacity:0.39;}.j{opacity:0.13;}.k{fill:#ffd200;}.l{opacity:0.08;}.m,.n{fill:#fff;}.m{opacity:0.46;}.o{fill:#f4a28c;}.p{fill:#ce8172;opacity:0.31;}</style></defs><g transform="translate(-50.359 -29.07)"><ellipse class="a" cx="117.043" cy="10.61" rx="117.043" ry="10.61" transform="translate(62.347 235.04)"/><path class="b" d="M153.46,257.641s2.089,2.737.73,5.3.62,4.762,2.655,2.956,2.846-9.314,2.846-9.314l-4.625-2.673Z" transform="translate(-9.046 -19.728)"/><path class="b" d="M171.749,217.731s-.912,3.311,1.4,5.163,1.286,4.625-1.3,3.758-6.249-7.462-6.249-7.462l3.211-4.26Z" transform="translate(-10.111 -16.308)"/><path class="c" d="M212.172,260.773l-4.342-3.229,18.948-25.5V188.13h5.41v45.7Z" transform="translate(-13.817 -13.956)"/><rect class="c" width="5.401" height="34.237" transform="translate(212.38 219.04) rotate(-35.83)"/><path class="d" d="M273.868,253.561s-6.678-1.825-8.128-8.037c0,0,10.345-2.089,10.637,8.584Z" transform="translate(-18.898 -18.977)"/><path class="e" d="M275.333,252.248s-4.671-7.371-.566-14.268c0,0,7.864,5,4.37,14.286Z" transform="translate(-19.542 -18.33)"/><path class="b" d="M276.86,252.739s2.472-7.791,9.916-9.259c0,0,1.4,5.054-4.826,9.278Z" transform="translate(-19.874 -18.813)"/><path class="f" d="M271.56,253.44l1.35,9.25,8.52.036,1.259-9.241Z" transform="translate(-19.409 -19.687)"/><rect class="g" width="93.424" height="132.122" transform="translate(168.953 43.684)"/><rect class="h" width="93.424" height="17.753" transform="translate(168.953 167.998)"/><rect class="i" width="43.177" height="9.113" transform="translate(194.077 131.206)"/><rect class="j" width="43.177" height="9.113" transform="translate(194.077 146.25)"/><rect class="k" width="49.298" height="31.418" transform="translate(238.632 29.07)"/><rect class="f" width="6.687" height="6.687" transform="translate(248.356 47.443)"/><path class="b" d="M133,78.6s32.358-2.253,29.74,36.855,41.417,36.928,41.417,36.928v9.031s-60.209,7.909-65.683-25.863S133,78.6,133,78.6Z" transform="translate(-7.251 -4.344)"/><path class="l" d="M217.479,166.079s3.485,9.88-9.287,11.248-2.737,10.391-11.631,20.362h-15.28L179,165.13Z" transform="translate(-11.287 -11.938)"/><path class="m" d="M133,78.6s32.358-2.253,29.74,36.855,41.417,36.928,41.417,36.928v9.031s-60.209,7.909-65.683-25.863S133,78.6,133,78.6Z" transform="translate(-7.251 -4.344)"/><rect class="f" width="6.687" height="13.875" transform="translate(259.623 40.263)"/><rect class="f" width="6.687" height="18.701" transform="translate(271.519 35.428)"/><circle class="n" cx="25.087" cy="25.087" r="25.087" transform="translate(190.583 66.737)"/><path class="k" d="M231.57,70.36V95.447l24.558-5.109S252.707,70.2,231.57,70.36Z" transform="translate(-15.9 -3.623)"/><path class="f" d="M230.228,97.369,216.28,118.223s14.058,10.7,30.342-1.879c0,0,11.148-8.073,8.21-24.084Z" transform="translate(-14.558 -5.544)"/><path class="o" d="M108.229,56.281a32.146,32.146,0,0,1,.83,8.52,2.591,2.591,0,0,1-2.855,2.3,5.711,5.711,0,0,1-5.045-3.649L98.97,59.264a4.625,4.625,0,0,1,1.3-5.182C102.856,51.592,107.664,53.188,108.229,56.281Z" transform="translate(-4.238 -2.087)"/><path class="o" d="M99.48,62.75l1.587,16.8,9.2-1.533-4.844-11.613Z" transform="translate(-4.31 -2.955)"/><path class="f" d="M98.413,62.7h0a.484.484,0,0,0,.429.411,3.421,3.421,0,0,0,3.594-2.053,4.288,4.288,0,0,0-.684-4.671,20.343,20.343,0,0,0,4.753-.365,4.643,4.643,0,0,0,1.505-.538l.757-4.014s1.542-4.133-.839-4.634-3.065,2.217-5.154.62-2.6-2.235-4.361-.912.611,2.472-2.49,2.892-2.983,1.706-2.819,3.12a2.481,2.481,0,0,0,.812,1.2,15.809,15.809,0,0,1,4.5,8.94Z" transform="translate(-3.745 -1.47)"/><path class="o" d="M103.662,62.1s-.328-1.952-1.825-1.587-.958,3.175,1.086,3.175Z" transform="translate(-4.442 -2.755)"/><path class="o" d="M109.741,60.11l1.715,1.724a.821.821,0,0,1-.328,1.35l-1.9.657Z" transform="translate(-5.165 -2.723)"/><path class="p" d="M106.3,68.382s-1.186.21-3.831-.912c0,0,.839,3.266,5.282,4.3Z" transform="translate(-4.572 -3.369)"/><path class="b" d="M69.535,116.427c-4.89-13.757-6.687-20.389,16.3-33.6,10.947-6.295,28.207-7.234,45.075-3.649,33.48,7.143,5.474,50.658,13.994,74.2l-37.977,14.231S80.2,146.34,69.535,116.427Z" transform="translate(-1.413 -4.214)"/><path class="f" d="M110.82,174.961s14.158,57.144,37.266,74.988l6.687-3.366s-25.114-39.692-15.627-59.653a90.317,90.317,0,0,0,3.412-8.584l6.24-17.616Z" transform="translate(-5.305 -11.552)"/><path class="l" d="M96.975,99.23s10.035,9.46,3.777,25.26c-4.324,10.865,5.118,22.4,16.421,19.522.338-.091.693-.182,1.049-.292,16.649-5.017,26.081-.155,26.081-.155s.274,9.934,1.7,11.768l-37.977,14.231-.912-.584L93.992,155.936s-9.679-11.166-14.049-18.674S96.975,99.23,96.975,99.23Z" transform="translate(-2.544 -6.156)"/><path class="f" d="M150.627,160.73s45.668,1.2,33.8,27.7a160.2,160.2,0,0,1-14.3,25.543l-7.435-2.673s26.455-48.9-31.017-24.348Z" transform="translate(-7.134 -11.552)"/><path class="b" d="M93.491,97.168c-6.386-8.11-18.628-8.3-25.689-.785-11.859,12.589-26.975,36.9-9.506,68.146,18.026,32.239,66.239-9.925,66.239-9.925l-4.716-9.789s-46.981,24.631-44.7,0C76.97,124.8,104.84,111.591,93.491,97.168Z" transform="translate(0 -5.426)"/><path class="m" d="M93.491,97.168c-6.386-8.11-18.628-8.3-25.689-.785-11.859,12.589-26.975,36.9-9.506,68.146,18.026,32.239,66.239-9.925,66.239-9.925l-4.716-9.789s-46.981,24.631-44.7,0C76.97,124.8,104.84,111.591,93.491,97.168Z" transform="translate(0 -5.426)"/><path class="o" d="M128.1,152.862l12-4.862s6,8.21-8.739,11.613Z" transform="translate(-6.821 -10.435)"/><path class="k" d="M150.806,143.893l-1.852-28.353-34.1,8.356,2.719,23.892L102,151.839l.921,3.786Z" transform="translate(-4.531 -7.587)"/><circle class="n" cx="3.512" cy="3.512" r="3.512" transform="translate(125.722 121.974)"/><path class="o" d="M211,162.47s5.8-1.825,9.287,1.35S211,167.77,211,167.77Z" transform="translate(-14.095 -11.659)"/><path class="b" d="M91,80.889s-.748-5.656,10.454-7.024,16.421-3.339,17.807,3C119.279,76.866,114.517,86.089,91,80.889Z" transform="translate(-3.565 -3.807)"/><path class="m" d="M91,80.889s-.748-5.656,10.454-7.024,16.421-3.339,17.807,3C119.279,76.866,114.517,86.089,91,80.889Z" transform="translate(-3.565 -3.807)"/></g></svg>