<svg xmlns="http://www.w3.org/2000/svg" width="261.826" height="168.775" viewBox="0 0 261.826 168.775"><defs><style>.a{fill:#3f38dd;}.b,.g{fill:#fff;}.b{opacity:0.2;}.c{fill:#ffd200;}.d{fill:#e6e6e6;opacity:0.45;}.e{fill:#24285b;}.f{opacity:0.08;}.g{opacity:0.57;}.h{fill:#f4a28c;}.i{fill:#ce8172;opacity:0.31;}</style></defs><g transform="translate(-47 -69.819)"><path class="a" d="M159.253,87.08s-26.613-19.689-53.218-17.01S52.55,107.053,52.55,107.053l8.613,6.528s44.64-37.035,68.815-9.655S159.253,87.08,159.253,87.08Z" transform="translate(-0.77)"/><path class="b" d="M159.253,87.08s-26.613-19.689-53.218-17.01S52.55,107.053,52.55,107.053l8.613,6.528s44.64-37.035,68.815-9.655S159.253,87.08,159.253,87.08Z" transform="translate(-0.77)"/><rect class="c" width="91.381" height="59.04" transform="translate(47 84.332)"/><path class="d" d="M288.308,219.568a11.575,11.575,0,0,1-7.95-5.951v-.086L239.577,135.87l-22.445,15.89,15.873,49.9a8.535,8.535,0,0,1-8.535,11.119c-12.058-.551-24.882-.861-38.206-.861-68.833,0-124.634,8.018-124.634,17.914s55.8,17.923,124.634,17.923,124.591-8.018,124.591-17.9C310.856,226.019,302.51,222.479,288.308,219.568Z" transform="translate(-2.03 -9.163)"/><path class="a" d="M173.29,238.18s1.275,4.306,5.056,4.814,4.573,4.306,1.1,5.081-12.058-4.091-12.058-4.091l.543-5.469Z" transform="translate(-16.702 -23.357)"/><path class="a" d="M87.1,236.313s-4.375.947-5.168,4.677-4.634,4.229-5.168.706,5-11.7,5-11.7l5.409.973Z" transform="translate(-4.124 -22.222)"/><path class="e" d="M89.367,162.67s-4.031,18.81,10.482,26.872,60.289-6.451,53.218,39.239h10.215s13.2-37.9-21.049-51.366l-10.4-11.791Z" transform="translate(-5.806 -12.881)"/><rect class="c" width="4.806" height="31.454" transform="matrix(0.723, 0.691, -0.691, 0.723, 221.012, 132.891)"/><rect class="f" width="4.806" height="31.454" transform="matrix(0.723, 0.691, -0.691, 0.723, 221.012, 132.891)"/><rect class="c" width="4.806" height="31.454" transform="matrix(0.723, 0.691, -0.691, 0.723, 219.319, 131.263)"/><ellipse class="c" cx="14.642" cy="9.767" rx="14.642" ry="9.767" transform="matrix(0.691, -0.723, 0.723, 0.691, 208.006, 135.857)"/><ellipse class="f" cx="14.642" cy="9.767" rx="14.642" ry="9.767" transform="matrix(0.691, -0.723, 0.723, 0.691, 208.006, 135.857)"/><ellipse class="c" cx="14.642" cy="9.767" rx="14.642" ry="9.767" transform="matrix(0.691, -0.723, 0.723, 0.691, 206.309, 134.242)"/><ellipse class="g" cx="9.672" cy="6.451" rx="9.672" ry="6.451" transform="matrix(0.691, -0.723, 0.723, 0.691, 212.14, 132.94)"/><path class="h" d="M215.956,90.75s-3.884,5.641-7.657,8.415a3.445,3.445,0,0,1-4.814-.758c-1.369-1.921-2.661-4.918-.947-8.191L204.76,84.3a6.149,6.149,0,0,1,6.27-3.307C215.741,81.267,218.488,87.434,215.956,90.75Z" transform="translate(-21.464 -1.543)"/><path class="h" d="M204.007,86.25,186.48,93.312l2.153,12.471,12.635-10.309Z" transform="translate(-19.35 -2.279)"/><path class="e" d="M214.255,89.542a27.56,27.56,0,0,1-4.565-4.392,5.727,5.727,0,0,1-3.988,4.84,4.651,4.651,0,0,1-5.512-2.145l5.684-6.718a6.985,6.985,0,0,1,6.683-2.584,25.727,25.727,0,0,1,3.178.758c2.584.861,4.384,4.5,7.226,4.616a1.654,1.654,0,0,1,1.335,2.506c-1.4,2.317-4.444,5.262-8.173,4.082a6.417,6.417,0,0,1-1.869-.965Z" transform="translate(-21.252 -1.196)"/><path class="h" d="M206.94,91.659s1.636-2.067,0-3.178-4.039,1.869-2.188,3.858Z" transform="translate(-21.792 -2.556)"/><path class="h" d="M214.529,96.31l-.207,3.247a1.1,1.1,0,0,1-1.628.861l-2.334-1.292Z" transform="translate(-22.663 -3.675)"/><path class="i" d="M201.261,97.419s.525-3.919,1.938-5.409a10.074,10.074,0,0,0-6.528,9.173Z" transform="translate(-20.764 -3.079)"/><path class="f" d="M67.66,145.523S67.384,104.9,116.184,96.31L87.512,147.047H67.7Z" transform="translate(-2.866 -3.675)"/><path class="a" d="M177.5,109.671l-1.447-8.415A20.55,20.55,0,0,0,163.726,85.65a36.474,36.474,0,0,0-8.69-2.282c-3.824-.534-9.181,0-15.176,1.576C114.039,91.722,95.091,113.6,91.173,139.97l-1.723,11.67,42.469,2.954s-2.153-12.058,12.919-12.058S179,142.692,177.5,109.671Z" transform="translate(-5.889 -1.852)"/><path class="f" d="M135.881,98.79s-20.61,3.626-43.262,36.268l-3.169,18.75,32.229,2.394Z" transform="translate(-5.889 -4.019)"/><path class="a" d="M163.885,113.2c4.022-13.419-11.575-24.271-22.694-15.744-9.3,7.123-19.809,19.947-20.223,41.591-.715,39.059,36.7,32.074,87.333,17.113l-1.611-11.377s-60.633,11.464-52.4-8.242C157.736,128.295,161.75,120.337,163.885,113.2Z" transform="translate(-10.26 -3.414)"/><path class="b" d="M163.885,113.2c4.022-13.419-11.575-24.271-22.694-15.744-9.3,7.123-19.809,19.947-20.223,41.591-.715,39.059,36.7,32.074,87.333,17.113l-1.611-11.377s-60.633,11.464-52.4-8.242C157.736,128.295,161.75,120.337,163.885,113.2Z" transform="translate(-10.26 -3.414)"/><path class="e" d="M137.836,179.9s1.249,43.193-49.29,51.271l-1.955-9.155s40.48-10.034,14.332-36.914Z" transform="translate(-5.492 -15.272)"/><ellipse class="f" cx="5.495" cy="2.033" rx="5.495" ry="2.033" transform="translate(206.455 218.647)"/><ellipse class="f" cx="5.495" cy="2.033" rx="5.495" ry="2.033" transform="translate(227.47 213.385)"/><ellipse class="f" cx="5.495" cy="2.033" rx="5.495" ry="2.033" transform="translate(248.632 217.45)"/><ellipse class="f" cx="5.495" cy="2.033" rx="5.495" ry="2.033" transform="translate(281.033 219.491)"/><ellipse class="f" cx="5.615" cy="2.084" rx="5.615" ry="2.084" transform="translate(185.501 212.825)"/><path class="h" d="M220.86,155.4s13.935-1.473,15.158,3.97-1.447,8.328-13.987,4.306Z" transform="translate(-24.12 -11.848)"/><path class="h" d="M59.67,154.975s2.007,8.13,10.042,6.416S72.012,149.7,59.67,154.975Z" transform="translate(-1.758 -11.602)"/></g></svg>