<svg xmlns="http://www.w3.org/2000/svg" width="24" height="24" viewBox="0 0 24 24">
  <g id="Group_2771" data-name="Group 2771" transform="translate(-36 -299)">
    <g id="check_3_" data-name="check (3)" transform="translate(36 299)">
      <path id="Path_16642" data-name="Path 16642" d="M12,0A12,12,0,1,0,24,12,12.013,12.013,0,0,0,12,0Zm0,0" fill="#ebeafc"/>
    </g>
    <g id="planet-earth" transform="translate(42 304.999)">
      <g id="Group_2764" data-name="Group 2764" transform="translate(8.553 10.459)">
        <g id="Group_2763" data-name="Group 2763">
          <path id="Path_16800" data-name="Path 16800" d="M369.184,459.181a.291.291,0,0,0-.4-.106l-.011.006a.291.291,0,1,0,.292.5l.011-.006A.291.291,0,0,0,369.184,459.181Z" transform="translate(-368.63 -459.036)" fill="#3f38dd"/>
        </g>
      </g>
      <g id="Group_2766" data-name="Group 2766" transform="translate(0 0.001)">
        <g id="Group_2765" data-name="Group 2765" transform="translate(0 0)">
          <path id="Path_16801" data-name="Path 16801" d="M11.2,3A6,6,0,0,0,.207,4.449,6,6,0,0,0,8.147,11.6a.234.234,0,0,0-.168-.437,5.494,5.494,0,0,1-5.287-.727l.21-1.1L3,9.311a.73.73,0,0,0,.468-.919L3.4,8.164A.259.259,0,0,1,3.4,8a.729.729,0,0,0-.553-.943l-.529-.1L1.295,6.18a.234.234,0,0,0-.214-.036l-.6.194a5.525,5.525,0,0,1,0-.64l.048.047a.246.246,0,0,0,.229.117,3.4,3.4,0,0,0,.42-.048c.2-.029.394-.062.4-.062a.234.234,0,0,0,.155-.363l-.287-.421.412-.294A.235.235,0,0,0,1.922,4.6L2.56,3.485l.257-.276a.99.99,0,0,0,.191-1.05,1.078,1.078,0,0,0-.427-.5A5.523,5.523,0,0,1,5.937.474L5.519,1l-1.552.544a.234.234,0,0,0-.139.132L3.394,2.725a.234.234,0,0,0,.026.226l.633.887a2.227,2.227,0,0,0-.284.353c-.046.066-.09.128-.12.162l-.078.089a2.193,2.193,0,0,0-.377.523,1.4,1.4,0,0,0,.116,1.412,1.315,1.315,0,0,0,1.242.533,1.825,1.825,0,0,0,.229-.046c.2-.05.265-.055.329.006.031.029.034.035.034.135a.911.911,0,0,0,.021.232.741.741,0,0,0,.2.324.525.525,0,0,1,.085.108.584.584,0,0,1-.028.485L5.4,8.208a1.315,1.315,0,0,0,.172.94c.042.093.082.181.108.259.211.625.369.768.5.826a.488.488,0,0,0,.2.043,1.311,1.311,0,0,0,.852-.513.72.72,0,0,0,.145-.341.374.374,0,0,1,.03-.1.614.614,0,0,1,.077-.1A.813.813,0,0,0,7.677,8.9a.516.516,0,0,1,.159-.25L7.888,8.6a.752.752,0,0,0,.147-.874c-.072-.231.054-.379.357-.661a2.531,2.531,0,0,0,.372-.4.506.506,0,0,0,.1-.469c-.085-.2-.3-.23-.473-.256a.777.777,0,0,1-.2-.048,1.108,1.108,0,0,1-.32-.484c-.017-.038-.034-.076-.051-.112-.03-.065-.061-.144-.093-.227a1.966,1.966,0,0,0-.346-.645,1.5,1.5,0,0,0-.673-.3c-.083-.022-.161-.044-.212-.063a.234.234,0,0,0-.135-.008.608.608,0,0,0-.25.1.291.291,0,0,0-.083.112A2.681,2.681,0,0,1,5.745,4.1l0,0a.332.332,0,0,0-.021-.226c-.131-.277-.566-.255-.651-.248-.049,0-.11.006-.175.009-.1,0-.216.008-.327.02l.006-.016a.6.6,0,0,1,.563-.4h.133a.234.234,0,0,0,0-.469H5.134a1.07,1.07,0,0,0-.907.506l-.35-.49.344-.834,1.516-.532a.234.234,0,0,0,.106-.075L6.517.5A5.527,5.527,0,0,1,10.79,3.237a5.469,5.469,0,0,1,.552,1.341l-.1.089a.626.626,0,0,0-.209.455v.006l-.162-.445a.585.585,0,0,0-.106-.181l-.289-.338a.587.587,0,0,0-.447-.206H9.678a.339.339,0,0,0-.282.528l.036.054A2.6,2.6,0,0,1,8.657,5l-.484-.928V3.864A.234.234,0,0,0,8.1,3.694l-.436-.416a.235.235,0,0,0-.084-.052l-.393-.138a.234.234,0,1,0-.155.442l.345.121.327.312v.164a.234.234,0,0,0,.027.108L8.337,5.4a.234.234,0,0,0,.289.111L8.8,5.445a3.067,3.067,0,0,0,1.1-.7.234.234,0,0,0,.029-.3l-.012-.019h.112a.119.119,0,0,1,.091.042l.289.338a.119.119,0,0,1,.021.037l.319.876a.234.234,0,0,0,.386.086l.152-.152a.732.732,0,0,0,.194-.352,5.55,5.55,0,0,1-2.061,5.047.234.234,0,0,0,.289.369A6,6,0,0,0,11.2,3ZM1.109,6.628l.966.735a.234.234,0,0,0,.1.043l.582.114a.26.26,0,0,1,.2.337.724.724,0,0,0,0,.453l.074.228a.261.261,0,0,1-.167.328l-.233.076a.234.234,0,0,0-.158.179L2.28,10.1A5.592,5.592,0,0,1,1.213,8.767,5.5,5.5,0,0,1,.532,6.815ZM2.474,2.89l-.276.3a.235.235,0,0,0-.032.043L1.541,4.322l-.556.4a.234.234,0,0,0-.057.323l.208.305c-.12.018-.228.033-.3.04l-.043-.04C.737,5.3.66,5.227.544,5.126A5.539,5.539,0,0,1,2.195,1.991a.609.609,0,0,1,.38.348A.52.52,0,0,1,2.474,2.89ZM4.385,4.17A1.5,1.5,0,0,1,4.91,4.1c.071,0,.138,0,.2-.01a.637.637,0,0,1,.1,0,.234.234,0,0,0,.108.292c.044.024.105.064.17.108a1.35,1.35,0,0,0,.586.273.389.389,0,0,0,.318-.133l.01-.01a.251.251,0,0,0,.063-.077l.117.032a1.561,1.561,0,0,1,.454.168,1.664,1.664,0,0,1,.25.492c.035.091.069.177.106.257.016.034.032.07.048.105a1.464,1.464,0,0,0,.491.685.969.969,0,0,0,.39.119l.051.008a2.266,2.266,0,0,1-.3.312c-.29.27-.651.606-.485,1.143.078.253.082.281-.044.418l-.048.052a.963.963,0,0,0-.264.429.366.366,0,0,1-.1.149A1.046,1.046,0,0,0,7,9.082a.76.76,0,0,0-.085.249.287.287,0,0,1-.049.137,1.366,1.366,0,0,1-.3.262.387.387,0,0,1-.2.078,1.672,1.672,0,0,1-.252-.55c-.034-.1-.081-.2-.126-.3a1,1,0,0,1-.153-.6L5.864,8.3a1.024,1.024,0,0,0,.016-.811.845.845,0,0,0-.171-.243.436.436,0,0,1-.09-.119.507.507,0,0,1-.008-.119.581.581,0,0,0-.182-.48.755.755,0,0,0-.762-.118,1.47,1.47,0,0,1-.171.036A.842.842,0,0,1,3.69,6.1a.928.928,0,0,1-.073-.938,1.779,1.779,0,0,1,.3-.412L4,4.66c.046-.053.1-.124.149-.2A1.694,1.694,0,0,1,4.385,4.17Z" transform="translate(0 -0.001)" fill="#3f38dd"/>
        </g>
      </g>
      <g id="Group_2768" data-name="Group 2768" transform="translate(7.942 7.009)">
        <g id="Group_2767" data-name="Group 2767">
          <path id="Path_16802" data-name="Path 16802" d="M351.893,319.456l-.14-.528a.291.291,0,0,0-.537-.064c-.032.059-.061.121-.088.181a1.251,1.251,0,0,1-.145.264.642.642,0,0,1-.171.1.8.8,0,0,0-.485.471.853.853,0,0,0-.019.411.265.265,0,0,1-.007.172l0,.007a.98.98,0,0,0-.023.966.606.606,0,0,0,.495.309.475.475,0,0,0,.078-.006c.3-.049.52-.357.7-.972l.342-1.154A.291.291,0,0,0,351.893,319.456Zm-.9,1.146a1.765,1.765,0,0,1-.223.525l-.018-.024c-.056-.079.028-.274.083-.4l0-.007a.819.819,0,0,0,.048-.485.305.305,0,0,1,0-.151c.011-.036.08-.072.182-.121.046-.022.1-.046.146-.075Z" transform="translate(-350.15 -318.712)" fill="#3f38dd"/>
        </g>
      </g>
      <g id="Group_2770" data-name="Group 2770" transform="translate(5.94 2.74)">
        <g id="Group_2769" data-name="Group 2769">
          <path id="Path_16803" data-name="Path 16803" d="M256.451,118.083l-.02-.007a.291.291,0,1,0-.193.549l.02.007a.291.291,0,0,0,.193-.549Z" transform="translate(-256.044 -118.059)" fill="#3f38dd"/>
        </g>
      </g>
    </g>
  </g>
</svg>
